<svg width="400" height="276" viewBox="0 0 400 276" fill="none" xmlns="http://www.w3.org/2000/svg">
<g filter="url(#filter0_d_4018_14343)">
<g clip-path="url(#clip0_4018_14343)">
<path d="M226.972 94.0226C217.711 88.3079 204.562 82.7344 204.562 82.7344C205.69 92.0074 211.484 111.532 211.484 111.532C222.258 121.502 223.76 121.015 223.76 121.015C229.333 103 226.972 94.0226 226.972 94.0226Z" fill="#FFA283"/>
<path d="M202.709 134.44C202.709 134.44 224.516 203.71 237.397 204.441C243.052 204.762 304.887 165.006 304.887 165.006L310.693 189.525C310.693 189.525 252.395 242.465 227.116 235.803C201.838 229.142 197.035 211.794 197.035 211.794L202.709 134.44Z" fill="#E76A53"/>
<path d="M169.441 20.2446L170.88 20.4196L193.905 23.2174C193.905 23.2174 192.933 28.1143 198.094 32.5877C203.256 37.0606 235.134 126.115 221.465 141.186C207.795 156.256 148.815 154.476 147.073 154.579C145.332 154.681 132.027 89.3821 132.027 89.3821L169.441 20.2446Z" fill="#3E1000"/>
<path d="M125.268 494.946C123.184 461.065 120.125 411.317 119.226 396.709C117.635 370.847 123.631 302.267 137.833 267.491C152.035 232.714 221.278 262.588 221.278 262.588C221.278 262.588 238.634 294.579 245.641 342.085L258.646 489.853C210.706 500.045 172.883 502.844 125.268 494.946Z" fill="#912A4D"/>
<path d="M194.847 118.687C197.294 120.807 232.073 154.525 231.081 179.625C229.598 217.129 221.359 255.519 225.933 270.201C233.568 294.709 142.153 303.829 135.941 272.652C133.731 261.56 134.983 233.419 130.734 208.271C123.988 168.338 111.779 129.353 113.524 128.161C152.164 101.751 188.142 112.876 194.847 118.687Z" fill="#535353"/>
<path d="M224.435 245.487C211.554 245.695 190.111 244.269 187.199 241.745C183.167 238.25 171.677 208.303 171.677 208.303L178.418 204.768C178.418 204.768 159.32 149.803 141.774 134.597C131.378 125.587 125.156 123.326 121.809 122.978C120.263 123.861 118.712 124.786 117.16 125.768C117.23 129.706 117.364 138.696 117.301 147.059C120.111 158.398 123.977 173.811 127.378 190.414C134.24 203.734 142.081 217.462 143.746 219.785C146.916 224.206 172.226 258.093 172.226 258.093L225.349 267.532C224.544 262.097 223.082 255.319 224.435 245.487Z" fill="#0D5965"/>
<path d="M101.559 155.426C106.897 128.173 113.523 128.161 113.523 128.161C113.523 128.161 120.94 155.331 127.154 179.959C124.198 179.352 121.263 178.348 118.39 176.894C109.551 172.422 104.466 163.563 101.559 155.426Z" fill="#6ADAF4"/>
<path d="M186.162 70.1796L192.143 110.482C192.143 110.482 209.055 157.744 198.095 162.406C187.136 167.069 167.653 113.779 167.653 113.779L164.465 61.9321L186.162 70.1796Z" fill="#FFA283"/>
<path opacity="0.68" d="M164.707 65.8896L165.972 86.4598C173.637 95.2725 182.958 101.279 190.802 101.459L186.768 74.2761L164.707 65.8896Z" fill="#FF7F4C"/>
<path d="M183.833 23.3297C183.833 23.3297 196.856 16.7307 202.926 42.6275C208.994 68.5247 207.104 93.1745 194.007 95.8893C180.91 98.6037 161.338 78.1317 153.823 61.0706C146.307 44.0091 173.083 21.1925 183.833 23.3297Z" fill="#FFA283"/>
<path d="M302.253 219.761C302.253 219.761 236.194 262.969 238.239 270.864C240.283 278.758 282.084 293.9 282.084 293.9C282.084 293.9 282.706 307.104 271.491 313.496C267.731 315.639 228.255 301.708 213.613 289.767C202.562 280.755 197.389 270.063 207.489 255.705C217.588 241.347 244.81 215.67 244.81 215.67L302.253 219.761Z" fill="#221B59"/>
<path d="M318.822 243.162C313.19 260.883 273.553 267.094 277.117 272.66C281.536 279.564 322.742 295.293 322.742 295.293C322.742 295.293 323.364 308.496 312.149 314.889C308.39 317.032 264.478 300.223 255.135 289.522C245.793 278.822 240.699 274.596 246.985 258.291C250.124 250.15 265.087 228.197 277.882 215.833C294.962 199.328 304.538 210.338 304.538 210.338C304.538 210.338 325.463 222.27 318.822 243.162Z" fill="#322783"/>
<path d="M301.418 253.635C300.839 253.983 300.191 253.302 300.593 252.767C303.712 248.624 308.86 240.981 304.2 241.255C299.489 241.532 295.076 247.621 289.756 249.93C287.869 250.75 188.893 259.816 179.589 243.789C176.345 238.203 166.602 219.217 161.312 199.07C142.747 200.7 132.981 203.537 117.152 213.169C125.041 243.243 135.341 268.659 147.493 279.19C162.759 292.42 245.286 276.81 264.73 272.903C267.594 272.328 270.478 271.902 273.388 271.625C281.911 270.816 299.754 269.139 303.524 268.917C308.52 268.624 318.821 243.161 318.821 243.161L301.418 253.635Z" fill="#FFA283"/>
<path opacity="0.68" d="M161.312 199.07C142.747 200.7 132.981 203.537 117.152 213.169C117.867 215.893 118.602 218.578 119.356 221.218C130.355 220.572 152.459 214.413 164.54 209.768C163.362 206.286 162.264 202.697 161.312 199.07Z" fill="#FF7F4C"/>
<path d="M118.564 123.404C118.564 123.404 104.395 122.51 107.558 173.939C108.503 189.306 110.909 203.533 114.27 216.347C122.823 216.555 156.382 215.3 167.136 200.419C167.136 200.419 142.57 116.333 118.564 123.404Z" fill="#535353"/>
<path d="M170.365 8.63403C172.49 9.28621 174.676 9.7315 176.893 9.94461C181.663 10.4014 189.72 12.6626 195.127 22.1136C203.238 36.2903 155.968 76.302 170.624 101.488C181.619 120.383 167.812 143.328 148.901 156.604C129.99 169.878 156.12 164.758 133.038 177.652C109.955 190.546 77.1599 149.64 93.5847 117.428C110.01 85.2163 122.563 24.3765 144.561 13.9647C159.076 7.09392 166.794 7.537 170.365 8.63403Z" fill="#691B00"/>
<path d="M360.596 209.263C355.677 197.773 347.166 179.108 340.719 171.366C331.091 159.804 324.488 143.895 324.488 143.895L311.949 159.601C311.949 159.601 347.73 213.235 348.102 219.276C348.474 225.318 347.329 237.871 350.092 238.656C352.855 239.442 350.114 229.558 353.785 229.342C357.455 229.127 356.502 248.323 357.936 249.565C358.226 249.816 359.108 249.895 359.381 249.262C360.39 246.914 360.353 238.02 360.353 238.02L361.02 248.874C361.079 249.824 362.056 250.431 362.972 250.107C362.981 250.104 362.99 250.1 363 250.097C363.565 249.893 363.929 249.344 363.919 248.755L363.688 236.034C363.688 236.034 364.017 248.499 364.568 249.123C365.433 250.101 365.956 245.421 365.979 240.738C366.031 228.937 362.627 214.006 360.596 209.263Z" fill="#FFA283"/>
<path d="M336.431 157.767C336.431 157.767 317.835 171.196 316.288 171.286C314.744 171.377 311.978 160.387 309.887 162.692C307.795 164.998 321.104 220.147 319.476 227.317C317.85 234.488 241.188 227.874 238.101 219.718C235.015 211.561 243.393 141.838 240.117 138.998C236.839 136.159 224.843 126.825 224.843 126.825C224.843 126.825 224.312 116.702 221.966 103.908C221.825 101.617 223.397 92.3465 223.932 89.8599C228.4 92.1143 237.639 96.5659 246.474 99.461C260.832 104.167 291.298 112.746 301.961 116.415C312.623 120.084 336.183 153.739 336.431 157.767Z" fill="#2F3239"/>
<path d="M266.43 92.9839L267.962 117.908C267.962 117.908 277.904 127.178 289.591 119.669L293.195 87.2661L266.43 92.9839Z" fill="#FFA283"/>
<path opacity="0.68" d="M267.202 105.545C275.033 106.993 284.371 103.226 292.18 96.39L293.195 87.2661L266.43 92.9839L267.202 105.545Z" fill="#FF7F4C"/>
<path d="M267.235 54.5307C267.235 54.5307 245.728 83.0825 257.107 95.8055C268.488 108.528 291.884 98.0578 302.694 80.4937C313.504 62.9296 270.84 41.6855 267.235 54.5307Z" fill="#FFA283"/>
<path d="M290.502 63.018C290.502 63.018 299.017 62.7703 296.148 70.7714C293.28 78.7725 287.39 81.7715 290.804 84.7291C293.151 86.7625 292.16 91.2616 291.311 93.8743C290.872 95.2253 290.881 96.6771 291.388 98.0054L291.455 98.1821C292.578 101.134 295.655 102.918 298.843 102.459C306.601 101.343 319.412 96.7379 317.552 78.3574C317.552 78.3574 323.322 66.1426 316.297 57.4596C309.272 48.7761 304.424 49.8194 304.424 49.8194C304.424 49.8194 301.58 41.3957 294.244 39.8054C286.908 38.2151 265.339 32.1546 263.719 43.6204C262.096 55.0853 272.911 62.7876 290.502 63.018Z" fill="#691B00"/>
<path d="M289.092 77.377C289.674 77.04 298.002 72.6527 299.557 77.3303C301 81.671 299.794 88.5919 293.646 88.9529C287.5 89.3138 281.603 81.7016 289.092 77.377Z" fill="#FFA283"/>
<path d="M310.499 171.299C310.499 171.299 300.236 174.82 299.742 179.205C299.248 183.59 311.729 178.364 309.337 180.238C306.947 182.112 297.785 183.748 298.371 186.894C299.482 192.862 309.542 185.138 311.427 187.436C313.312 189.736 303.605 190.811 303.326 193.295C303.045 195.782 311.445 194.48 314.132 194.261C316.821 194.04 313.245 176.033 310.499 171.299Z" fill="#FFA283"/>
</g>
</g>
<defs>
<filter id="filter0_d_4018_14343" x="-12" y="0" width="424" height="276" filterUnits="userSpaceOnUse" color-interpolation-filters="sRGB">
<feFlood flood-opacity="0" result="BackgroundImageFix"/>
<feColorMatrix in="SourceAlpha" type="matrix" values="0 0 0 0 0 0 0 0 0 0 0 0 0 0 0 0 0 0 127 0" result="hardAlpha"/>
<feOffset dy="4"/>
<feGaussianBlur stdDeviation="6"/>
<feComposite in2="hardAlpha" operator="out"/>
<feColorMatrix type="matrix" values="0 0 0 0 0.905882 0 0 0 0 0.913725 0 0 0 0 0.92549 0 0 0 0.3 0"/>
<feBlend mode="normal" in2="BackgroundImageFix" result="effect1_dropShadow_4018_14343"/>
<feBlend mode="normal" in="SourceGraphic" in2="effect1_dropShadow_4018_14343" result="shape"/>
</filter>
<clipPath id="clip0_4018_14343">
<rect width="400" height="252" fill="white" transform="translate(0 8)"/>
</clipPath>
</defs>
</svg>
