<svg width="338" height="218" viewBox="0 0 338 218" fill="none" xmlns="http://www.w3.org/2000/svg">
<g clip-path="url(#clip0_163_7872)">
<path d="M209.812 31.7305C198.09 33.885 180.04 39.4864 201.606 44.6572C228.565 51.1208 238.529 55.2346 241.459 57.585C244.389 59.9354 250.25 69.3366 231.496 74.625C212.742 79.9134 199.262 83.4397 197.504 84.0273C195.743 84.6155 172.304 90.4915 193.987 99.8926C215.671 109.294 239.114 117.52 246.733 123.983C254.352 130.447 285.414 152.776 286 218C267.246 218 86.347 217.021 0 218C30.8661 201.939 104.671 170.405 138.897 161.003C181.68 149.251 188.713 131.623 181.095 121.634C173.476 111.645 140.656 105.181 145.345 91.666C150.033 78.1512 202.192 74.6251 206.295 72.8623C210.397 71.0995 241.459 64.636 215.672 55.2344C189.885 45.8329 171.132 47.0082 176.992 39.957C181.681 34.3161 200.825 32.1222 209.812 31.7305ZM135.677 215.746L136.315 216.73C137.983 215.643 139.8 214.458 141.741 213.19L141.422 212.697L141.102 212.205C139.161 213.473 137.344 214.659 135.677 215.746ZM151.981 205.091L152.301 205.583L152.621 206.074C156.088 203.804 159.743 201.41 163.497 198.946L162.854 197.963C159.101 200.426 155.448 202.821 151.981 205.091ZM173.715 190.825L174.358 191.808C177.983 189.422 181.624 187.022 185.21 184.654L184.565 183.674C180.98 186.041 177.339 188.44 173.715 190.825ZM206.229 169.298C202.85 171.555 199.209 173.977 195.407 176.499L195.73 176.989L196.055 177.479C199.857 174.957 203.498 172.534 206.878 170.275L206.229 169.298ZM228.581 153.463C226.833 155.084 224.749 156.727 222.351 158.39C220.826 159.446 219.026 160.678 216.996 162.056L217.653 163.029C219.685 161.65 221.488 160.416 223.017 159.356C225.45 157.67 227.58 155.993 229.378 154.325L228.581 153.463ZM224.24 129.242C230.611 132.849 233.914 136.501 234.795 140.131L235.935 139.854C234.937 135.742 231.277 131.876 224.817 128.219L224.24 129.242ZM196.132 118.547C197.977 119.227 199.939 119.878 202.019 120.491C204.742 121.295 207.283 122.105 209.646 122.923L210.028 121.812C207.646 120.988 205.087 120.172 202.349 119.364C200.293 118.758 198.357 118.115 196.537 117.444L196.132 118.547ZM175.196 105.483C177.505 108.124 180.691 110.791 184.902 113.292L185.499 112.281C181.378 109.834 178.293 107.244 176.078 104.71L175.196 105.483ZM173.146 88.2422C171.377 89.4464 170.34 91.5163 170.246 94.0244L170.832 94.0469L171.417 94.0693C171.5 91.8622 172.399 90.1725 173.805 89.2158L173.476 88.7285L173.146 88.2422Z" fill="#3C5780" fill-opacity="0.16"/>
<path fill-rule="evenodd" clip-rule="evenodd" d="M205.709 0C211.212 0 215.672 4.53304 215.672 10.1248C215.672 15.7166 211.212 28.2049 205.709 28.2049C200.207 28.2049 195.746 15.7166 195.746 10.1248C195.746 4.53304 200.207 0 205.709 0ZM205.709 5.78561C203.351 5.78561 201.439 7.72834 201.439 10.1248C201.439 12.5213 203.351 14.464 205.709 14.464C208.067 14.464 209.979 12.5213 209.979 10.1248C209.979 7.72834 208.067 5.78561 205.709 5.78561Z" fill="#3C5780" fill-opacity="0.16"/>
</g>
<defs>
<clipPath id="clip0_163_7872">
<rect width="338" height="218" fill="white"/>
</clipPath>
</defs>
</svg>
