<svg width="353" height="225" viewBox="0 0 353 225" fill="none" xmlns="http://www.w3.org/2000/svg">
<path d="M0 0.0533881H353C353 43.2101 352.442 129.522 352.442 129.522C341.212 138.737 329.533 147.387 317.445 155.442C296.337 170.017 274.004 182.731 250.699 193.441C249.256 194.094 239.726 198.538 238.599 198.659C237.294 199.351 234.505 200.408 233.054 200.944C231.744 201.536 230.401 202.05 229.031 202.488C224.717 204.347 216.711 207.128 212.307 208.558C188.245 216.372 143.359 229.18 118.416 223.658C116.94 223.167 115.873 222.732 114.521 221.961C108.762 217.991 111.291 212.852 117.807 212.669C118.72 212.487 121.469 212.502 122.601 212.462C124.804 212.385 126.674 212.233 128.878 212.011C131.835 211.583 137.576 210.788 140.322 209.902C139.002 209.665 133.338 210.44 131.464 210.538C123.11 210.979 102.949 211.292 96.0734 206.642C95.0104 205.923 94.1381 204.933 93.9168 203.628C93.7486 202.636 93.9314 201.479 94.529 200.653C96.6593 197.711 108.593 197.885 112.408 197.383C111.352 197.06 100.324 196.879 98.5632 196.829C96.9356 196.798 94.454 196.648 92.8867 196.465C80.6081 193.12 82.3043 182.917 94.8936 183.681C101.806 184.099 109.201 183.88 116.095 183.19C108.46 182.447 98.3402 181.757 92.1159 176.79C91.0507 175.94 89.4976 173.841 89.5946 172.375C90.0147 166.026 97.8493 166.278 102.527 166.4C109.043 166.701 115.315 166.987 121.848 166.775C122.834 166.665 124.207 166.637 125.225 166.585C125.805 166.52 126.593 166.488 127.19 166.446C133.614 165.755 141.017 164.723 147.27 163C142.18 162.039 138.472 161.089 133.574 159.498C132.957 159.386 131.521 158.883 130.864 158.672C126.485 157.04 120.81 154.189 121.293 148.793C122.073 140.088 133.749 143.372 138.771 144.572C141.675 145.26 144.584 145.921 147.5 146.557C157.98 148.823 166.216 150.056 176.891 150.5C181.95 150.471 186.249 150.551 191.27 149.8C194.405 149.163 199.071 147.52 199.988 144.058C200.269 143.033 200.117 141.939 199.571 141.029C197.447 137.414 190.417 138.473 186.84 138.044C183.708 137.667 180.53 137.367 177.446 136.655C176.393 136.541 172.468 135.83 171.705 135.275C173.89 135.67 176.853 135.908 179.111 136.16C181.071 135.953 183.4 136.374 185.397 136.436C192.483 136.658 211.374 136.835 216.469 131.934C217.183 131.246 217.709 130.344 217.703 129.327C217.697 128.024 218.085 128.093 216.154 126.217C214.222 124.342 205.302 125.213 205.762 124.14C206.706 123.648 218.325 122.676 219.363 122.409C222.981 121.473 228.688 118.262 227.128 113.833C224.393 107.811 213.238 110.135 207.97 109.751C205.81 109.593 198.02 109.648 196.708 108.98C204.109 108.32 214.173 107.561 220.151 102.676C222.73 100.569 223.428 96.7992 220.69 94.5864C216.547 91.2367 207.344 92.3706 202.232 92.5427C200.066 92.6989 194.559 92.7727 192.616 92.5123C189.858 92.6292 186.652 92.1172 183.887 91.8811C177.398 91.3272 171.164 89.6854 164.796 88.4905C171.358 87.0391 184.124 84.8603 188.993 79.9399C190.386 78.4537 191.322 76.1047 191.087 74.0595C190.398 68.0247 183.522 68.2796 179.113 68.6032C163.236 70.735 143.898 76.8262 125.796 74.9235C124.316 74.7329 122.692 74.4113 121.208 74.1471C111.159 72.4691 98.3334 67.2875 89.2795 62.413C88.4439 62.024 87.4602 61.4809 86.6267 61.0506C77.6007 56.0361 68.7714 50.6753 60.1582 44.9801C45.9431 35.7596 31.8888 25.8677 18.871 14.9977C12.7119 9.85475 0 -0.847065 0 0.0533881Z" fill="#3C5780" fill-opacity="0.16"/>
</svg>
