<svg width="275" height="250" viewBox="0 0 275 250" fill="none" xmlns="http://www.w3.org/2000/svg">
<g opacity="0.8">
<path d="M214.5 196.5C253.988 157.012 253.988 92.9884 214.5 53.5C175.012 14.0116 110.988 14.0116 71.5 53.5C32.0116 92.9884 32.0116 157.012 71.5 196.5C110.988 235.988 175.012 235.988 214.5 196.5Z" fill="#FFDD83"/>
<path d="M207.618 189.62C243.307 153.931 243.307 96.0686 207.618 60.38C171.929 24.6913 114.067 24.6913 78.3779 60.38C42.6892 96.0686 42.6892 153.931 78.3778 189.62C114.067 225.309 171.929 225.309 207.618 189.62Z" fill="#F1F3F6" fill-opacity="0.8"/>
<path d="M107.512 61.4717C126.851 123.522 145.229 124.994 145.229 124.994C151.059 102.117 107.512 61.4717 107.512 61.4717Z" fill="#FFDD83"/>
<path d="M104.184 157.516C104.184 157.516 129.04 123.022 145.763 125.091C145.763 125.091 146.377 138.236 104.184 157.516Z" fill="#FFDD83"/>
<path d="M149.294 121.899C147.586 119.652 144.378 119.216 142.131 120.924C139.884 122.635 139.448 125.841 141.156 128.088C142.867 130.335 146.073 130.771 148.32 129.062C150.567 127.354 151.003 124.146 149.294 121.899Z" fill="#FFDD83"/>
<path d="M51.7003 120.846L51.6406 122.505L71.7603 123.229L71.82 121.569L51.7003 120.846Z" fill="#FFDD83"/>
<path d="M214.224 126.703L214.164 128.363L234.284 129.086L234.343 127.427L214.224 126.703Z" fill="#FFDD83"/>
<path d="M145.45 33.6127L144.727 53.7324L146.386 53.7921L147.11 33.6724L145.45 33.6127Z" fill="#FFDD83"/>
<path d="M139.595 196.134L138.871 216.254L140.531 216.314L141.255 196.194L139.595 196.134Z" fill="#FFDD83"/>
<path d="M81.3565 57.4955L80.1406 58.627L86.9987 65.9968L88.2146 64.8654L81.3565 57.4955Z" fill="#FFDD83"/>
<path d="M199.001 183.923L197.785 185.054L204.643 192.424L205.859 191.293L199.001 183.923Z" fill="#FFDD83"/>
<path d="M229.25 94.7908L219.719 98.0317L220.253 99.6042L229.785 96.3632L229.25 94.7908Z" fill="#FFDD83"/>
<path d="M65.7304 150.389L56.1992 153.63L56.7339 155.202L66.2651 151.961L65.7304 150.389Z" fill="#FFDD83"/>
<path d="M216.328 160.178L215.594 161.668L224.625 166.116L225.359 164.626L216.328 160.178Z" fill="#FFDD83"/>
<path d="M61.3861 83.8723L60.6523 85.3623L69.6837 89.8102L70.4175 88.3202L61.3861 83.8723Z" fill="#FFDD83"/>
<path d="M169.967 201.716L168.395 202.25L171.636 211.782L173.208 211.247L169.967 201.716Z" fill="#FFDD83"/>
<path d="M114.365 38.2026L112.793 38.7373L116.034 48.2685L117.606 47.7338L114.365 38.2026Z" fill="#FFDD83"/>
<path d="M106.331 197.578L101.883 206.609L103.373 207.343L107.821 198.312L106.331 197.578Z" fill="#FFDD83"/>
<path d="M182.639 42.6381L178.191 51.6694L179.681 52.4032L184.129 43.3719L182.639 42.6381Z" fill="#FFDD83"/>
<path d="M81.9954 178.764L74.5117 185.498L75.6226 186.733L83.1063 179.999L81.9954 178.764Z" fill="#FFDD83"/>
<path d="M210.382 63.2307L202.898 69.9644L204.009 71.199L211.493 64.4654L210.382 63.2307Z" fill="#FFDD83"/>
</g>
</svg>
