<svg width="215" height="218" viewBox="0 0 215 218" fill="none" xmlns="http://www.w3.org/2000/svg">
<path d="M196.274 163.852C188.256 154.192 182.151 141.303 178.127 125.546C175.083 113.624 173.141 99.8464 172.191 83.4265C171.899 78.3628 171.928 73.0478 171.956 67.9086C172.027 54.834 172.101 41.3146 167.099 29.2544C162.867 19.0503 155.967 11.9748 145.384 6.98563C145.375 6.98118 145.365 6.97896 145.355 6.97896L26.1549 6.45068C26.1171 6.45068 26.0859 6.48182 26.0859 6.51964C26.0859 6.55856 26.1171 6.5897 26.1549 6.5897L40.2537 6.6531C44.6968 11.4988 48.5526 16.8616 51.7145 22.5948C56.2188 30.7614 59.7621 40.2781 62.5469 51.6877C65.1049 62.1654 66.7731 73.0801 68.2456 82.7103L68.4803 84.2462C69.9851 94.101 71.541 104.292 73.8042 114.175C74.9575 119.211 76.4678 123.887 78.2929 128.073C78.3007 128.091 78.3151 128.104 78.3329 128.111C78.3518 128.119 78.3707 128.116 78.3874 128.107C79.0525 127.772 79.702 127.192 80.3315 126.631C81.3335 125.736 82.37 124.812 83.5089 124.812C84.6478 124.812 85.6832 125.737 86.6841 126.633C87.4938 127.356 88.3301 128.104 89.2098 128.34C90.1363 128.587 91.2651 128.354 92.3572 128.129C93.644 127.864 94.9753 127.589 95.9128 128.132C96.8693 128.685 97.2985 129.988 97.7134 131.247C98.0593 132.296 98.4163 133.38 99.0791 134.043C99.742 134.706 100.826 135.063 101.875 135.409C103.134 135.824 104.438 136.253 104.99 137.208C105.532 138.145 105.258 139.476 104.992 140.763C104.768 141.855 104.534 142.985 104.782 143.91C105.017 144.79 105.765 145.626 106.488 146.436C107.384 147.437 108.309 148.472 108.309 149.611C108.309 150.75 107.384 151.785 106.488 152.786C105.764 153.595 105.017 154.432 104.781 155.312C104.709 155.58 104.675 155.886 104.678 156.246C104.678 156.272 104.692 156.295 104.714 156.307L104.79 156.348C105.095 156.511 105.4 156.673 105.706 156.83C113.23 160.669 121.835 163.426 132.012 165.26C141.204 166.916 150.81 167.753 160.637 167.751C162.373 167.751 164.117 167.726 165.865 167.674C175.809 167.376 186.027 166.128 196.234 163.962C196.257 163.958 196.277 163.94 196.285 163.918C196.293 163.896 196.288 163.87 196.273 163.851L196.274 163.852ZM153.697 122.142C151.215 122.142 148.946 121.134 146.75 120.159C146.186 119.909 145.602 119.649 145.023 119.411C141.911 118.13 138.621 117.402 135.248 117.248C131.912 117.095 128.629 117.538 125.484 118.56C124.073 119.019 122.675 119.587 121.321 120.137C119.727 120.785 118.08 121.455 116.407 121.947C114.11 122.623 110.746 123.097 107.752 121.52C106.181 120.693 104.903 119.417 103.668 118.183C103.326 117.842 102.973 117.489 102.62 117.152C100.661 115.281 98.8967 114.47 96.7681 114.47C96.6913 114.47 96.6135 114.47 96.5356 114.474C93.6751 114.551 90.6757 115.8 88.3068 117.9C87.8096 118.34 87.1979 118.174 86.8498 117.78C86.5507 117.443 86.4539 116.921 86.9121 116.517C89.628 114.109 92.9467 112.69 96.2576 112.521C99.0057 112.378 101.368 113.318 103.703 115.476C104.148 115.886 104.587 116.327 105.009 116.753C106.161 117.913 107.352 119.113 108.844 119.877C111.74 121.361 115.074 120.435 117.954 119.335C118.712 119.044 119.478 118.739 120.22 118.443C122.507 117.53 124.87 116.584 127.305 115.996C130.496 115.225 133.911 115.046 137.451 115.464C140.702 115.849 143.848 116.735 147.068 118.173C149.824 119.403 152.675 120.674 155.837 119.911C157.414 119.53 158.897 118.825 160.33 118.144C161.043 117.804 161.781 117.453 162.52 117.148C165.122 116.072 167.461 115.853 169.67 116.478C170.301 116.657 170.449 117.233 170.317 117.692C170.189 118.143 169.77 118.548 169.148 118.373C166.408 117.598 163.889 118.616 161.543 119.726L161.368 119.81C159.017 120.923 156.587 122.074 153.919 122.139C153.844 122.14 153.769 122.141 153.695 122.141L153.697 122.142ZM64.7946 36.6413C67.5305 34.2057 70.7291 32.6131 74.0433 32.0337C77.4098 31.4464 80.7029 31.9058 84.1117 33.4372C85.4452 34.0355 86.7442 34.7596 87.9998 35.4591C89.3555 36.2143 90.7579 36.995 92.2093 37.6223C95.2388 38.9346 98.2583 39.1404 101.442 38.2495C103.149 37.7735 104.813 37.0995 106.424 36.4478C107.967 35.8228 109.565 35.1777 111.192 34.7073C114.427 33.7731 117.798 33.3749 121.207 33.5328C124.771 33.6952 128.189 34.4248 131.363 35.7038C131.99 35.9562 132.62 36.2343 133.229 36.5045C135.611 37.5577 138.075 38.6488 140.842 38.3718C143.081 38.1505 145.246 37.3331 147.341 36.5412C150.595 35.3123 153.961 34.0422 157.579 35.0632C158.209 35.2411 158.356 35.8172 158.227 36.2754C158.099 36.727 157.679 37.1329 157.057 36.9572C153.981 36.0897 150.967 37.2163 148.051 38.3062L147.619 38.4675C144.742 39.5452 141.766 40.6607 138.683 40.3381C136.492 40.109 134.46 39.2082 132.496 38.3363C131.4 37.8502 130.265 37.3464 129.114 36.965C125.885 35.8917 122.496 35.3924 119.048 35.4747C115.787 35.5548 112.486 36.2132 109.24 37.4299C108.448 37.7268 107.647 38.0527 106.872 38.3674C104.6 39.2905 102.251 40.2458 99.7864 40.6184C96.956 41.0477 94.1078 40.6028 91.0782 39.2582C89.6958 38.6443 88.3512 37.8981 87.0511 37.1752C85.7766 36.4667 84.4587 35.7349 83.1041 35.1266C81.0277 34.1957 78.9446 33.7286 76.8827 33.7286C76.0185 33.7286 75.1588 33.8109 74.3047 33.9755C71.3263 34.5494 68.5192 35.9496 66.187 38.0249C65.9079 38.274 65.5664 38.3485 65.2239 38.2351C64.8591 38.1138 64.5666 37.798 64.4943 37.4488C64.451 37.2397 64.4676 36.9305 64.7924 36.6424L64.7946 36.6413ZM71.3497 55.4134C74.0867 52.9778 77.2841 51.3852 80.5984 50.8058C83.9649 50.2186 87.258 50.6779 90.6667 52.2093C92.0002 52.8077 93.2992 53.5317 94.5549 54.2312C95.9117 54.9864 97.3141 55.7671 98.7655 56.3944C101.795 57.7067 104.816 57.9114 107.999 57.0216C109.705 56.5456 111.371 55.8717 112.981 55.2199C114.525 54.5949 116.122 53.9499 117.749 53.4794C120.984 52.5452 124.353 52.1482 127.764 52.305C131.328 52.4673 134.746 53.1969 137.92 54.4759C138.547 54.7284 139.177 55.0064 139.786 55.2767C142.169 56.3299 144.633 57.4198 147.399 57.144C149.638 56.9226 151.804 56.1052 153.899 55.3134C157.153 54.0844 160.518 52.8143 164.136 53.8353C164.767 54.0132 164.914 54.5882 164.784 55.0476C164.656 55.498 164.238 55.905 163.614 55.7293C160.539 54.8618 157.524 55.9884 154.609 57.0784L154.175 57.2407C151.299 58.3195 148.323 59.4317 145.241 59.1103C143.051 58.8812 141.02 57.9803 139.055 57.1084C137.958 56.6224 136.824 56.1186 135.672 55.7371C132.444 54.6639 129.054 54.1645 125.606 54.2468C122.344 54.3269 119.045 54.9853 115.798 56.202C115.006 56.4989 114.206 56.8248 113.432 57.1384C111.159 58.0626 108.809 59.0168 106.345 59.3905C103.513 59.8198 100.665 59.3738 97.6366 58.0304C96.2542 57.4165 94.9108 56.6702 93.6106 55.9473C92.3361 55.2388 91.0171 54.507 89.6625 53.8987C87.5861 52.9678 85.503 52.5007 83.4411 52.5007C82.5769 52.5007 81.7161 52.583 80.8631 52.7476C77.8847 53.3215 75.0776 54.7217 72.7454 56.797C72.4663 57.0461 72.1248 57.1206 71.7823 57.0072C71.4175 56.8859 71.1239 56.5701 71.0527 56.2209C71.0093 56.0118 71.026 55.7026 71.3508 55.4146L71.3497 55.4134ZM77.312 75.1443C79.8777 72.861 82.677 71.6999 85.6331 71.6921H85.6787C88.9574 71.6921 92.2182 72.4984 94.6305 73.9087C95.4368 74.3791 96.1964 74.9607 96.9315 75.5224C97.9636 76.312 99.0313 77.1283 100.251 77.66C102.645 78.7043 105.557 78.6353 109.153 77.4475C110.459 77.016 111.753 76.4955 113.006 75.9928C114.823 75.2633 116.702 74.5081 118.639 74.0154C121.936 73.1768 125.316 72.8821 128.685 73.1379C132.106 73.3982 135.406 74.19 138.491 75.4901C138.921 75.6714 139.348 75.8594 139.774 76.0462C142.383 77.1928 144.848 78.2761 147.754 77.8824C149.827 77.601 151.854 76.8392 153.816 76.1029C157.105 74.8673 160.505 73.5883 164.137 74.6138C164.767 74.7917 164.914 75.3667 164.785 75.8249C164.659 76.2764 164.237 76.6857 163.615 76.5078C160.544 75.6414 157.413 76.8092 154.65 77.8412L154.163 78.0236C151.417 79.0535 148.58 80.1234 145.622 79.921C143.33 79.7686 141.228 78.8344 139.195 77.9313C138.24 77.5076 137.254 77.0694 136.259 76.7157C133.137 75.608 129.866 75.0364 126.536 75.0175C126.479 75.0175 126.423 75.0175 126.366 75.0175C123.101 75.0175 119.884 75.5569 116.804 76.6201C115.676 77.0093 114.549 77.4676 113.459 77.9113C111.59 78.672 109.656 79.4572 107.656 79.921C104.521 80.6483 101.58 80.4359 99.1536 79.3093C98.0037 78.7755 96.9816 77.9992 95.9918 77.2485C95.2722 76.7024 94.5271 76.1374 93.7363 75.6659C91.5965 74.3924 88.7616 73.6806 85.7543 73.6606H85.6887C83.1641 73.6606 80.8809 74.6004 78.7099 76.5311C78.4308 76.7802 78.0894 76.8536 77.7468 76.7402C77.382 76.619 77.0895 76.3031 77.0172 75.9539C76.975 75.7448 76.9905 75.4356 77.3153 75.1476L77.312 75.1443ZM83.7158 96.7702C88.8239 92.2481 96.3065 91.7076 101.121 95.5112C101.846 96.0851 102.531 96.7401 103.193 97.373C104.264 98.3984 105.373 99.4594 106.692 100.211C109.169 101.621 112.338 101.591 116.111 100.122C117.071 99.7485 118.021 99.3359 118.941 98.9378C120.983 98.0525 123.093 97.1383 125.349 96.6267C128.576 95.8949 131.86 95.6725 135.107 95.9683C138.401 96.2675 141.588 97.0638 144.579 98.335C144.989 98.5096 145.398 98.6909 145.808 98.8722C148.275 99.9643 150.827 101.095 153.662 100.678C155.434 100.418 157.1 99.7085 158.712 99.0223C159.348 98.752 160.005 98.4718 160.658 98.2249C163.321 97.2162 165.715 97.0382 167.976 97.6799C168.607 97.859 168.754 98.4351 168.623 98.8955C168.496 99.3459 168.074 99.7496 167.455 99.575C164.662 98.781 162.055 99.7218 159.624 100.753C157.233 101.766 154.525 102.917 151.59 102.714C149.309 102.558 147.223 101.634 145.206 100.739C144.33 100.35 143.423 99.9487 142.509 99.6129C139.487 98.5018 136.326 97.899 133.113 97.8178C129.819 97.7333 126.577 98.1904 123.491 99.1691C122.083 99.6151 120.716 100.235 119.395 100.832C117.795 101.556 116.14 102.305 114.406 102.75C112.101 103.342 108.702 103.666 105.597 101.852C104.234 101.055 103.075 99.9543 101.955 98.8888C101.378 98.3405 100.782 97.7733 100.163 97.254C98.3607 95.7392 96.0374 94.9295 93.5383 94.9295C93.2069 94.9295 92.8722 94.944 92.5341 94.9718C89.8015 95.2042 87.1646 96.3353 85.1093 98.1548C84.6122 98.5963 83.9994 98.4273 83.6513 98.0347C83.3532 97.6977 83.2564 97.1761 83.7135 96.7713L83.7158 96.7702Z" fill="#EDE4F2"/>
<path d="M209.804 176.105C209.272 175.752 208.705 175.359 208.071 174.903C207.942 174.811 207.813 174.716 207.684 174.623C207.073 174.178 206.545 173.78 206.068 173.406L206.037 173.383C202.541 170.644 199.26 167.437 196.284 163.852C196.268 163.832 196.23 163.826 196.204 163.831C186.005 165.994 175.796 167.24 165.86 167.538C154.225 167.885 142.843 167.075 132.036 165.127C121.872 163.297 113.279 160.543 105.768 156.71C105.461 156.554 105.157 156.392 104.854 156.23L104.778 156.189C104.757 156.178 104.73 156.178 104.709 156.19C104.688 156.203 104.676 156.226 104.676 156.25C104.681 156.95 104.838 157.718 104.992 158.462C105.255 159.75 105.529 161.08 104.986 162.019C104.433 162.974 103.13 163.403 101.87 163.818C100.821 164.164 99.7367 164.521 99.0739 165.184C98.4111 165.847 98.0541 166.931 97.7082 167.98C97.2933 169.24 96.864 170.544 95.9076 171.095C95.4238 171.375 94.8021 171.462 93.948 171.373C93.9246 171.368 93.9013 171.38 93.8857 171.399C93.8712 171.418 93.8668 171.443 93.8757 171.465L95.4216 175.647C95.4316 175.674 95.4572 175.693 95.4861 175.693L209.763 176.23C209.793 176.23 209.82 176.21 209.829 176.181C209.838 176.152 209.827 176.12 209.801 176.103L209.804 176.105Z" fill="#DBC6E1"/>
<path d="M73.9395 114.146C71.6774 104.266 70.1215 94.0791 68.6167 84.2265L68.3821 82.6906C66.9096 73.0571 65.2402 62.139 62.6811 51.6558C59.893 40.234 56.3452 30.7061 51.8354 22.5284C48.6635 16.7763 44.7932 11.3968 40.3357 6.53779C40.3223 6.52333 40.3045 6.51554 40.2845 6.51554L26.1556 6.45215C26.1267 6.45215 26.1 6.47106 26.09 6.49775C26.08 6.52555 26.0889 6.55669 26.1112 6.57449C29.8591 9.64182 33.2267 14.7566 36.1206 21.7788C38.2203 26.8758 40.0265 32.8414 41.4879 39.5099C45.0601 55.8064 45.2314 72.7724 45.396 89.18C45.5027 99.8112 45.614 110.805 46.6494 121.505C48.7625 143.333 53.6304 160.994 61.5334 175.497C61.5456 175.519 61.569 175.534 61.5946 175.534L68.044 175.564C68.0729 175.564 68.0985 175.546 68.1085 175.518L70.1204 170.075C70.127 170.056 70.1259 170.035 70.1159 170.017C69.7812 169.424 69.5387 168.689 69.3029 167.979C68.9571 166.931 68.5989 165.847 67.9361 165.183C67.2732 164.52 66.1889 164.163 65.1401 163.817C63.88 163.402 62.5777 162.973 62.025 162.016C61.4833 161.08 61.7569 159.749 62.0227 158.462C62.2474 157.37 62.481 156.24 62.2329 155.315C61.9983 154.435 61.2498 153.597 60.5269 152.789C59.6316 151.788 58.7063 150.752 58.7063 149.614C58.7063 148.475 59.6316 147.439 60.5269 146.438C61.2498 145.629 61.9983 144.792 62.2329 143.913C62.481 142.987 62.2474 141.857 62.0227 140.765C61.7581 139.479 61.4833 138.147 62.0261 137.211C62.5788 136.255 63.8823 135.825 65.1423 135.41C66.1911 135.064 67.2744 134.707 67.9383 134.045C68.6012 133.382 68.9582 132.297 69.304 131.249C69.7189 129.988 70.1482 128.686 71.1046 128.133C72.0422 127.592 73.3723 127.865 74.6591 128.131C75.7512 128.357 76.8812 128.588 77.8065 128.342C77.9822 128.296 78.1657 128.221 78.387 128.11C78.4193 128.093 78.4338 128.054 78.4193 128.021C76.5976 123.843 75.0895 119.175 73.9384 114.148L73.9395 114.146Z" fill="#DBC6E1"/>
<path d="M81.8784 173.874C81.8761 173.853 81.865 173.834 81.8472 173.823L81.7249 173.743C81.7049 173.73 81.6793 173.727 81.657 173.739C81.6359 173.749 81.6203 173.77 81.6181 173.794C81.5925 174.053 81.567 174.312 81.5425 174.572C81.5114 174.899 81.4791 175.226 81.4457 175.552C81.4435 175.573 81.4502 175.591 81.4635 175.606C81.4769 175.62 81.4947 175.628 81.5147 175.628L81.9729 175.63C81.9929 175.63 82.0107 175.623 82.0241 175.608C82.0374 175.594 82.0441 175.574 82.0418 175.555C82.0096 175.244 81.9807 174.934 81.9507 174.624C81.9262 174.374 81.9028 174.124 81.8784 173.874Z" fill="#DBC6E1"/>
<path d="M94.0107 171.42C94.0018 171.395 93.9795 171.377 93.9528 171.375C93.4401 171.321 92.8907 171.207 92.3591 171.098C91.267 170.873 90.137 170.641 89.2106 170.888C88.3309 171.124 87.4934 171.871 86.6849 172.595C85.6839 173.49 84.6485 174.416 83.5097 174.416C82.9892 174.416 82.4609 174.227 81.8481 173.823C81.8259 173.808 81.7969 173.808 81.7747 173.822C81.7591 173.832 81.7569 173.851 81.7525 173.867C81.7547 173.847 81.7558 173.828 81.758 173.808C81.7602 173.783 81.7491 173.758 81.728 173.745C81.2553 173.417 80.7882 173 80.3356 172.595C79.5259 171.872 78.6885 171.124 77.8076 170.888C76.8823 170.64 75.7524 170.873 74.6602 171.099C73.3734 171.364 72.0422 171.639 71.1058 171.096C70.7276 170.878 70.4051 170.524 70.1193 170.018C70.1059 169.995 70.0781 169.98 70.0537 169.983C70.027 169.985 70.0036 170.003 69.9936 170.028L62.5199 190.246C62.5099 190.274 62.5177 190.305 62.541 190.324C62.5644 190.343 62.5966 190.345 62.6211 190.33C65.6217 188.509 68.6212 186.688 71.6218 184.867C71.8976 184.699 72.1879 184.541 72.4715 184.609C72.7162 184.666 72.8963 184.88 73.0743 185.114L79.4603 193.446C79.4736 193.464 79.4937 193.473 79.5148 193.473C79.5204 193.473 79.527 193.473 79.5326 193.47C79.5604 193.463 79.5793 193.439 79.5837 193.411C80.2933 187.647 80.9673 181.643 81.5845 175.567C81.6179 175.24 81.649 174.912 81.6802 174.586C81.7013 174.368 81.7224 174.15 81.7436 173.933C81.7669 174.168 81.7892 174.402 81.8125 174.638C81.8425 174.948 81.8726 175.26 81.9037 175.57C82.521 181.653 83.1949 187.656 83.9034 193.412C83.9067 193.44 83.9267 193.464 83.9545 193.471C83.9601 193.473 83.9668 193.474 83.9723 193.474C83.9934 193.474 84.0146 193.464 84.0268 193.447L90.4128 185.115C90.5908 184.881 90.7709 184.668 91.0156 184.61C91.2981 184.542 91.5895 184.7 91.8653 184.868C94.8648 186.689 97.8654 188.51 100.866 190.331C100.892 190.346 100.924 190.344 100.946 190.325C100.968 190.306 100.977 190.275 100.967 190.247L94.0084 171.421L94.0107 171.42Z" fill="#99D3DB"/>
<path d="M106.593 152.883C107.505 151.862 108.45 150.807 108.45 149.616C108.45 148.425 107.506 147.368 106.593 146.347C105.848 145.513 105.144 144.726 104.917 143.878C104.678 142.984 104.907 141.871 105.13 140.795C105.4 139.483 105.68 138.126 105.111 137.143C104.531 136.142 103.203 135.704 101.919 135.28C100.886 134.94 99.8169 134.587 99.1774 133.947C98.5379 133.307 98.1854 132.238 97.8451 131.206C97.4213 129.922 96.9843 128.594 95.9822 128.013C95.0002 127.444 93.6422 127.724 92.3299 127.994C91.2533 128.216 90.1423 128.446 89.247 128.206C88.3995 127.979 87.611 127.275 86.778 126.53C85.757 125.618 84.7016 124.673 83.5105 124.673C82.3193 124.673 81.2617 125.615 80.2407 126.527C79.619 127.082 78.9751 127.656 78.3267 127.984C78.1154 128.091 77.9385 128.162 77.7728 128.206C76.8798 128.445 75.7665 128.216 74.6899 127.993C73.3776 127.723 72.0208 127.444 71.0387 128.012C70.0367 128.591 69.5996 129.919 69.1759 131.205C68.8355 132.238 68.483 133.307 67.8435 133.947C67.204 134.586 66.1352 134.939 65.102 135.279C63.8175 135.703 62.4884 136.14 61.909 137.142C61.3407 138.124 61.6198 139.481 61.8901 140.793C62.1114 141.87 62.3416 142.983 62.1025 143.877C61.8756 144.724 61.1717 145.512 60.4265 146.346C59.5145 147.367 58.5703 148.422 58.5703 149.615C58.5703 150.807 59.5134 151.861 60.4265 152.882C61.1717 153.715 61.8756 154.504 62.1025 155.351C62.3416 156.245 62.1125 157.359 61.8901 158.434C61.6198 159.746 61.3396 161.103 61.909 162.086C62.4884 163.088 63.8164 163.525 65.1009 163.949C66.1341 164.29 67.2029 164.641 67.8424 165.282C68.4819 165.922 68.8355 166.99 69.1759 168.023C69.4127 168.74 69.6574 169.482 69.9989 170.086C70.2969 170.614 70.6372 170.984 71.0376 171.215C72.0208 171.784 73.3776 171.504 74.6899 171.234C75.7665 171.013 76.8787 170.783 77.7728 171.021C78.6214 171.248 79.4099 171.952 80.2441 172.697C80.6989 173.105 81.1705 173.525 81.6509 173.859L81.7722 173.939C82.4083 174.359 82.9611 174.554 83.5093 174.554C84.7016 174.554 85.757 173.609 86.7769 172.697C87.611 171.952 88.3984 171.248 89.2459 171.021C90.1412 170.782 91.2544 171.011 92.331 171.233C92.8659 171.343 93.4187 171.456 93.9381 171.511C94.8211 171.605 95.4706 171.511 95.9811 171.215C96.9832 170.636 97.4213 169.308 97.844 168.022C98.1843 166.989 98.5368 165.92 99.1763 165.28C99.8158 164.641 100.885 164.288 101.918 163.948C103.202 163.524 104.531 163.087 105.111 162.085C105.68 161.102 105.401 159.744 105.132 158.432C104.981 157.694 104.824 156.933 104.819 156.248C104.817 155.899 104.849 155.607 104.917 155.35C105.144 154.503 105.848 153.714 106.593 152.881V152.883ZM83.5093 165.253C74.8857 165.253 67.8713 158.237 67.8713 149.615C67.8713 140.992 74.8868 133.975 83.5093 133.975C92.1319 133.975 99.1485 140.991 99.1485 149.615C99.1485 158.238 92.133 165.253 83.5093 165.253Z" fill="#DE71A9"/>
<path d="M83.5115 133.837C74.8121 133.837 67.7344 140.915 67.7344 149.614C67.7344 158.314 74.8121 165.392 83.5115 165.392C92.2108 165.392 99.2885 158.314 99.2885 149.614C99.2885 140.915 92.2108 133.837 83.5115 133.837Z" fill="#F4AECD"/>
<path d="M83.049 35.2537C84.3992 35.8587 85.7137 36.5894 86.9861 37.2967C88.2895 38.0208 89.6363 38.7692 91.0243 39.3854C93.3309 40.4086 95.5341 40.9146 97.7061 40.9146C98.4101 40.9146 99.1097 40.8612 99.8092 40.7556C102.29 40.3796 104.648 39.4221 106.927 38.4945C107.7 38.1798 108.501 37.8551 109.292 37.5592C112.523 36.347 115.808 35.6919 119.054 35.6118C122.488 35.5284 125.859 36.0278 129.072 37.0943C130.218 37.4747 131.349 37.9763 132.442 38.4612C134.417 39.3376 136.459 40.2429 138.671 40.4742C141.789 40.8 144.779 39.679 147.671 38.5957L148.101 38.4345C150.995 37.3535 153.988 36.2346 157.021 37.0899C157.734 37.2912 158.216 36.8285 158.362 36.3125C158.515 35.772 158.308 35.1236 157.618 34.929C153.955 33.8947 150.568 35.1736 147.294 36.4115C145.208 37.1989 143.051 38.0141 140.83 38.2343C138.096 38.5023 135.761 37.4714 133.287 36.377C132.677 36.1078 132.046 35.8287 131.417 35.5751C128.227 34.2906 124.795 33.5577 121.215 33.3942C117.791 33.2418 114.405 33.6355 111.154 34.5742C109.521 35.0457 107.92 35.6941 106.373 36.3192C104.766 36.9698 103.105 37.6415 101.406 38.1164C98.2544 38.9972 95.265 38.7937 92.2666 37.4958C90.8219 36.8697 89.4217 36.0912 88.0693 35.3371C86.8103 34.6365 85.5091 33.9113 84.1701 33.3097C80.7357 31.766 77.4159 31.3033 74.0216 31.8961C70.6818 32.4789 67.4599 34.0837 64.7051 36.536C64.4137 36.7952 64.2925 37.1299 64.3636 37.4747C64.4459 37.8717 64.7763 38.2287 65.1855 38.3644C65.5759 38.4934 65.9663 38.4089 66.2843 38.1275C68.5976 36.0689 71.3814 34.6787 74.3353 34.1104C77.1991 33.5577 80.1318 33.9436 83.0512 35.2526L83.049 35.2537Z" fill="white"/>
<path d="M89.6059 54.0268C90.9561 54.6318 92.2718 55.3625 93.5441 56.0698C94.8464 56.7938 96.1932 57.5423 97.5812 58.1585C99.8878 59.1817 102.092 59.6877 104.263 59.6877C104.967 59.6877 105.667 59.6343 106.366 59.5286C108.847 59.1527 111.205 58.1941 113.485 57.2676C114.258 56.9529 115.058 56.6292 115.848 56.3323C119.08 55.12 122.365 54.465 125.611 54.3849C129.049 54.3004 132.416 54.7997 135.629 55.8674C136.775 56.2478 137.906 56.7494 138.999 57.2343C140.973 58.1106 143.015 59.0159 145.227 59.2473C148.345 59.5765 151.333 58.4532 154.225 57.3699L154.658 57.2076C157.552 56.1265 160.544 55.0077 163.578 55.863C164.292 56.0643 164.773 55.6016 164.919 55.0845C165.071 54.5451 164.865 53.8956 164.175 53.7009C160.512 52.6666 157.126 53.9456 153.851 55.1834C151.764 55.9709 149.607 56.7861 147.387 57.0063C144.656 57.2743 142.318 56.2433 139.844 55.149C139.234 54.8798 138.603 54.6007 137.974 54.3471C134.784 53.0626 131.352 52.3296 127.772 52.1662C124.348 52.0127 120.962 52.4075 117.712 53.3462C116.079 53.8177 114.478 54.4661 112.931 55.0911C111.324 55.7417 109.661 56.4135 107.963 56.8884C104.811 57.7692 101.821 57.5657 98.8235 56.2678C97.3788 55.6417 95.9786 54.8631 94.6251 54.1091C93.3661 53.4084 92.0649 52.6833 90.7259 52.0816C87.2915 50.538 83.9717 50.0742 80.5774 50.6681C77.2376 51.2508 74.0157 52.8557 71.2598 55.308C70.9684 55.5671 70.8472 55.9019 70.9183 56.2467C71.0006 56.6437 71.3309 57.0007 71.7402 57.1364C72.1306 57.2654 72.521 57.1809 72.839 56.8995C75.1523 54.8409 77.9361 53.4507 80.8899 52.8824C83.7549 52.3296 86.6865 52.7156 89.6059 54.0246V54.0268Z" fill="white"/>
<path d="M85.7487 73.7957C88.7315 73.8157 91.542 74.5197 93.6606 75.7809C94.4447 76.248 95.1865 76.8108 95.9027 77.3546C96.8981 78.1098 97.9269 78.8905 99.0902 79.431C100.592 80.1283 102.285 80.4798 104.098 80.4798C105.252 80.4798 106.452 80.3374 107.683 80.0527C109.694 79.5867 111.632 78.7982 113.507 78.0363C114.595 77.5937 115.719 77.1366 116.845 76.7485C119.911 75.6908 123.112 75.1536 126.361 75.1536C126.418 75.1536 126.475 75.1536 126.532 75.1536C129.846 75.1725 133.102 75.742 136.208 76.8452C137.199 77.1967 138.184 77.6337 139.136 78.0564C141.18 78.965 143.293 79.9037 145.61 80.0583C148.597 80.2573 151.449 79.1874 154.209 78.1531L154.696 77.9707C157.438 76.9464 160.545 75.7876 163.575 76.6406C164.289 76.8419 164.771 76.3781 164.917 75.8621C165.069 75.3216 164.862 74.6743 164.173 74.4797C160.497 73.442 157.075 74.7288 153.766 75.9722C151.812 76.7062 149.792 77.4658 147.735 77.745C144.866 78.132 142.42 77.0588 139.83 75.9199C139.404 75.732 138.976 75.544 138.544 75.3627C135.444 74.057 132.131 73.2618 128.695 72.9994C125.313 72.7436 121.916 73.0383 118.604 73.8813C116.659 74.3762 114.775 75.1325 112.953 75.8643C111.703 76.367 110.41 76.8853 109.11 77.3157C105.547 78.4934 102.668 78.5646 100.307 77.5337C99.1035 77.0087 98.0425 76.1979 97.016 75.4139C96.2775 74.8489 95.5146 74.2661 94.7005 73.7901C92.2671 72.3688 88.9818 71.5547 85.6798 71.5547H85.6331C82.6425 71.5625 79.812 72.7358 77.2207 75.0413C76.9293 75.3004 76.8081 75.6341 76.8793 75.98C76.9605 76.3759 77.2919 76.734 77.7012 76.8697C78.0926 76.9998 78.483 76.9142 78.8 76.6328C80.9442 74.7255 83.1974 73.7968 85.6864 73.7968H85.751L85.7487 73.7957Z" fill="white"/>
<path d="M100.077 97.3576C100.692 97.8747 101.287 98.4397 101.862 98.9869C102.989 100.057 104.153 101.163 105.53 101.969C107.3 103.004 109.164 103.351 110.872 103.351C112.195 103.351 113.424 103.142 114.442 102.881C116.187 102.432 117.847 101.682 119.453 100.954C120.771 100.358 122.133 99.742 123.534 99.2972C126.605 98.3229 129.827 97.8692 133.11 97.9526C136.308 98.0326 139.454 98.6332 142.461 99.7387C143.371 100.073 144.275 100.474 145.151 100.862C147.178 101.762 149.276 102.691 151.581 102.848C154.545 103.052 157.274 101.895 159.679 100.876C162.086 99.8555 164.667 98.9235 167.417 99.7042C168.129 99.9089 168.612 99.444 168.757 98.929C168.911 98.3885 168.705 97.739 168.014 97.5422C165.723 96.8916 163.301 97.0729 160.61 98.0905C159.954 98.3385 159.296 98.6188 158.659 98.8912C157.055 99.5741 155.397 100.28 153.642 100.537C150.848 100.948 148.315 99.8266 145.863 98.7411C145.453 98.5587 145.044 98.3785 144.632 98.2028C141.627 96.926 138.428 96.1264 135.119 95.8261C131.857 95.5281 128.558 95.7516 125.317 96.4868C123.049 97.0017 120.932 97.9192 118.885 98.8067C117.966 99.2049 117.016 99.6164 116.059 99.99C112.327 101.445 109.198 101.476 106.76 100.088C105.455 99.345 104.353 98.2896 103.288 97.2697C102.624 96.6347 101.937 95.9774 101.206 95.4002C96.339 91.5543 88.7808 92.0982 83.6226 96.6636C83.0932 97.1318 83.2044 97.7335 83.5481 98.1227C83.9318 98.5565 84.6413 98.7511 85.2019 98.2551C87.2049 96.4812 89.8829 95.3334 92.5466 95.1066C95.3859 94.8652 98.0606 95.6626 100.075 97.3553L100.077 97.3576Z" fill="white"/>
<path d="M169.712 116.346C167.472 115.712 165.103 115.932 162.471 117.022C161.729 117.329 160.989 117.68 160.274 118.021C158.847 118.699 157.371 119.401 155.809 119.779C152.691 120.528 149.863 119.268 147.127 118.048C143.894 116.606 140.735 115.716 137.47 115.329C133.914 114.906 130.484 115.088 127.275 115.864C124.831 116.455 122.462 117.401 120.172 118.316C119.431 118.613 118.664 118.919 117.908 119.207C115.057 120.297 111.759 121.216 108.91 119.757C107.438 119.003 106.254 117.81 105.11 116.659C104.685 116.231 104.247 115.79 103.8 115.377C101.434 113.193 99.0354 112.247 96.2528 112.385C92.9108 112.556 89.5609 113.988 86.8217 116.416C86.2923 116.884 86.4035 117.487 86.7483 117.876C87.132 118.31 87.8427 118.503 88.401 118.007C90.7465 115.929 93.7137 114.692 96.542 114.616C98.7318 114.559 100.525 115.346 102.526 117.256C102.878 117.592 103.232 117.944 103.572 118.285C104.815 119.526 106.1 120.81 107.689 121.647C109.047 122.363 110.606 122.723 112.306 122.723C113.611 122.723 115 122.51 116.446 122.085C118.127 121.591 119.778 120.92 121.374 120.27C122.724 119.721 124.121 119.154 125.527 118.697C128.656 117.679 131.923 117.238 135.241 117.391C138.598 117.543 141.871 118.269 144.97 119.543C145.546 119.78 146.129 120.039 146.691 120.289C148.901 121.27 151.183 122.283 153.695 122.283C153.77 122.283 153.846 122.283 153.922 122.281C156.62 122.214 159.063 121.058 161.428 119.939L161.603 119.856C163.925 118.757 166.418 117.748 169.111 118.51C169.825 118.711 170.306 118.25 170.452 117.734C170.605 117.193 170.398 116.544 169.709 116.348L169.712 116.346Z" fill="white"/>
</svg>
