<svg width="32" height="32" viewBox="0 0 32 32" fill="none" xmlns="http://www.w3.org/2000/svg">
<path d="M8.51787 1.1836C6.66602 1.1836 6.87178 1.18359 6.66602 1.1836V30.8132C7.69482 30.8132 7.49935 30.8132 8.51787 30.8132H27.0364C28.0549 30.8132 27.9966 30.8132 28.8882 30.8132V8.59101L21.4808 1.1836H8.51787Z" fill="#E2E5E7"/>
<path d="M23.3323 8.591H28.8879L21.4805 1.18359V8.591C22.2349 8.591 22.3138 8.591 23.3323 8.591Z" fill="#B0B7BD"/>
<path d="M25.1851 25.2594C25.1851 25.7687 25.1851 25.8767 25.1851 26.1853H3.88882C3.37956 26.1853 3.30583 26.1853 2.96289 26.1853V15.0742C3.30583 15.0742 3.37956 15.0742 3.88882 15.0742H25.1851C25.1851 15.4514 25.1851 15.4909 25.1851 16.0002V25.2594Z" fill="#1E447E"/>
<path d="M6.32617 22.9344V17.9961H8.48141C8.94539 17.9961 9.34201 18.0666 9.67128 18.2077C10.0055 18.3488 10.2625 18.5511 10.4421 18.8144C10.6217 19.0778 10.7115 19.3906 10.7115 19.7527C10.7115 20.1148 10.6217 20.4276 10.4421 20.691C10.2625 20.9544 10.0055 21.1566 9.67128 21.2977C9.34201 21.4388 8.94539 21.5093 8.48141 21.5093H6.86498L7.29902 21.079V22.9344H6.32617ZM7.29902 21.1778L6.86498 20.7333H8.43651C8.86556 20.7333 9.18735 20.6487 9.40188 20.4793C9.62139 20.3053 9.73115 20.0631 9.73115 19.7527C9.73115 19.4376 9.62139 19.1954 9.40188 19.0261C9.18735 18.8568 8.86556 18.7721 8.43651 18.7721H6.86498L7.29902 18.3206V21.1778Z" fill="white"/>
<path d="M11.683 22.9344V17.9961H13.9729C14.5417 17.9961 15.0406 18.0996 15.4696 18.3065C15.8987 18.5134 16.2329 18.8003 16.4724 19.1672C16.7119 19.534 16.8316 19.9667 16.8316 20.4652C16.8316 20.9591 16.7119 21.3917 16.4724 21.7633C16.2329 22.1301 15.8987 22.417 15.4696 22.624C15.0406 22.8309 14.5417 22.9344 13.9729 22.9344H11.683ZM12.6558 22.1584H13.928C14.3222 22.1584 14.6614 22.0878 14.9458 21.9467C15.2351 21.8056 15.4572 21.6081 15.6118 21.3541C15.7715 21.1002 15.8513 20.8039 15.8513 20.4652C15.8513 20.1219 15.7715 19.8256 15.6118 19.5763C15.4572 19.3224 15.2351 19.1248 14.9458 18.9837C14.6614 18.8427 14.3222 18.7721 13.928 18.7721H12.6558V22.1584Z" fill="white"/>
<path d="M18.7562 20.2677H21.3679V21.0437H18.7562V20.2677ZM18.8385 22.9344H17.8656V17.9961H21.6897V18.7651H18.8385V22.9344Z" fill="white"/>
<path d="M25.1845 26.1837H6.66602V27.1097H25.1845C25.1845 26.6981 25.1845 26.693 25.1845 26.1837V25.2578C25.1845 25.7671 25.1845 25.6745 25.1845 26.1837Z" fill="#CAD1D8"/>
</svg>
