<svg width="39" height="38" viewBox="0 0 39 38" fill="none" xmlns="http://www.w3.org/2000/svg">
<mask id="mask0_6001_443" style="mask-type:luminance" maskUnits="userSpaceOnUse" x="0" y="0" width="39" height="38">
<path d="M39 0H0V38H39V0Z" fill="white"/>
</mask>
<g mask="url(#mask0_6001_443)">
<path d="M35.2772 25.9435C33.387 30.5675 29.8205 33.9811 25.5825 35.7562L26.4928 37.9849C31.2929 35.9679 35.3319 32.1054 37.4757 26.8612L35.2772 25.9384V25.9435ZM28.6764 23.1701L26.4779 22.2473C25.5925 24.4106 23.9212 26.0091 21.9414 26.841L22.8517 29.0698C25.3985 28.0008 27.5423 25.9485 28.6764 23.1701Z" fill="#3C5780"/>
<path d="M2.19859 25.9434L0 26.8662C1.98967 31.7321 5.80485 35.8316 10.9681 37.9999L11.8783 35.7712C7.317 33.855 3.94949 30.2396 2.19361 25.9434H2.19859ZM33.0732 25.0206C31.4367 29.0293 28.3428 31.9893 24.6669 33.5322L25.5771 35.7611C29.8152 33.981 33.3816 30.5673 35.2718 25.9484L33.0732 25.0257V25.0206ZM10.9929 22.2472L8.79436 23.1701C9.84882 25.7518 11.8733 27.9251 14.6141 29.0748L15.5244 26.8459C13.3904 25.9484 11.8137 24.2592 10.9929 22.2472ZM24.269 21.3245C23.6373 22.8725 22.4435 24.0171 21.0208 24.6122L21.9311 26.8409C23.9108 26.0089 25.5822 24.4105 26.4676 22.2472L24.269 21.3245Z" fill="#F55E68"/>
<path d="M4.3978 25.0207L2.19922 25.9434C3.9551 30.2396 7.32262 33.855 11.8839 35.7712L12.7942 33.5424C8.8397 31.8835 5.9199 28.747 4.3978 25.0207ZM13.1971 21.3296L10.9985 22.2523C11.8193 24.2643 13.3961 25.9535 15.53 26.8511L16.4402 24.6223C14.9132 23.9819 13.784 22.7717 13.1971 21.3296Z" fill="#7C4B4B"/>
<path d="M6.59513 24.0978C5.30681 20.9463 5.20236 17.2956 6.59016 13.902L4.39157 12.9792C6.02807 8.97043 9.12201 6.01054 12.7979 4.46754L11.8876 2.23877C7.64965 4.01876 4.0782 7.42747 2.19299 12.0514C0.302805 16.6754 0.447056 21.6472 2.20293 25.9383L4.40152 25.0156C5.92362 28.7369 8.84346 31.8734 12.7979 33.5373L13.7082 31.3086C10.3605 29.9017 7.88841 27.2494 6.6001 24.0978H6.59513ZM15.3944 20.4017C15.0413 19.5344 15.0114 18.531 15.3944 17.5981L13.1959 16.6754C13.8276 15.1273 15.0214 13.9826 16.444 13.3876L15.5337 11.1589C13.549 11.9909 11.8827 13.5894 10.9973 15.7525C10.1119 17.9158 10.1815 20.2454 10.9973 22.2523L13.1959 21.3296C13.7828 22.7666 14.9119 23.9768 16.439 24.6223L17.3493 22.3935C16.4291 22.0052 15.7476 21.2741 15.3944 20.4118V20.4017Z" fill="#ABD14E"/>
<path d="M12.7989 4.46777C9.12799 6.01077 6.03406 8.97072 4.39258 12.9795L6.59116 13.9022C7.97895 10.5087 10.5954 8.00254 13.7043 6.69654L12.7939 4.46777H12.7989ZM16.445 13.3879C15.0274 13.9829 13.8286 15.1275 13.1968 16.6756L15.3954 17.5983C15.7784 16.6655 16.4947 15.9747 17.3503 15.6167L16.44 13.3879H16.445Z" fill="#476144"/>
<path d="M23.7615 6.69141L22.8511 8.92019C25.5919 10.0699 27.6164 12.2432 28.671 14.8249L30.8695 13.9021C29.5812 10.7506 27.1091 8.09324 23.7615 6.69141ZM20.1154 15.6115L19.2051 17.8403C19.5184 17.9714 19.7523 18.2236 19.8717 18.516L22.0702 17.5932C21.7171 16.7259 21.0356 15.9947 20.1154 15.6115Z" fill="#755766"/>
<path d="M37.4653 11.1338C35.4756 6.26779 31.6654 2.16826 26.4973 0L25.587 2.22876C30.1483 4.1449 33.5158 7.76035 35.2667 12.0565C37.0226 16.3527 37.1668 21.3195 35.2766 25.9435L37.4752 26.8662C39.6141 21.6271 39.455 15.9947 37.4653 11.1287V11.1338ZM28.6659 14.8299C27.6115 12.2481 25.587 10.0749 22.8462 8.92515L21.936 11.1539C24.0699 12.0515 25.6466 13.7457 26.4674 15.7526C27.2881 17.7596 27.3528 20.0891 26.4674 22.2524L28.6659 23.1751C27.5319 25.9536 25.388 28.0058 22.8412 29.0749L23.7515 31.3036C26.8603 29.9976 29.4817 27.4915 30.8646 24.0979C32.2524 20.7043 32.1479 17.0536 30.8596 13.9021L28.661 14.8249L28.6659 14.8299ZM19.8717 18.521C19.9911 18.8185 20.001 19.1614 19.8717 19.479C19.7423 19.7967 19.4936 20.0337 19.2051 20.1547L20.1154 22.3835C20.9709 22.0254 21.6922 21.3347 22.0702 20.4018C22.4533 19.4689 22.4234 18.4655 22.0702 17.5982L19.8717 18.521Z" fill="#40B4E5"/>
<path d="M24.6729 4.46269C20.7184 2.80373 16.4655 2.92979 12.7946 4.46774L13.7048 6.6965C10.596 8.00251 7.97462 10.5086 6.5918 13.9022L8.79036 14.83C9.92452 12.0516 12.0683 9.99929 14.6151 8.93028C17.1619 7.86132 20.1066 7.77559 22.8474 8.93028L23.7576 6.70155C27.1052 8.10843 29.5774 10.7607 30.8657 13.9122L33.0643 12.9895C31.5422 9.26816 28.6224 6.13175 24.6679 4.46774L24.6729 4.46269ZM21.0268 13.3828C19.4997 12.7424 17.8583 12.7878 16.4357 13.3828L17.3459 15.6116C16.4904 15.9696 15.7691 16.6604 15.3911 17.5932L17.5897 18.5161C17.719 18.1984 17.9677 17.9613 18.2563 17.8403C18.5497 17.7194 18.883 17.7093 19.2013 17.8403L20.1115 15.6116C21.0318 15.9998 21.7133 16.731 22.0664 17.5932L24.265 16.6705C23.6781 15.2334 22.5489 14.0232 21.0219 13.3777L21.0268 13.3828Z" fill="#FFC834"/>
</g>
</svg>
