<svg width="280" height="64" viewBox="0 0 280 64" fill="none" xmlns="http://www.w3.org/2000/svg">
<g clip-path="url(#clip0_6001_5285)">
<mask id="mask0_6001_5285" style="mask-type:luminance" maskUnits="userSpaceOnUse" x="0" y="0" width="280" height="64">
<path d="M280 0H0V64H280V0Z" fill="white"/>
</mask>
<g mask="url(#mask0_6001_5285)">
<path d="M166.926 20.1482C169.258 20.1482 171.078 21.9609 171.078 24.2916C171.078 26.6223 169.258 28.5528 166.926 28.5528C164.595 28.5528 162.799 26.6929 162.799 24.2916C162.799 21.8904 164.595 20.1482 166.926 20.1482ZM166.926 27.4933C168.559 27.4933 169.888 26.1044 169.888 24.3151C169.888 22.526 168.559 21.2312 166.926 21.2312C165.294 21.2312 163.989 22.573 163.989 24.3151C163.989 26.0573 165.294 27.4933 166.926 27.4933Z" fill="#1A1A1A"/>
<path d="M173.153 21.2782H172.406V20.2893H177.117C177.63 20.2893 177.84 20.5012 177.84 21.0192V22.055H176.79V21.537C176.79 21.3723 176.697 21.2782 176.534 21.2782H174.248V23.6323H175.742C177.093 23.6323 178.445 24.2915 178.445 25.9865C178.445 27.6816 177.233 28.4114 175.742 28.4114H173.852C173.34 28.4114 173.106 28.1996 173.106 27.6816V21.2782H173.153ZM174.552 27.4697H175.858C176.767 27.4697 177.327 26.9047 177.327 26.0336C177.327 25.1626 176.767 24.6212 175.858 24.6212H174.295V27.2343C174.295 27.3992 174.388 27.4933 174.552 27.4933V27.4697Z" fill="#1A1A1A"/>
<path d="M180.522 21.2782H179.775V20.2893H183.319C184.813 20.2893 185.861 21.3017 185.861 22.8319C185.861 24.3622 184.813 25.4216 183.319 25.4216H181.664V28.435H180.522V21.2782ZM183.156 24.4328C184.113 24.4328 184.696 23.8207 184.696 22.8319C184.696 21.8431 184.113 21.2782 183.156 21.2782H181.664V24.4328H183.156Z" fill="#1A1A1A"/>
<path d="M186.281 27.4461H186.444C186.654 27.4461 186.748 27.3992 186.818 27.1873L189.335 20.2893H190.525L193.044 27.1873C193.114 27.3992 193.207 27.4461 193.417 27.4461H193.579V28.435H192.95C192.39 28.435 192.204 28.2937 191.994 27.7758L191.387 26.1043H188.426L187.82 27.7758C187.633 28.3172 187.446 28.435 186.864 28.435H186.234V27.4461H186.281ZM191.155 25.139L190.268 22.6671C190.128 22.2433 189.942 21.5136 189.942 21.5136C189.942 21.5136 189.778 22.2198 189.638 22.6671L188.753 25.139H191.155Z" fill="#1A1A1A"/>
<path d="M195.212 26.6929C195.562 27.0696 196.284 27.564 197.077 27.564C197.987 27.564 198.732 27.0225 198.732 26.1044C198.732 25.2333 198.057 24.7389 197.24 24.7389H196.284V23.7973H197.1C197.87 23.7973 198.499 23.2793 198.499 22.4553C198.499 21.7255 198.057 21.184 197.124 21.184C196.424 21.184 195.865 21.5371 195.865 21.9609V22.2906H194.815V21.6549C194.815 20.5484 196.214 20.1482 197.217 20.1482C198.826 20.1482 199.666 21.0193 199.666 22.267C199.666 23.2557 199.082 23.8207 198.499 24.1033C199.386 24.3858 199.922 25.1391 199.922 26.128C199.922 27.564 198.779 28.5528 197.1 28.5528C195.912 28.5528 195.025 28.0113 194.535 27.4698L195.212 26.6694V26.6929Z" fill="#1A1A1A"/>
<path d="M205.471 20.1482C207.803 20.1482 209.622 21.9609 209.622 24.2916C209.622 26.6223 207.803 28.5528 205.471 28.5528C203.139 28.5528 201.344 26.6929 201.344 24.2916C201.344 21.8904 203.139 20.1482 205.471 20.1482ZM205.471 27.4933C207.103 27.4933 208.433 26.1044 208.433 24.3151C208.433 22.526 207.103 21.2312 205.471 21.2312C203.839 21.2312 202.534 22.573 202.534 24.3151C202.534 26.0573 203.839 27.4933 205.471 27.4933Z" fill="#1A1A1A"/>
<path d="M211.722 21.2782H210.977V20.2893H214.497C215.849 20.2893 216.829 21.0427 216.829 22.361C216.829 23.2556 216.362 23.8442 215.826 24.1032C216.666 24.3857 217.156 25.1861 217.156 26.1043C217.156 27.6345 215.989 28.4114 214.567 28.4114H212.445C211.932 28.4114 211.699 28.1996 211.699 27.6816V21.2782H211.722ZM214.52 23.703C215.244 23.703 215.687 23.1851 215.687 22.4788C215.687 21.7725 215.244 21.2782 214.497 21.2782H212.842V23.703H214.497H214.52ZM213.099 27.4226H214.637C215.477 27.4226 215.989 26.8576 215.989 26.0336C215.989 25.2097 215.454 24.6447 214.637 24.6447H212.842V27.1637C212.842 27.3285 212.935 27.4226 213.099 27.4226Z" fill="#1A1A1A"/>
<path d="M218.179 27.4461H218.343C218.553 27.4461 218.646 27.3992 218.716 27.1873L221.235 20.2893H222.423L224.942 27.1873C225.012 27.3992 225.105 27.4461 225.315 27.4461H225.479V28.435H224.849C224.289 28.435 224.103 28.2937 223.893 27.7758L223.287 26.1043H220.325L219.719 27.7758C219.533 28.3172 219.346 28.435 218.763 28.435H218.133V27.4461H218.179ZM223.053 25.139L222.167 22.6671C222.027 22.2433 221.841 21.5136 221.841 21.5136C221.841 21.5136 221.678 22.2198 221.538 22.6671L220.651 25.139H223.053Z" fill="#1A1A1A"/>
<path d="M227.298 21.537C227.298 21.3723 227.205 21.2782 227.041 21.2782H226.553V20.2893H227.695C228.208 20.2893 228.418 20.5012 228.418 21.0192V23.8677H232.522V21.0192C232.522 20.5012 232.732 20.2893 233.267 20.2893H234.411V21.2782H233.921C233.757 21.2782 233.664 21.3487 233.664 21.537V28.435H232.522V24.8566H228.418V28.435H227.275V21.537H227.298Z" fill="#1A1A1A"/>
<path d="M236.532 21.537C236.532 21.3723 236.438 21.2782 236.275 21.2782H235.785V20.2893H236.928C237.44 20.2893 237.65 20.5012 237.65 21.0192V25.4922C237.65 25.963 237.58 26.6693 237.58 26.6693C237.58 26.6693 238.024 25.9394 238.304 25.4922L241.824 20.3129H242.944V27.2107C242.944 27.3756 243.038 27.4697 243.201 27.4697H243.69V28.4586H242.548C242.011 28.4586 241.801 28.2467 241.801 27.7287V23.2556C241.801 22.8083 241.871 22.0786 241.871 22.0786H241.848C241.848 22.0786 241.451 22.8319 241.172 23.2556L237.627 28.4586H236.485V21.5606L236.532 21.537Z" fill="#1A1A1A"/>
<path d="M245.812 21.2782H245.066V20.2893H249.824C250.336 20.2893 250.546 20.5012 250.546 21.0192V22.055H249.497V21.537C249.497 21.3723 249.404 21.2782 249.24 21.2782H246.955V23.8207H249.777V24.8095H246.955V27.1637C246.955 27.3285 247.048 27.4226 247.212 27.4226H249.567C249.73 27.4226 249.824 27.3285 249.824 27.1637V26.6457H250.872V27.6816C250.872 28.1996 250.662 28.4114 250.149 28.4114H246.582C246.068 28.4114 245.835 28.1996 245.835 27.6816V21.2782H245.812Z" fill="#1A1A1A"/>
<path d="M165.435 36.3216H163.825C163.662 36.3216 163.568 36.3923 163.568 36.5806V37.0986H162.543V36.0392C162.543 35.5212 162.706 35.3564 163.22 35.3564H168.769C169.282 35.3564 169.446 35.5212 169.446 36.0392V37.0986H168.419V36.5806C168.419 36.4158 168.326 36.3216 168.162 36.3216H166.53V43.4785H165.388V36.3216H165.435Z" fill="#1A1A1A"/>
<path d="M171.311 36.3219H170.564V35.333H174.085C175.438 35.333 176.417 36.0864 176.417 37.4047C176.417 38.2993 175.952 38.8879 175.415 39.1469C176.254 39.4294 176.744 40.2298 176.744 41.148C176.744 42.6782 175.578 43.4552 174.155 43.4552H172.033C171.521 43.4552 171.288 43.2433 171.288 42.7253V36.3219H171.311ZM174.108 38.7467C174.832 38.7467 175.275 38.2288 175.275 37.5225C175.275 36.8162 174.832 36.3219 174.085 36.3219H172.43V38.7467H174.108ZM172.686 42.4663H174.225C175.065 42.4663 175.578 41.9013 175.578 41.0773C175.578 40.2534 175.042 39.6884 174.225 39.6884H172.43V42.2074C172.43 42.3722 172.523 42.4663 172.686 42.4663Z" fill="#1A1A1A"/>
<path d="M182.34 35.1914C184.672 35.1914 186.491 37.0041 186.491 39.3348C186.491 41.6655 184.672 43.596 182.34 43.596C180.008 43.596 178.213 41.7362 178.213 39.3348C178.213 36.9336 180.008 35.1914 182.34 35.1914ZM182.34 42.5366C183.972 42.5366 185.301 41.1476 185.301 39.3584C185.301 37.5692 183.972 36.2744 182.34 36.2744C180.707 36.2744 179.402 37.6162 179.402 39.3584C179.402 41.1005 180.707 42.5366 182.34 42.5366Z" fill="#1A1A1A"/>
<path d="M188.59 36.3219H187.844V35.333H192.601C193.113 35.333 193.323 35.5449 193.323 36.0629V37.0987H192.274V36.5807C192.274 36.416 192.181 36.3219 192.018 36.3219H189.732V38.8644H192.578V39.8532H189.732V42.2074C189.732 42.3722 189.826 42.4663 189.989 42.4663H192.344C192.508 42.4663 192.601 42.3722 192.601 42.2074V41.6894H193.65V42.7253C193.65 43.2433 193.44 43.4552 192.928 43.4552H189.359C188.846 43.4552 188.614 43.2433 188.614 42.7253V36.3219H188.59Z" fill="#1A1A1A"/>
<path d="M195.678 36.3219H194.932V35.333H199.549C200.062 35.333 200.272 35.5449 200.272 36.0629V37.0987H199.222V36.5807C199.222 36.416 199.129 36.3219 198.966 36.3219H196.797V43.4787H195.655V36.3219H195.678Z" fill="#1A1A1A"/>
<path d="M205.403 35.1914C207.735 35.1914 209.553 37.0041 209.553 39.3348C209.553 41.6655 207.735 43.596 205.403 43.596C203.071 43.596 201.275 41.7362 201.275 39.3348C201.275 36.9336 203.071 35.1914 205.403 35.1914ZM205.403 42.5366C207.035 42.5366 208.365 41.1476 208.365 39.3584C208.365 37.5692 207.035 36.2744 205.403 36.2744C203.771 36.2744 202.465 37.6162 202.465 39.3584C202.465 41.1005 203.771 42.5366 205.403 42.5366Z" fill="#1A1A1A"/>
<path d="M215.689 36.4771H214.943V35.4883H219.654C220.166 35.4883 220.376 35.7002 220.376 36.2182V37.254H219.327V36.736C219.327 36.5712 219.234 36.4771 219.071 36.4771H216.809V38.8313H218.301C219.654 38.8313 221.006 39.4905 221.006 41.1855C221.006 42.8806 219.794 43.6104 218.301 43.6104H216.412C215.899 43.6104 215.665 43.3985 215.665 42.8806V36.4771H215.689ZM217.089 42.6687H218.394C219.304 42.6687 219.864 42.1037 219.864 41.2326C219.864 40.3615 219.304 39.8201 218.394 39.8201H216.832V42.4332C216.832 42.5981 216.925 42.6922 217.089 42.6922V42.6687Z" fill="#1A1A1A"/>
<path d="M223.313 42.3624C223.546 42.5508 223.826 42.7155 224.153 42.7155C224.642 42.7155 224.852 42.386 225.062 41.7973L222.566 36.7123C222.473 36.524 222.38 36.4533 222.194 36.4533H221.961V35.4646H222.66C223.196 35.4646 223.36 35.6294 223.593 36.1237L225.225 39.6315C225.458 40.1258 225.645 40.6438 225.645 40.6438C225.645 40.6438 225.785 40.1965 225.995 39.6315L227.253 36.1237C227.44 35.5822 227.627 35.4646 228.21 35.4646H228.839V36.4533H228.653C228.443 36.4533 228.35 36.5004 228.257 36.6888L226.065 42.2918C225.785 43.0216 225.272 43.7278 224.293 43.7278C223.57 43.7278 222.94 43.3276 222.776 43.1628L223.313 42.3153V42.3624Z" fill="#1A1A1A"/>
<path d="M229.889 42.6451H230.075C231.195 41.0443 231.311 38.949 231.311 37.1598V36.4771H230.588V35.4883H235.322C235.835 35.4883 236.045 35.7002 236.045 36.2182V42.6216H236.302C236.814 42.6216 237.024 42.81 237.024 43.3514V45.2348H235.975V43.8694C235.975 43.7045 235.905 43.6104 235.742 43.6104H230.471C230.308 43.6104 230.215 43.681 230.215 43.8694V45.2348H229.166V43.3514C229.166 42.81 229.376 42.6216 229.889 42.6216V42.6451ZM234.925 42.6451V36.736C234.925 36.5712 234.832 36.4771 234.669 36.4771H232.407V37.2304C232.407 38.9962 232.22 41.1619 231.265 42.6451H234.925Z" fill="#1A1A1A"/>
<path d="M239.332 42.3624C239.566 42.5508 239.846 42.7155 240.172 42.7155C240.662 42.7155 240.872 42.386 241.082 41.7973L238.587 36.7123C238.494 36.524 238.4 36.4533 238.214 36.4533H237.98V35.4646H238.68C239.216 35.4646 239.379 35.6294 239.612 36.1237L241.244 39.6315C241.478 40.1258 241.664 40.6438 241.664 40.6438C241.664 40.6438 241.804 40.1965 242.014 39.6315L243.274 36.1237C243.46 35.5822 243.646 35.4646 244.23 35.4646H244.836V36.4533H244.65C244.44 36.4533 244.346 36.5004 244.253 36.6888L242.061 42.2918C241.781 43.0216 241.268 43.7278 240.289 43.7278C239.566 43.7278 238.937 43.3276 238.774 43.1628L239.309 42.3153L239.332 42.3624Z" fill="#1A1A1A"/>
<path d="M246.678 36.7357C246.678 36.571 246.585 36.4769 246.422 36.4769H245.932V35.488H247.097C247.61 35.488 247.82 35.6999 247.82 36.2179V42.3624C247.82 42.5272 247.914 42.6214 248.077 42.6214H250.782V35.4646H251.924V42.6214H254.886V35.4646H256.028V42.6214H256.355C256.868 42.6214 257.078 42.8098 257.078 43.3512V45.2345H256.051V43.8692C256.051 43.7043 255.981 43.6102 255.818 43.6102H247.447C246.935 43.6102 246.702 43.3983 246.702 42.8803V36.7357H246.678Z" fill="#1A1A1A"/>
<path d="M259.036 36.4771H258.291V35.4883H263.047C263.56 35.4883 263.77 35.7002 263.77 36.2182V37.254H262.722V36.736C262.722 36.5712 262.628 36.4771 262.465 36.4771H260.18V39.0197H263V40.0085H260.18V42.3627C260.18 42.5275 260.273 42.6216 260.436 42.6216H262.792C262.954 42.6216 263.047 42.5275 263.047 42.3627V41.8447H264.097V42.8806C264.097 43.3985 263.887 43.6104 263.374 43.6104H259.806C259.293 43.6104 259.06 43.3985 259.06 42.8806V36.4771H259.036Z" fill="#1A1A1A"/>
<path d="M266.149 36.4771H265.402V35.4883H270.02C270.533 35.4883 270.743 35.7002 270.743 36.2182V37.254H269.693V36.736C269.693 36.5712 269.601 36.4771 269.438 36.4771H267.269V43.634H266.126V36.4771H266.149Z" fill="#1A1A1A"/>
<path d="M275.85 35.3704C278.182 35.3704 280.001 37.1831 280.001 39.5137C280.001 41.8444 278.182 43.7749 275.85 43.7749C273.518 43.7749 271.723 41.9151 271.723 39.5137C271.723 37.1125 273.518 35.3704 275.85 35.3704ZM275.85 42.692C277.482 42.692 278.812 41.303 278.812 39.5137C278.812 37.7246 277.482 36.4298 275.85 36.4298C274.218 36.4298 272.911 37.7717 272.911 39.5137C272.911 41.2559 274.218 42.692 275.85 42.692Z" fill="#1A1A1A"/>
<path d="M117.355 36.0558V25.1428H114.663V30.9347H109.364V25.1428H104.451L104.804 27.6396H106.672V39.7245H109.364V33.6013H114.663V36.5653C114.663 38.8922 115.513 39.7245 116.943 39.7245H118.591L119.164 37.2617H118.146C117.464 37.2617 117.347 36.7606 117.347 36.0727L117.355 36.0558Z" fill="#1A1A1A"/>
<path d="M102.868 36.238L101.657 24.739H99.2174L95.7348 32.6881L91.9494 24.739H89.5353L88.0547 39.3124H90.797L91.7308 29.6733L94.6413 35.8219H96.7274L99.4696 29.6733L100.21 36.4928C100.429 38.4885 100.866 39.3208 102.515 39.3208H103.945L104.466 37.0788H103.558C103.171 37.0788 102.952 36.9429 102.868 36.2465V36.238Z" fill="#1A1A1A"/>
<path d="M124.108 34.8792V33.1637H128.743L129.29 30.6158H124.1V27.4312H130.602L130.19 24.7476H119.869L119.406 27.4312H121.434V35.4396C121.434 38.9895 124.041 39.3208 124.588 39.3208H130.266L130.872 36.6626H125.572C124.697 36.6626 124.092 36.5267 124.092 34.8876L124.108 34.8792Z" fill="#1A1A1A"/>
<path d="M146.064 36.8494C145.374 36.8494 145.266 36.3483 145.266 35.6605V24.7476H142.96L136.592 34.4715V24.7476H131.68L132.067 27.2444H133.934V39.3292H136.298L142.64 29.6053V36.1701C142.64 38.4969 143.49 39.3292 144.92 39.3292H146.51L147.09 36.8664H146.073L146.064 36.8494Z" fill="#1A1A1A"/>
<path d="M81.931 32.6031L79.4243 26.8537C78.7345 25.2995 78.0784 24.7476 76.9007 24.7476H75.6893L74.7305 27.2104H75.1932C76.4297 27.2104 76.783 27.8728 77.254 28.841L80.644 35.9492C80.3075 36.5522 79.929 36.8494 79.3402 36.8494C78.8186 36.8494 78.1878 36.6286 77.6662 36.187L76.4549 38.3442C77.2455 39.0406 78.2634 39.4481 79.3654 39.4481C80.93 39.4481 82.0571 38.8962 83.0161 36.4842L87.6511 24.739H84.7659L81.9141 32.5947L81.931 32.6031Z" fill="#1A1A1A"/>
<path d="M139.645 24.136C141.429 24.136 143.406 23.2528 143.565 20.4248H140.79C140.765 21.6137 140.158 21.8685 139.637 21.8685C139.115 21.8685 138.51 21.6221 138.485 20.4248H135.709C135.877 23.2528 137.846 24.136 139.637 24.136H139.645Z" fill="#1A1A1A"/>
<path d="M59.6578 43.6944C56.4613 51.4821 50.4299 57.2315 43.263 60.221L44.8025 63.9746C52.9198 60.5776 59.7503 54.0723 63.3758 45.2401L59.6578 43.6858V43.6944ZM48.4952 39.0235L44.7772 37.4692C43.2799 41.1126 40.4535 43.8048 37.1055 45.206L38.6449 48.9597C42.9518 47.1594 46.5773 43.7028 48.4952 39.0235Z" fill="#3C5780"/>
<path d="M3.71806 43.6943L0 45.2484C3.36475 53.4437 9.81666 60.3482 18.5482 64L20.0875 60.2463C12.3739 57.0191 6.67903 50.93 3.70964 43.6943H3.71806ZM55.9306 42.1401C53.1631 48.8917 47.9309 53.8768 41.7145 56.4755L43.2538 60.2293C50.4209 57.2314 56.4521 51.4819 59.6487 43.7028L55.9306 42.1486V42.1401ZM18.5902 37.4691L14.8723 39.0234C16.6555 43.3716 20.0792 47.0318 24.7141 48.9682L26.2534 45.2144C22.6447 43.7027 19.9783 40.8577 18.5902 37.4691ZM41.0416 35.915C39.9733 38.5223 37.9544 40.4501 35.5486 41.4523L37.0879 45.2059C40.4358 43.8046 43.2623 41.1125 44.7597 37.4691L41.0416 35.915Z" fill="#F55E68"/>
<path d="M7.43681 42.1402L3.71875 43.6943C6.68815 50.93 12.383 57.0191 20.0967 60.2463L21.636 56.4925C14.9486 53.6986 10.0108 48.4161 7.43681 42.1402ZM22.3174 35.9236L18.5994 37.4777C19.9873 40.8663 22.6539 43.7113 26.2626 45.2229L27.8019 41.4693C25.2195 40.3906 23.31 38.3525 22.3174 35.9236Z" fill="#7C4B4B"/>
<path d="M11.1537 40.586C8.97496 35.2782 8.79832 29.1296 11.1452 23.4141L7.42718 21.8599C10.1947 15.1083 15.4269 10.1232 21.6433 7.52447L20.1039 3.77075C12.937 6.76863 6.89724 12.5096 3.70914 20.2973C0.512619 28.085 0.756563 36.4587 3.72595 43.6858L7.44401 42.1317C10.018 48.3992 14.9558 53.6816 21.6433 56.4841L23.1826 52.7305C17.5214 50.361 13.3407 45.8939 11.1621 40.586H11.1537ZM26.0342 34.361C25.437 32.9003 25.3865 31.2103 26.0342 29.6391L22.3163 28.085C23.3845 25.4778 25.4034 23.5499 27.8092 22.5478L26.2698 18.7941C22.9135 20.1953 20.0955 22.8876 18.5982 26.5308C17.1009 30.1742 17.2186 34.0978 18.5982 37.4778L22.3163 35.9237C23.3088 38.344 25.2182 40.3822 27.8007 41.4693L29.3401 37.7155C27.7839 37.0616 26.6316 35.8303 26.0342 34.378V34.361Z" fill="#ABD14E"/>
<path d="M21.6437 7.52441C15.4358 10.1231 10.2037 15.1083 7.42773 21.8599L11.1458 23.414C13.4927 17.6986 17.9174 13.4777 23.1748 11.2781L21.6354 7.52441H21.6437ZM27.8098 22.5477C25.4124 23.5499 23.3851 25.4777 22.3167 28.0849L26.0348 29.6391C26.6825 28.0679 27.8938 26.9045 29.3407 26.3015L27.8013 22.5477H27.8098Z" fill="#476144"/>
<path d="M40.1839 11.2695L38.6444 15.0233C43.2794 16.9596 46.7031 20.6199 48.4864 24.9681L52.2044 23.4139C50.0257 18.106 45.8451 13.6305 40.1839 11.2695ZM34.018 26.2929L32.4785 30.0467C33.0085 30.2674 33.4039 30.6921 33.6058 31.1846L37.3238 29.6305C36.7266 28.1697 35.5742 26.9383 34.018 26.2929Z" fill="#755766"/>
<path d="M63.3585 18.7516C59.9939 10.5563 53.5503 3.6518 44.8105 0L43.271 3.75371C50.9847 6.98089 56.6796 13.0701 59.6406 20.3057C62.6099 27.5414 62.8538 35.9066 59.6573 43.6943L63.3754 45.2484C66.9925 36.4246 66.7233 26.9384 63.3585 18.7431V18.7516ZM48.4779 24.9766C46.6947 20.6284 43.271 16.9682 38.636 15.0318L37.0967 18.7855C40.7054 20.2973 43.3719 23.1507 44.7599 26.5307C46.1479 29.9109 46.2573 33.8343 44.7599 37.4777L48.4779 39.0318C46.56 43.7113 42.9346 47.1677 38.6277 48.9682L40.167 52.7218C45.4244 50.5223 49.8575 46.3015 52.196 40.5859C54.5429 34.8705 54.3663 28.7218 52.1876 23.4141L48.4695 24.9682L48.4779 24.9766ZM33.6058 31.1932C33.8077 31.6943 33.8244 32.2718 33.6058 32.8068C33.387 33.3418 32.9665 33.7409 32.4785 33.9448L34.018 37.6984C35.4648 37.0955 36.6846 35.9321 37.3238 34.3609C37.9716 32.7898 37.9211 31.0998 37.3238 29.6391L33.6058 31.1932Z" fill="#40B4E5"/>
<path d="M41.7236 7.51595C35.0362 4.7219 27.844 4.93422 21.6361 7.52445L23.1754 11.2782C17.918 13.4777 13.485 17.6985 11.1465 23.4141L14.8645 24.9766C16.7825 20.2973 20.4079 16.8407 24.7149 15.0403C29.0218 13.2399 34.0015 13.0956 38.6365 15.0403L40.1758 11.2867C45.837 13.6561 50.0178 18.1232 52.1965 23.431L55.9146 21.8769C53.3405 15.6094 48.4027 10.327 41.7153 7.52445L41.7236 7.51595ZM35.5577 22.5393C32.9753 21.4607 30.1994 21.5371 27.7936 22.5393L29.333 26.293C27.8861 26.896 26.6664 28.0594 26.0272 29.6305L29.7451 31.1848C29.9639 30.6498 30.3845 30.2505 30.8724 30.0467C31.3686 29.843 31.9323 29.8259 32.4706 30.0467L34.0099 26.293C35.5661 26.9469 36.7186 28.1784 37.3158 29.6305L41.0339 28.0764C40.0413 25.6561 38.1318 23.6178 35.5494 22.5308L35.5577 22.5393Z" fill="#FFC834"/>
<path d="M155.923 47.3631H153.256V17.1126L155.923 16.637V47.3631Z" fill="#1A1A1A"/>
</g>
</g>
<defs>
<clipPath id="clip0_6001_5285">
<rect width="280" height="64" fill="white"/>
</clipPath>
</defs>
</svg>
