<svg width="330" height="76" viewBox="0 0 330 76" fill="none" xmlns="http://www.w3.org/2000/svg">
<g clip-path="url(#clip0_6001_2245)">
<mask id="mask0_6001_2245" style="mask-type:luminance" maskUnits="userSpaceOnUse" x="0" y="0" width="330" height="76">
<path d="M330 0H0V76H330V0Z" fill="white"/>
</mask>
<g mask="url(#mask0_6001_2245)">
<path d="M196.733 23.9258C199.482 23.9258 201.627 26.0784 201.627 28.8461C201.627 31.6137 199.482 33.9062 196.733 33.9062C193.987 33.9062 191.869 31.6977 191.869 28.8461C191.869 25.9946 193.987 23.9258 196.733 23.9258ZM196.733 32.6482C198.658 32.6482 200.224 30.9988 200.224 28.874C200.224 26.7494 198.658 25.2118 196.733 25.2118C194.81 25.2118 193.272 26.8052 193.272 28.874C193.272 30.9428 194.81 32.6482 196.733 32.6482Z" fill="white"/>
<path d="M204.073 25.268H203.193V24.0938H208.745C209.35 24.0938 209.598 24.3454 209.598 24.9605V26.1905H208.36V25.5754C208.36 25.3798 208.25 25.268 208.058 25.268H205.364V28.0635H207.124C208.718 28.0635 210.311 28.8463 210.311 30.8592C210.311 32.8721 208.883 33.7388 207.124 33.7388H204.897C204.293 33.7388 204.018 33.4872 204.018 32.8721V25.268H204.073ZM205.722 32.6205H207.262C208.333 32.6205 208.993 31.9496 208.993 30.9152C208.993 29.8807 208.333 29.2378 207.262 29.2378H205.419V32.3409C205.419 32.5367 205.529 32.6484 205.722 32.6484V32.6205Z" fill="white"/>
<path d="M212.757 25.268H211.877V24.0938H216.054C217.814 24.0938 219.05 25.296 219.05 27.1131C219.05 28.9303 217.814 30.1883 216.054 30.1883H214.103V33.7668H212.757V25.268ZM215.861 29.0142C216.989 29.0142 217.676 28.2873 217.676 27.1131C217.676 25.9389 216.989 25.268 215.861 25.268H214.103V29.0142H215.861Z" fill="white"/>
<path d="M219.545 32.5925H219.738C219.985 32.5925 220.095 32.5367 220.178 32.2851L223.145 24.0938H224.547L227.515 32.2851C227.598 32.5367 227.708 32.5925 227.955 32.5925H228.146V33.7668H227.405C226.745 33.7668 226.525 33.5989 226.278 32.984L225.563 30.9991H222.074L221.359 32.984C221.139 33.6269 220.919 33.7668 220.233 33.7668H219.49V32.5925H219.545ZM225.29 29.8528L224.244 26.9174C224.079 26.4142 223.86 25.5476 223.86 25.5476C223.86 25.5476 223.667 26.3862 223.502 26.9174L222.459 29.8528H225.29Z" fill="white"/>
<path d="M230.071 31.6977C230.483 32.1449 231.334 32.7321 232.269 32.7321C233.342 32.7321 234.22 32.089 234.22 30.9988C234.22 29.9644 233.424 29.3772 232.462 29.3772H231.334V28.2591H232.297C233.204 28.2591 233.945 27.644 233.945 26.6655C233.945 25.7988 233.424 25.1558 232.324 25.1558C231.499 25.1558 230.841 25.5751 230.841 26.0784V26.4698H229.603V25.715C229.603 24.401 231.252 23.9258 232.434 23.9258C234.33 23.9258 235.32 24.9602 235.32 26.4419C235.32 27.616 234.633 28.2869 233.945 28.6224C234.99 28.958 235.623 29.8525 235.623 31.0268C235.623 32.7321 234.275 33.9062 232.297 33.9062C230.896 33.9062 229.851 33.2633 229.273 32.6202L230.071 31.6697V31.6977Z" fill="white"/>
<path d="M242.163 23.9258C244.911 23.9258 247.055 26.0784 247.055 28.8461C247.055 31.6137 244.911 33.9062 242.163 33.9062C239.415 33.9062 237.299 31.6977 237.299 28.8461C237.299 25.9946 239.415 23.9258 242.163 23.9258ZM242.163 32.6482C244.086 32.6482 245.654 30.9988 245.654 28.874C245.654 26.7494 244.086 25.2118 242.163 25.2118C240.24 25.2118 238.701 26.8052 238.701 28.874C238.701 30.9428 240.24 32.6482 242.163 32.6482Z" fill="white"/>
<path d="M249.529 25.268H248.65V24.0938H252.8C254.393 24.0938 255.548 24.9884 255.548 26.5539C255.548 27.6163 254.998 28.3151 254.366 28.6227C255.356 28.9582 255.933 29.9087 255.933 30.9991C255.933 32.8161 254.558 33.7388 252.882 33.7388H250.381C249.776 33.7388 249.501 33.4872 249.501 32.8721V25.268H249.529ZM252.827 28.1475C253.68 28.1475 254.202 27.5325 254.202 26.6938C254.202 25.855 253.68 25.268 252.8 25.268H250.849V28.1475H252.8H252.827ZM251.151 32.5645H252.965C253.955 32.5645 254.558 31.8936 254.558 30.9152C254.558 29.9367 253.927 29.2658 252.965 29.2658H250.849V32.2571C250.849 32.4528 250.959 32.5645 251.151 32.5645Z" fill="white"/>
<path d="M257.141 32.5925H257.333C257.581 32.5925 257.691 32.5367 257.773 32.2851L260.742 24.0938H262.143L265.111 32.2851C265.194 32.5367 265.304 32.5925 265.551 32.5925H265.744V33.7668H265.001C264.341 33.7668 264.123 33.5989 263.875 32.984L263.16 30.9991H259.669L258.956 32.984C258.736 33.6269 258.516 33.7668 257.828 33.7668H257.086V32.5925H257.141ZM262.885 29.8528L261.84 26.9174C261.675 26.4142 261.457 25.5476 261.457 25.5476C261.457 25.5476 261.264 26.3862 261.099 26.9174L260.054 29.8528H262.885Z" fill="white"/>
<path d="M267.886 25.5754C267.886 25.3798 267.776 25.268 267.584 25.268H267.008V24.0938H268.354C268.959 24.0938 269.206 24.3454 269.206 24.9605V28.3431H274.043V24.9605C274.043 24.3454 274.29 24.0938 274.921 24.0938H276.269V25.268H275.691C275.499 25.268 275.389 25.3518 275.389 25.5754V33.7668H274.043V29.5174H269.206V33.7668H267.859V25.5754H267.886Z" fill="white"/>
<path d="M278.771 25.5754C278.771 25.3798 278.661 25.268 278.468 25.268H277.891V24.0938H279.238C279.841 24.0938 280.089 24.3454 280.089 24.9605V30.2722C280.089 30.8312 280.007 31.67 280.007 31.67C280.007 31.67 280.529 30.8033 280.859 30.2722L285.008 24.1217H286.328V32.3129C286.328 32.5087 286.438 32.6205 286.631 32.6205H287.207V33.7947H285.861C285.228 33.7947 284.981 33.5431 284.981 32.928V27.6163C284.981 27.0851 285.063 26.2185 285.063 26.2185H285.036C285.036 26.2185 284.568 27.1131 284.24 27.6163L280.061 33.7947H278.716V25.6034L278.771 25.5754Z" fill="white"/>
<path d="M289.708 25.268H288.83V24.0938H294.437C295.04 24.0938 295.288 24.3454 295.288 24.9605V26.1905H294.052V25.5754C294.052 25.3798 293.942 25.268 293.749 25.268H291.056V28.2873H294.382V29.4615H291.056V32.2571C291.056 32.4528 291.166 32.5645 291.358 32.5645H294.134C294.327 32.5645 294.437 32.4528 294.437 32.2571V31.642H295.673V32.8721C295.673 33.4872 295.425 33.7388 294.82 33.7388H290.616C290.011 33.7388 289.736 33.4872 289.736 32.8721V25.268H289.708Z" fill="white"/>
<path d="M194.977 43.1325H193.079C192.887 43.1325 192.777 43.2164 192.777 43.44V44.0551H191.568V42.7971C191.568 42.182 191.761 41.9863 192.366 41.9863H198.906C199.511 41.9863 199.704 42.182 199.704 42.7971V44.0551H198.494V43.44C198.494 43.2444 198.383 43.1325 198.191 43.1325H196.268V51.6312H194.922V43.1325H194.977Z" fill="white"/>
<path d="M201.901 43.1323H201.021V41.958H205.171C206.766 41.958 207.919 42.8527 207.919 44.4181C207.919 45.4805 207.371 46.1794 206.738 46.487C207.727 46.8225 208.304 47.773 208.304 48.8633C208.304 50.6804 206.931 51.6031 205.253 51.6031H202.752C202.149 51.6031 201.874 51.3514 201.874 50.7363V43.1323H201.901ZM205.198 46.0117C206.051 46.0117 206.573 45.3968 206.573 44.558C206.573 43.7193 206.051 43.1323 205.171 43.1323H203.22V46.0117H205.198ZM203.522 50.4288H205.336C206.326 50.4288 206.931 49.7579 206.931 48.7794C206.931 47.801 206.298 47.1301 205.336 47.1301H203.22V50.1214C203.22 50.317 203.33 50.4288 203.522 50.4288Z" fill="white"/>
<path d="M214.901 41.79C217.65 41.79 219.793 43.9426 219.793 46.7103C219.793 49.478 217.65 51.7705 214.901 51.7705C212.153 51.7705 210.037 49.5619 210.037 46.7103C210.037 43.8589 212.153 41.79 214.901 41.79ZM214.901 50.5124C216.825 50.5124 218.391 48.8631 218.391 46.7383C218.391 44.6137 216.825 43.0761 214.901 43.0761C212.976 43.0761 211.438 44.6695 211.438 46.7383C211.438 48.8071 212.976 50.5124 214.901 50.5124Z" fill="white"/>
<path d="M222.267 43.1323H221.387V41.958H226.993C227.597 41.958 227.844 42.2096 227.844 42.8247V44.0548H226.609V43.4397C226.609 43.244 226.498 43.1323 226.306 43.1323H223.613V46.1516H226.966V47.3257H223.613V50.1214C223.613 50.317 223.723 50.4288 223.915 50.4288H226.691C226.883 50.4288 226.993 50.317 226.993 50.1214V49.5063H228.229V50.7363C228.229 51.3514 227.982 51.6031 227.378 51.6031H223.173C222.568 51.6031 222.294 51.3514 222.294 50.7363V43.1323H222.267Z" fill="white"/>
<path d="M230.62 43.1323H229.74V41.958H235.182C235.787 41.958 236.035 42.2096 236.035 42.8247V44.0548H234.797V43.4397C234.797 43.244 234.687 43.1323 234.495 43.1323H231.939V51.631H230.593V43.1323H230.62Z" fill="white"/>
<path d="M242.081 41.79C244.829 41.79 246.973 43.9426 246.973 46.7103C246.973 49.478 244.829 51.7705 242.081 51.7705C239.333 51.7705 237.217 49.5619 237.217 46.7103C237.217 43.8589 239.333 41.79 242.081 41.79ZM242.081 50.5124C244.004 50.5124 245.572 48.8631 245.572 46.7383C245.572 44.6137 244.004 43.0761 242.081 43.0761C240.158 43.0761 238.619 44.6695 238.619 46.7383C238.619 48.8071 240.158 50.5124 242.081 50.5124Z" fill="white"/>
<path d="M254.205 43.3169H253.326V42.1426H258.878C259.481 42.1426 259.729 42.3942 259.729 43.0093V44.2394H258.493V43.6243C258.493 43.4286 258.383 43.3169 258.19 43.3169H255.525V46.1124H257.283C258.878 46.1124 260.471 46.8952 260.471 48.908C260.471 50.9209 259.043 51.7876 257.283 51.7876H255.057C254.452 51.7876 254.177 51.536 254.177 50.9209V43.3169H254.205ZM255.855 50.6693H257.393C258.465 50.6693 259.125 49.9984 259.125 48.964C259.125 47.9296 258.465 47.2866 257.393 47.2866H255.552V50.3897C255.552 50.5855 255.662 50.6973 255.855 50.6973V50.6693Z" fill="white"/>
<path d="M263.191 50.3054C263.466 50.5291 263.796 50.7247 264.181 50.7247C264.757 50.7247 265.004 50.3334 265.252 49.6344L262.311 43.5959C262.201 43.3723 262.091 43.2884 261.873 43.2884H261.598V42.1143H262.421C263.054 42.1143 263.246 42.3099 263.521 42.8969L265.444 47.0625C265.719 47.6495 265.939 48.2646 265.939 48.2646C265.939 48.2646 266.104 47.7334 266.352 47.0625L267.835 42.8969C268.055 42.254 268.275 42.1143 268.963 42.1143H269.704V43.2884H269.485C269.238 43.2884 269.128 43.3443 269.018 43.568L266.434 50.2215C266.104 51.0882 265.499 51.9268 264.346 51.9268C263.494 51.9268 262.751 51.4516 262.559 51.2559L263.191 50.2495V50.3054Z" fill="white"/>
<path d="M270.94 50.6413H271.159C272.479 48.7403 272.616 46.2522 272.616 44.1275V43.3169H271.764V42.1426H277.343C277.948 42.1426 278.196 42.3942 278.196 43.0093V50.6133H278.498C279.101 50.6133 279.349 50.8371 279.349 51.4801V53.7166H278.113V52.0952C278.113 51.8994 278.031 51.7876 277.838 51.7876H271.626C271.434 51.7876 271.324 51.8714 271.324 52.0952V53.7166H270.088V51.4801C270.088 50.8371 270.335 50.6133 270.94 50.6133V50.6413ZM276.876 50.6413V43.6243C276.876 43.4286 276.766 43.3169 276.573 43.3169H273.907V44.2114C273.907 46.3082 273.687 48.8801 272.561 50.6413H276.876Z" fill="white"/>
<path d="M282.07 50.3054C282.345 50.5291 282.675 50.7247 283.06 50.7247C283.637 50.7247 283.885 50.3334 284.132 49.6344L281.192 43.5959C281.082 43.3723 280.972 43.2884 280.752 43.2884H280.477V42.1143H281.302C281.932 42.1143 282.125 42.3099 282.4 42.8969L284.323 47.0625C284.598 47.6495 284.818 48.2646 284.818 48.2646C284.818 48.2646 284.983 47.7334 285.231 47.0625L286.716 42.8969C286.934 42.254 287.154 42.1143 287.842 42.1143H288.557V43.2884H288.337C288.089 43.2884 287.979 43.3443 287.869 43.568L285.286 50.2215C284.956 51.0882 284.351 51.9268 283.197 51.9268C282.345 51.9268 281.604 51.4516 281.412 51.2559L282.042 50.2495L282.07 50.3054Z" fill="white"/>
<path d="M290.728 43.6237C290.728 43.4281 290.618 43.3164 290.425 43.3164H289.848V42.1421H291.221C291.826 42.1421 292.074 42.3937 292.074 43.0088V50.3054C292.074 50.5011 292.184 50.613 292.376 50.613H295.564V42.1143H296.91V50.613H300.401V42.1143H301.747V50.613H302.132C302.737 50.613 302.985 50.8366 302.985 51.4796V53.7161H301.775V52.0947C301.775 51.8989 301.692 51.7871 301.5 51.7871H291.634C291.03 51.7871 290.755 51.5355 290.755 50.9204V43.6237H290.728Z" fill="white"/>
<path d="M305.294 43.3169H304.416V42.1426H310.021C310.626 42.1426 310.874 42.3942 310.874 43.0093V44.2394H309.638V43.6243C309.638 43.4286 309.528 43.3169 309.335 43.3169H306.642V46.3362H309.966V47.5103H306.642V50.3059C306.642 50.5016 306.752 50.6133 306.944 50.6133H309.72C309.911 50.6133 310.021 50.5016 310.021 50.3059V49.6908H311.259V50.9209C311.259 51.536 311.011 51.7876 310.406 51.7876H306.202C305.597 51.7876 305.322 51.536 305.322 50.9209V43.3169H305.294Z" fill="white"/>
<path d="M313.677 43.3169H312.797V42.1426H318.239C318.844 42.1426 319.091 42.3942 319.091 43.0093V44.2394H317.854V43.6243C317.854 43.4286 317.745 43.3169 317.553 43.3169H314.997V51.8156H313.649V43.3169H313.677Z" fill="white"/>
<path d="M325.108 42.002C327.857 42.002 330 44.1545 330 46.9222C330 49.6899 327.857 51.9824 325.108 51.9824C322.36 51.9824 320.244 49.7738 320.244 46.9222C320.244 44.0708 322.36 42.002 325.108 42.002ZM325.108 50.6964C327.032 50.6964 328.599 49.047 328.599 46.9222C328.599 44.7976 327.032 43.26 325.108 43.26C323.185 43.26 321.645 44.8536 321.645 46.9222C321.645 48.991 323.185 50.6964 325.108 50.6964Z" fill="white"/>
<path d="M138.31 42.8166V29.8574H135.137V36.7353H128.891V29.8574H123.102L123.518 32.8224H125.719V47.1731H128.891V39.9019H135.137V43.4216C135.137 46.1848 136.138 47.1731 137.824 47.1731H139.767L140.441 44.2486H139.241C138.438 44.2486 138.3 43.6535 138.3 42.8366L138.31 42.8166Z" fill="white"/>
<path d="M121.238 43.033L119.81 29.3779H116.935L112.831 38.8175L108.37 29.3779H105.524L103.779 46.6838H107.011L108.112 35.2374L111.542 42.5389H114.001L117.233 35.2374L118.105 43.3356C118.363 45.7055 118.878 46.6938 120.822 46.6938H122.507L123.122 44.0314H122.051C121.595 44.0314 121.337 43.87 121.238 43.0431V43.033Z" fill="white"/>
<path d="M146.27 41.419V39.3819H151.733L152.378 36.3562H146.261V32.5745H153.924L153.438 29.3877H141.274L140.729 32.5745H143.118V42.0845C143.118 46.3 146.191 46.6934 146.835 46.6934H153.528L154.241 43.5368H147.995C146.964 43.5368 146.251 43.3754 146.251 41.429L146.27 41.419Z" fill="white"/>
<path d="M172.147 43.7586C171.333 43.7586 171.205 43.1636 171.205 42.3468V29.3877H168.488L160.983 40.9348V29.3877H155.193L155.65 32.3527H157.85V46.7034H160.636L168.111 35.1563V42.9519C168.111 45.7151 169.112 46.7034 170.798 46.7034H172.673L173.355 43.7789H172.157L172.147 43.7586Z" fill="white"/>
<path d="M96.5625 38.7166L93.6082 31.8892C92.7952 30.0435 92.0219 29.3881 90.634 29.3881H89.2063L88.0762 32.3127H88.6215C90.0788 32.3127 90.4952 33.0993 91.0504 34.249L95.0456 42.6901C94.6492 43.4061 94.203 43.7591 93.509 43.7591C92.8943 43.7591 92.1509 43.4968 91.5362 42.9724L90.1086 45.5341C91.0404 46.361 92.24 46.845 93.5388 46.845C95.3828 46.845 96.7112 46.1896 97.8414 43.3254L103.304 29.3779H99.9036L96.5426 38.7065L96.5625 38.7166Z" fill="white"/>
<path d="M164.58 28.6619C166.683 28.6619 169.013 27.6131 169.2 24.2549H165.929C165.9 25.6667 165.185 25.9692 164.571 25.9692C163.956 25.9692 163.243 25.6767 163.213 24.2549H159.941C160.14 27.6131 162.46 28.6619 164.571 28.6619H164.58Z" fill="white"/>
<path d="M70.31 51.8865C66.5427 61.1344 59.4343 67.9618 50.9876 71.5118L52.8019 75.9693C62.3688 71.9353 70.4191 64.2103 74.6919 53.722L70.31 51.8763V51.8865ZM57.154 46.3398L52.7721 44.4941C51.0075 48.8206 47.6764 52.0177 43.7305 53.6816L45.5448 58.1391C50.6208 56.0012 54.8937 51.8965 57.154 46.3398Z" fill="#3C5780"/>
<path d="M4.382 51.8873L0 53.7328C3.9656 63.4647 11.5696 71.6638 21.8604 76.0003L23.6746 71.5428C14.5835 67.7105 7.87171 60.4797 4.37208 51.8873H4.382ZM65.9182 50.0416C62.6565 58.0591 56.49 63.9791 49.1635 67.065L50.9777 71.5226C59.4246 67.9626 66.5329 61.135 70.3002 51.8973L65.9182 50.0518V50.0416ZM21.9099 44.4949L17.528 46.3406C19.6297 51.5041 23.6647 55.8506 29.1274 58.15L30.9415 53.6924C26.6884 51.8973 23.5458 48.5189 21.9099 44.4949ZM48.3704 42.6494C47.1114 45.7455 44.732 48.0347 41.8966 49.2249L43.7108 53.6824C47.6565 52.0183 50.9878 48.8214 52.7524 44.4949L48.3704 42.6494Z" fill="#F55E68"/>
<path d="M8.76481 50.0414L4.38281 51.8869C7.88246 60.4792 14.5942 67.7101 23.6854 71.5424L25.4996 67.0848C17.6179 63.767 11.7985 57.4941 8.76481 50.0414ZM26.3026 42.6592L21.9207 44.5047C23.5565 48.5286 26.6993 51.9071 30.9524 53.7021L32.7666 49.2447C29.723 47.9638 27.4725 45.5435 26.3026 42.6592Z" fill="#7C4B4B"/>
<path d="M13.1466 48.1957C10.5788 41.8927 10.3706 34.5912 13.1366 27.804L8.75465 25.9584C12.0164 17.9409 18.1829 12.0211 25.5094 8.93509L23.695 4.47754C15.2483 8.03752 8.13008 14.8549 4.37267 24.1028C0.605344 33.3507 0.89285 43.2945 4.39249 51.8766L8.77448 50.0311C11.8082 57.4738 17.6277 63.7467 25.5094 67.0747L27.3236 62.6172C20.6514 59.8034 15.7242 54.4988 13.1565 48.1957H13.1466ZM30.6844 40.8034C29.9805 39.0689 29.921 37.062 30.6844 35.1963L26.3025 33.3508C27.5615 30.2546 29.9409 27.9653 32.7763 26.7753L30.962 22.3178C27.0063 23.9817 23.6851 27.1787 21.9205 31.5051C20.1558 35.8316 20.2946 40.4909 21.9205 44.5046L26.3025 42.6591C27.4722 45.5332 29.7227 47.9536 32.7663 49.2446L34.5806 44.787C32.7466 44.0105 31.3884 42.5482 30.6844 40.8237V40.8034Z" fill="#ABD14E"/>
<path d="M25.5085 8.93555C18.192 12.0215 12.0255 17.9414 8.75391 25.959L13.1359 27.8045C15.9019 21.0173 21.1167 16.0051 27.313 13.3931L25.4986 8.93555H25.5085ZM32.7756 26.7757C29.9501 27.9658 27.5608 30.2551 26.3016 33.3512L30.6837 35.1967C31.447 33.331 32.8746 31.9494 34.5799 31.2334L32.7656 26.7757H32.7756Z" fill="#476144"/>
<path d="M47.3587 13.3828L45.5443 17.8404C51.0069 20.1398 55.042 24.4863 57.1438 29.6498L61.5257 27.8043C58.958 21.5012 54.0308 16.1865 47.3587 13.3828ZM40.0917 31.223L38.2773 35.6806C38.9019 35.9428 39.368 36.4471 39.6059 37.032L43.9878 35.1865C43.284 33.4517 41.9258 31.9895 40.0917 31.223Z" fill="#755766"/>
<path d="M74.6716 22.2675C70.7062 12.5356 63.1119 4.33651 52.8114 0L50.9971 4.45753C60.0882 8.28981 66.8 15.5207 70.2898 24.113C73.7894 32.7054 74.0768 42.6391 70.3095 51.887L74.6916 53.7325C78.9545 43.2542 78.6373 31.9894 74.6716 22.2575V22.2675ZM57.1338 29.6597C55.0321 24.4963 50.9971 20.1497 45.5344 17.8503L43.7202 22.3078C47.9734 24.103 51.116 27.4915 52.7519 31.5052C54.3877 35.5192 54.5166 40.1783 52.7519 44.5048L57.1338 46.3503C54.8734 51.9072 50.6006 56.0117 45.5246 58.1497L47.3388 62.6072C53.535 59.9952 58.7597 54.9831 61.5158 48.1958C64.2818 41.4087 64.0736 34.1072 61.5059 27.8042L57.1239 29.6497L57.1338 29.6597ZM39.6059 37.0419C39.8439 37.637 39.8636 38.3228 39.6059 38.9581C39.3481 39.5934 38.8524 40.0674 38.2773 40.3094L40.0917 44.7669C41.7969 44.0509 43.2345 42.6693 43.9878 40.8036C44.7513 38.9379 44.6918 36.931 43.9878 35.1964L39.6059 37.0419Z" fill="#40B4E5"/>
<path d="M49.1741 8.9249C41.2924 5.60697 32.8159 5.85909 25.4995 8.93499L27.3137 13.3925C21.1174 16.0045 15.8928 21.0167 13.1367 27.8039L17.5187 29.6595C19.7792 24.1027 24.052 19.9981 29.128 17.8601C34.204 15.7221 40.073 15.5507 45.5357 17.8601L47.3499 13.4026C54.022 16.2164 58.9494 21.521 61.517 27.824L65.8991 25.9785C62.8654 18.5358 57.0459 12.263 49.1642 8.93499L49.1741 8.9249ZM41.9071 26.7652C38.8635 25.4843 35.592 25.575 32.7566 26.7652L34.5708 31.2227C32.8656 31.9387 31.428 33.3203 30.6747 35.186L35.0565 37.0316C35.3144 36.3963 35.81 35.9222 36.3851 35.6801C36.9699 35.4382 37.6343 35.418 38.2687 35.6801L40.0829 31.2227C41.917 31.9991 43.2753 33.4616 43.9792 35.186L48.3612 33.3405C47.1913 30.4664 44.9409 28.0459 41.8973 26.755L41.9071 26.7652Z" fill="#FFC834"/>
<path d="M183.767 56.2441H180.623V20.3217L183.767 19.7568V56.2441Z" fill="white"/>
</g>
</g>
<defs>
<clipPath id="clip0_6001_2245">
<rect width="330" height="76" fill="white"/>
</clipPath>
</defs>
</svg>
