<svg viewBox="0 0 24 24" fill="none" xmlns="http://www.w3.org/2000/svg">
  <path fill-rule="evenodd" clip-rule="evenodd" d="M12.7069 8.19554C11.0061 8.10635 9.67894 9.28649 9.38627 11.1336C9.14391 12.6632 9.57362 14.5271 9.94117 14.6209C10.0971 14.6607 10.4722 14.3738 10.7452 14.1164C10.7965 14.068 10.8741 14.0599 10.9342 14.0967C11.3597 14.3568 11.8414 14.5524 12.3725 14.5802C14.1185 14.6718 15.6658 13.3053 15.7573 11.5591C15.8487 9.81293 14.4529 8.2871 12.7069 8.19554ZM9.85887 17.0633C9.79302 17.0166 9.70229 17.0293 9.64711 17.0881C8.90948 17.8749 7.02172 18.4267 6.93525 17.3529C6.93525 16.5117 6.74629 15.8027 6.53824 15.0222C6.28344 14.0662 6 13.0028 6 11.4572C6 7.77169 9.0226 5 12.6064 5C16.1902 5 19 7.90702 19 11.493C19 15.079 16.1007 17.9144 12.6403 17.9144C11.4126 17.9144 10.8169 17.7415 9.85887 17.0633Z" fill="currentColor" />
</svg>