<svg viewBox="0 0 48 48" fill="none" xmlns="http://www.w3.org/2000/svg">
  <path d="M25.3646 27.4024C25.5184 27.4731 25.6917 27.4892 25.8559 27.4482C26.0201 27.4071 26.1655 27.3114 26.268 27.1767L26.5324 26.8304C26.6712 26.6454 26.8511 26.4952 27.058 26.3918C27.2648 26.2884 27.4929 26.2345 27.7242 26.2345H29.9587C30.3537 26.2345 30.7326 26.3915 31.012 26.6708C31.2914 26.9502 31.4483 27.3291 31.4483 27.7242V29.9587C31.4483 30.3537 31.2914 30.7326 31.012 31.012C30.7326 31.2914 30.3537 31.4483 29.9587 31.4483C26.4029 31.4483 22.9928 30.0358 20.4785 27.5215C17.9643 25.0072 16.5518 21.5971 16.5518 18.0414C16.5518 17.6463 16.7087 17.2674 16.9881 16.9881C17.2674 16.7087 17.6463 16.5518 18.0414 16.5518H20.2759C20.671 16.5518 21.0499 16.7087 21.3292 16.9881C21.6086 17.2674 21.7656 17.6463 21.7656 18.0414V20.2759C21.7656 20.5072 21.7117 20.7352 21.6083 20.9421C21.5049 21.1489 21.3547 21.3289 21.1697 21.4676L20.8211 21.7291C20.6844 21.8335 20.588 21.982 20.5483 22.1494C20.5087 22.3168 20.5282 22.4928 20.6036 22.6474C21.6216 24.715 23.2957 26.3871 25.3646 27.4024Z" fill="currentColor" stroke="currentColor" stroke-width="1.48966" stroke-linecap="round" stroke-linejoin="round" />
</svg>