<svg viewBox="0 0 24 24" fill="none" xmlns="http://www.w3.org/2000/svg">
  <path d="M5 23C4.45 23 3.97917 22.8042 3.5875 22.4125C3.19583 22.0208 3 21.55 3 21V20H21V21C21 21.55 20.8042 22.0208 20.4125 22.4125C20.0208 22.8042 19.55 23 19 23H5ZM4 18C3.45 18 2.97917 17.8042 2.5875 17.4125C2.19583 17.0208 2 16.55 2 16V8C2 7.45 2.19583 6.97917 2.5875 6.5875C2.97917 6.19583 3.45 6 4 6H20C20.55 6 21.0208 6.19583 21.4125 6.5875C21.8042 6.97917 22 7.45 22 8V16C22 16.55 21.8042 17.0208 21.4125 17.4125C21.0208 17.8042 20.55 18 20 18H4ZM3 4V3C3 2.45 3.19583 1.97917 3.5875 1.5875C3.97917 1.19583 4.45 1 5 1H19C19.55 1 20.0208 1.19583 20.4125 1.5875C20.8042 1.97917 21 2.45 21 3V4H3ZM10 15L15 12L10 9V15Z" fill="currentColor" />
</svg>