<svg viewBox="0 0 24 24" fill="none" xmlns="http://www.w3.org/2000/svg">
  <path d="M17.7343 13.9202C16.3903 12.5598 16.5619 12.7668 18.1919 10.4305C19.1641 9.01099 19.5645 8.12379 19.4501 7.73933C19.3929 7.50275 18.6208 7.56189 18.6208 7.56189H16.2188C16.2188 7.56189 15.847 7.56189 15.704 7.82805C15.4467 8.3308 15.3323 8.95184 14.8176 9.86862C13.7309 11.85 13.302 11.9683 13.1304 11.85C12.7301 11.5543 12.8159 10.6967 12.8159 10.0756C12.8159 8.15336 13.0732 7.35488 12.3011 7.11829C12.1296 7.05915 11.9866 7.05915 11.7292 7.02957C11.4147 7 11.1001 7 10.8142 7C10.0993 7 9.55594 7.02957 9.1842 7.20701C8.89824 7.35488 8.69807 7.68019 8.84105 7.70976C9.01262 7.73933 9.35577 7.82805 9.55594 8.09421C9.8133 8.44909 9.78471 9.27715 9.78471 9.27715C9.78471 9.27715 9.92769 11.5543 9.44156 11.8205C9.12701 12.0275 8.66947 11.6134 7.72582 9.80947C7.23969 8.89269 7.1825 8.27165 6.86794 7.85763C6.66777 7.59147 6.29603 7.50275 6.29603 7.50275H4.00837C4.00837 7.50275 3.60803 7.47317 3.55084 7.59147C3.43645 7.73933 3.55084 8.03507 3.55084 8.03507C3.55084 8.03507 5.35237 12.6189 7.38267 14.9257C9.1842 17.1141 11.3003 16.9958 11.3003 16.9958C11.3003 16.9958 12.5299 17.0549 12.7015 16.7296C12.8159 16.6113 12.8445 16.2565 12.8445 16.2565C12.8445 16.2565 12.8159 14.8369 13.4164 14.6299C14.0169 14.4229 14.7604 15.9903 15.561 16.5818C16.1616 17.0549 16.3331 16.9958 16.6191 16.9958H18.7638C18.7638 16.9958 19.879 16.8775 19.3643 15.9016C19.2785 15.8424 19.0211 15.2214 17.7343 13.9202Z" fill="currentColor" />
</svg>