<svg width="211" height="135" viewBox="0 0 211 135" fill="none" xmlns="http://www.w3.org/2000/svg">
<g filter="url(#filter0_d_6001_5884)">
<path d="M113.065 58.5803L99.7045 60.8817L97.0806 62.5437C97.0806 62.5437 94.6055 64.55 93.0443 71.7992C91.4828 79.0484 92.5981 93.9927 94.8287 101.688C97.0593 109.383 97.3596 130.851 97.3596 130.851H124.94C124.94 130.851 132.524 109.954 131.409 90.5976C130.294 71.2416 117.302 61.0607 117.302 61.0607L115.684 57.9702L113.065 58.5803Z" fill="url(#paint0_linear_6001_5884)"/>
<path d="M97.3588 130.851H77.9383C72.3761 133.21 67.2773 129.936 64.1396 125.069C62.1488 121.985 61.1684 118.08 61.1563 112.797C61.1503 109.743 61.4654 106.231 62.1013 102.148C63.8247 91.0058 67.5922 78.9127 71.6749 75.3054C74.771 72.5657 88.2251 66.2249 97.0796 62.5405C97.0796 62.5405 92.2305 72.0903 93.8705 82.7691C94.5659 87.3033 97.6441 99.361 99.3377 111.995C101.037 124.629 97.3588 130.851 97.3588 130.851Z" fill="url(#paint1_linear_6001_5884)"/>
<path d="M98.5418 54.1445L82.6289 66.0684L91.0926 68.0659C91.0926 68.0659 93.814 71.743 89.433 77.3461L94.6868 87.0265C94.6868 87.0265 90.9403 74.9916 97.0796 62.5438L99.7035 60.8818L98.5418 54.1445Z" fill="url(#paint2_linear_6001_5884)"/>
<path d="M84.3445 120.683C84.4633 127.386 81.5217 129.621 77.9382 130.851C72.376 133.21 67.2772 129.936 64.1395 125.068C62.1487 121.984 61.1683 118.08 61.1562 112.797C62.7549 110.117 65.3934 107.983 69.5293 107.395C78.5861 106.1 84.2315 113.979 84.3445 120.683Z" fill="url(#paint3_linear_6001_5884)"/>
<path d="M86.9603 130.851H79.3301C81.3744 128.557 84.0045 125.126 84.3491 118.655C84.9671 106.936 80.1324 90.2332 80.0016 89.7637C91.6372 115.281 86.9603 130.851 86.9603 130.851Z" fill="url(#paint4_linear_6001_5884)"/>
<path d="M60.1498 61.2879L52.5556 59.8249C52.5556 59.8249 49.2114 53.8332 48.3056 54.1118C47.4 54.3904 46.9819 55.217 47.818 57.5208C47.818 57.5208 44.6828 51.6733 43.0804 52.1609C41.4779 52.6485 42.4533 54.5994 42.4533 54.5994C42.4533 54.5994 40.5026 51.7429 39.3878 52.7183C38.2731 53.6938 40.0674 55.7379 41.8263 57.8041C44.0238 60.3859 49.9081 68.0383 51.9286 70.5849C53.9491 73.1316 59.8654 76.4758 60.3558 79.3324C60.8464 82.1889 61.3727 109.232 61.8914 115.352C62.4102 121.472 68.5102 130.192 73.5264 130.053C78.5426 129.913 81.8747 125.843 81.8868 119.444C81.8988 113.045 77.0795 102.719 74.9196 97.087C72.7599 91.4551 67.8133 78.0785 67.3953 74.5949C66.9773 71.1114 68.6493 69.7877 67.0469 65.4681C65.4444 61.1485 61.6822 58.5708 61.1564 51.1856C61.1564 51.1856 58.6863 50.6282 57.92 53.4152C57.3239 55.5837 60.1498 61.2879 60.1498 61.2879Z" fill="url(#paint5_linear_6001_5884)"/>
<path d="M117.303 61.0605C117.303 61.0605 134.017 63.7633 137.767 68.4506C141.516 73.138 143.954 81.4303 144.355 90.5975C144.757 99.7645 143.15 130.851 143.15 130.851H123.865C123.865 130.851 126.677 90.39 125.472 78.6047C124.267 66.8194 117.303 61.0605 117.303 61.0605Z" fill="url(#paint6_linear_6001_5884)"/>
<path d="M111.497 53.1816L123.378 57.8585L122.04 62.5407L125.609 64.55L125.471 78.6046C125.471 78.6046 123.936 61.5388 110.553 57.6353L111.497 53.1816Z" fill="url(#paint7_linear_6001_5884)"/>
<path d="M120.896 127.991H81.8867C81.8867 129.571 83.1672 130.851 84.7467 130.851H120.896V127.991Z" fill="url(#paint8_linear_6001_5884)"/>
<path d="M120.726 80.0977H192.987C194.55 80.0977 195.816 81.3644 195.816 82.9271V128.021C195.816 129.584 194.55 130.851 192.987 130.851H120.726C119.163 130.851 117.896 129.584 117.896 128.021V82.9271C117.896 81.3644 119.163 80.0977 120.726 80.0977Z" fill="url(#paint9_linear_6001_5884)"/>
<path d="M160.259 108.881C162.141 106.999 162.141 103.948 160.259 102.066C158.377 100.184 155.326 100.184 153.444 102.066C151.563 103.948 151.563 106.999 153.444 108.881C155.326 110.762 158.377 110.762 160.259 108.881Z" fill="white"/>
<path d="M16.4565 124.708H33.2027V130.851H16.4565C14.7602 130.851 13.3848 129.476 13.3848 127.779C13.3848 126.083 14.7602 124.708 16.4565 124.708Z" fill="url(#paint10_linear_6001_5884)"/>
<path d="M20.2508 124.708H36.7671V116.78H20.2508C18.0617 116.78 16.2871 118.555 16.2871 120.744C16.2871 122.933 18.0617 124.708 20.2508 124.708Z" fill="url(#paint11_linear_6001_5884)"/>
<path d="M76.1413 125.726H30.8477V129.852H76.1413V125.726Z" fill="url(#paint12_linear_6001_5884)"/>
<path d="M32.616 126.314C32.2403 126.69 32.0088 127.207 32.0088 127.78C32.0088 128.924 32.9368 129.852 34.0826 129.852H76.8642V130.851H31.727C30.8791 130.851 30.1114 130.507 29.5546 129.95C28.9999 129.396 28.6562 128.628 28.6562 127.78C28.6562 126.082 30.031 124.708 31.7267 124.708H76.864V125.707H34.0826C33.5099 125.707 32.992 125.938 32.616 126.314Z" fill="url(#paint13_linear_6001_5884)"/>
<path d="M37.5716 117.084H71.9845V124.19H37.5716C35.6303 124.19 34.0566 122.617 34.0566 120.675V120.599C34.0566 118.658 35.6303 117.084 37.5716 117.084Z" fill="url(#paint14_linear_6001_5884)"/>
<path d="M35.4732 120.744C35.4732 121.534 35.7941 122.259 36.3111 122.776C36.8342 123.299 37.5471 123.62 38.3434 123.62H72.5907V124.708H36.1863C35.0929 124.708 34.1005 124.268 33.3874 123.549C32.6684 122.83 32.2227 121.843 32.2227 120.744C32.2227 118.557 33.9996 116.78 36.1863 116.78H72.5907V117.874H38.3434C36.7569 117.873 35.4732 119.157 35.4732 120.744Z" fill="url(#paint15_linear_6001_5884)"/>
<path d="M14.0746 135H210.908C212.054 135 212.983 134.071 212.983 132.925C212.983 131.78 212.054 130.851 210.908 130.851H14.0746C12.9288 130.851 12 131.78 12 132.925C12.0002 134.071 12.9291 135 14.0746 135Z" fill="#401215"/>
<path d="M97.8496 50.123L100.134 63.3704C100.134 63.3704 105.271 69.184 109.598 68.3728C113.924 67.5617 112.978 63.5057 112.978 63.5057L113.065 53.3656L97.8496 50.123Z" fill="url(#paint16_linear_6001_5884)"/>
<path d="M96.4828 46.065C96.4828 46.065 81.2051 35.3842 84.8555 27.2722C84.8555 27.2722 82.422 27.1371 81.6109 30.7873C81.6109 30.7873 80.9348 27.1369 84.8555 25.3793C84.8555 25.3793 83.3684 17.6728 94.5901 14.2927C94.5901 14.2927 97.5783 7.20637 103.649 8.07356C108.381 8.74957 109.192 13.8872 109.192 13.8872C109.192 13.8872 110.156 11.2545 112.662 10.3435C114.513 9.67024 116.306 10.0397 116.306 10.0397C116.306 10.0397 112.131 10.4193 111.295 13.8361C111.295 13.8361 115.547 10.5712 118.812 12.7732C122.077 14.975 121.849 21.7325 121.166 25.6046C120.483 29.4768 117.597 36.9178 117.597 36.9178L96.4828 46.065Z" fill="url(#paint17_linear_6001_5884)"/>
<path d="M117.749 27.5025C118.74 31.0398 119.167 33.0107 118.796 34.0203C118.426 35.0297 119.669 37.071 119.517 39.8045C119.365 42.5377 118.575 54.6098 113.037 56.5832C107.499 58.5567 97.7044 52.9381 95.6545 47.3196C95.6545 47.3196 92.1619 47.5473 90.2636 44.4345C88.3654 41.3215 90.1118 39.7269 91.6302 39.1196C93.1487 38.5122 95.1228 39.803 95.1228 39.803C95.1228 39.803 92.3136 33.9567 93.1487 31.0714C93.1487 31.0714 98.5396 28.7935 105.585 18.9232C105.585 18.9232 109.017 17.2529 111.143 19.4547C113.269 21.6565 115.092 24.2845 114.332 27.0325C114.332 27.0325 115.395 25.4528 115.395 23.3268C115.395 23.3268 117.306 25.9231 117.749 27.5025Z" fill="url(#paint18_linear_6001_5884)"/>
<path d="M105.585 16.4933C105.585 18.923 105.676 25.6805 94.9707 30.8434C94.9707 30.8434 102.562 30.2181 108.41 21.2766C108.41 21.2766 109.397 23.8582 104.281 28.0341C104.281 28.0341 109.7 27.0323 112.249 20.6846C112.249 20.6846 113.269 17.2524 109.473 16.1135C105.676 14.9746 105.585 16.4933 105.585 16.4933Z" fill="url(#paint19_linear_6001_5884)"/>
</g>
<defs>
<filter id="filter0_d_6001_5884" x="0" y="0" width="224.982" height="151" filterUnits="userSpaceOnUse" color-interpolation-filters="sRGB">
<feFlood flood-opacity="0" result="BackgroundImageFix"/>
<feColorMatrix in="SourceAlpha" type="matrix" values="0 0 0 0 0 0 0 0 0 0 0 0 0 0 0 0 0 0 127 0" result="hardAlpha"/>
<feOffset dy="4"/>
<feGaussianBlur stdDeviation="6"/>
<feComposite in2="hardAlpha" operator="out"/>
<feColorMatrix type="matrix" values="0 0 0 0 0.905882 0 0 0 0 0.913725 0 0 0 0 0.92549 0 0 0 0.3 0"/>
<feBlend mode="normal" in2="BackgroundImageFix" result="effect1_dropShadow_6001_5884"/>
<feBlend mode="normal" in="SourceGraphic" in2="effect1_dropShadow_6001_5884" result="shape"/>
</filter>
<linearGradient id="paint0_linear_6001_5884" x1="111.551" y1="128.096" x2="112.118" y2="65.7453" gradientUnits="userSpaceOnUse">
<stop stop-color="#CDCDCD"/>
<stop offset="1" stop-color="white"/>
</linearGradient>
<linearGradient id="paint1_linear_6001_5884" x1="61.1563" y1="97.0875" x2="99.7862" y2="97.0875" gradientUnits="userSpaceOnUse">
<stop offset="0.0077" stop-color="#6C9BA1"/>
<stop offset="1" stop-color="#537F81"/>
</linearGradient>
<linearGradient id="paint2_linear_6001_5884" x1="95.4383" y1="70.0903" x2="85.5978" y2="65.947" gradientUnits="userSpaceOnUse">
<stop offset="0.0077" stop-color="#80AEA8"/>
<stop offset="1" stop-color="#9FD0D2"/>
</linearGradient>
<linearGradient id="paint3_linear_6001_5884" x1="72.7521" y1="130.601" x2="72.7521" y2="95.3723" gradientUnits="userSpaceOnUse">
<stop offset="0.0077" stop-color="#446F79"/>
<stop offset="1" stop-color="#537F81"/>
</linearGradient>
<linearGradient id="paint4_linear_6001_5884" x1="83.6096" y1="130.602" x2="83.6096" y2="95.3727" gradientUnits="userSpaceOnUse">
<stop offset="0.0077" stop-color="#446F79"/>
<stop offset="1" stop-color="#537F81"/>
</linearGradient>
<linearGradient id="paint5_linear_6001_5884" x1="79.9294" y1="86.0694" x2="60.2587" y2="90.5557" gradientUnits="userSpaceOnUse">
<stop offset="0.0077" stop-color="#F1CDAB"/>
<stop offset="1" stop-color="#E48C75"/>
</linearGradient>
<linearGradient id="paint6_linear_6001_5884" x1="117.303" y1="95.9558" x2="144.42" y2="95.9558" gradientUnits="userSpaceOnUse">
<stop offset="0.0077" stop-color="#6C9BA1"/>
<stop offset="1" stop-color="#537F81"/>
</linearGradient>
<linearGradient id="paint7_linear_6001_5884" x1="117.818" y1="66.1943" x2="125.069" y2="62.9142" gradientUnits="userSpaceOnUse">
<stop offset="0.0077" stop-color="#80AEA8"/>
<stop offset="1" stop-color="#9FD0D2"/>
</linearGradient>
<linearGradient id="paint8_linear_6001_5884" x1="119.702" y1="129.421" x2="83.5609" y2="129.421" gradientUnits="userSpaceOnUse">
<stop stop-color="#C7D9F4"/>
<stop offset="1" stop-color="#A6C4F4"/>
</linearGradient>
<linearGradient id="paint9_linear_6001_5884" x1="194.532" y1="129.909" x2="126.212" y2="85.6" gradientUnits="userSpaceOnUse">
<stop stop-color="#C7D9F4"/>
<stop offset="1" stop-color="#A6C4F4"/>
</linearGradient>
<linearGradient id="paint10_linear_6001_5884" x1="33.1282" y1="127.779" x2="13.252" y2="127.779" gradientUnits="userSpaceOnUse">
<stop stop-color="#412678"/>
<stop offset="1" stop-color="#492C91"/>
</linearGradient>
<linearGradient id="paint11_linear_6001_5884" x1="16.287" y1="120.744" x2="36.7669" y2="120.744" gradientUnits="userSpaceOnUse">
<stop offset="0.0077" stop-color="#ED633D"/>
<stop offset="1" stop-color="#BA3B0D"/>
</linearGradient>
<linearGradient id="paint12_linear_6001_5884" x1="30.8477" y1="127.789" x2="76.1414" y2="127.789" gradientUnits="userSpaceOnUse">
<stop stop-color="#CDCDCD"/>
<stop offset="1" stop-color="white"/>
</linearGradient>
<linearGradient id="paint13_linear_6001_5884" x1="76.0477" y1="127.779" x2="29.4064" y2="127.779" gradientUnits="userSpaceOnUse">
<stop stop-color="#412678"/>
<stop offset="1" stop-color="#492C91"/>
</linearGradient>
<linearGradient id="paint14_linear_6001_5884" x1="34.0566" y1="120.637" x2="71.9845" y2="120.637" gradientUnits="userSpaceOnUse">
<stop stop-color="#CDCDCD"/>
<stop offset="1" stop-color="white"/>
</linearGradient>
<linearGradient id="paint15_linear_6001_5884" x1="32.2225" y1="120.744" x2="72.5907" y2="120.744" gradientUnits="userSpaceOnUse">
<stop offset="0.0077" stop-color="#ED633D"/>
<stop offset="1" stop-color="#BA3B0D"/>
</linearGradient>
<linearGradient id="paint16_linear_6001_5884" x1="110.333" y1="67.7272" x2="103.992" y2="51.8326" gradientUnits="userSpaceOnUse">
<stop offset="0.0077" stop-color="#F1CDAB"/>
<stop offset="1" stop-color="#E48C75"/>
</linearGradient>
<linearGradient id="paint17_linear_6001_5884" x1="81.5662" y1="27.0324" x2="121.586" y2="27.0324" gradientUnits="userSpaceOnUse">
<stop offset="0.0077" stop-color="#832500"/>
<stop offset="1" stop-color="#601700"/>
</linearGradient>
<linearGradient id="paint18_linear_6001_5884" x1="116.694" y1="48.3643" x2="96.6812" y2="27.6108" gradientUnits="userSpaceOnUse">
<stop offset="0.0077" stop-color="#F1CDAB"/>
<stop offset="1" stop-color="#E48C75"/>
</linearGradient>
<linearGradient id="paint19_linear_6001_5884" x1="94.9706" y1="23.2666" x2="112.373" y2="23.2666" gradientUnits="userSpaceOnUse">
<stop offset="0.0077" stop-color="#832500"/>
<stop offset="1" stop-color="#601700"/>
</linearGradient>
</defs>
</svg>
