<svg width="200" height="135" viewBox="0 0 200 135" fill="none" xmlns="http://www.w3.org/2000/svg">
<g filter="url(#filter0_d_6001_545)">
<g clip-path="url(#clip0_6001_545)">
<path d="M114.296 51.3525C109.633 48.4725 103.012 45.6636 103.012 45.6636C103.579 50.3369 106.497 60.1767 106.497 60.1767C111.923 65.2011 112.679 64.9559 112.679 64.9559C115.485 55.8768 114.296 51.3525 114.296 51.3525Z" fill="#FFA283"/>
<path d="M102.078 71.7217C102.078 71.7217 113.059 106.631 119.546 107C122.393 107.162 153.532 87.126 153.532 87.126L156.456 99.4824C156.456 99.4824 127.098 126.162 114.369 122.805C101.639 119.448 99.2207 110.706 99.2207 110.706L102.078 71.7217Z" fill="#E76A53"/>
<path d="M85.3267 14.1709L86.0515 14.2591L97.6459 15.6691C97.6459 15.6691 97.1564 18.137 99.7556 20.3914C102.355 22.6456 118.408 67.5261 111.524 75.1215C104.641 82.7162 74.9399 81.8193 74.0627 81.8709C73.1859 81.9224 66.4863 49.014 66.4863 49.014L85.3267 14.1709Z" fill="#F2CD46"/>
<path d="M63.0801 253.405C62.0308 236.331 60.4903 211.259 60.0377 203.897C59.2368 190.863 62.2559 156.301 69.4079 138.775C76.5596 121.249 111.428 136.304 111.428 136.304C111.428 136.304 120.168 152.427 123.697 176.368L130.246 250.839C106.104 255.975 87.0577 257.386 63.0801 253.405Z" fill="#912A4D"/>
<path d="M98.1189 63.7825C99.351 64.8513 116.865 81.8437 116.365 94.4935C115.618 113.394 111.47 132.742 113.773 140.141C117.617 152.492 71.5834 157.088 68.4554 141.376C67.3426 135.786 67.9732 121.604 65.8336 108.93C62.4363 88.8053 56.2882 69.1579 57.167 68.5572C76.6248 55.2476 94.7421 60.8542 98.1189 63.7825Z" fill="#84CAE8"/>
<path d="M113.018 127.686C106.532 127.791 95.7339 127.072 94.2674 125.8C92.2369 124.039 86.451 108.947 86.451 108.947L89.8455 107.165C89.8455 107.165 80.2286 79.4641 71.3927 71.8007C66.1578 67.26 63.0244 66.1207 61.3391 65.9453C60.5603 66.3901 59.7797 66.8564 58.998 67.3515C59.0332 69.3359 59.1005 73.8667 59.0692 78.0812C60.4842 83.7958 62.4306 91.5635 64.1434 99.9308C67.5988 106.644 71.5473 113.562 72.386 114.733C73.9821 116.961 86.7277 134.039 86.7277 134.039L113.478 138.796C113.073 136.057 112.337 132.641 113.018 127.686Z" fill="#0D5965"/>
<path d="M51.1426 82.2981C53.8308 68.5634 57.1674 68.5571 57.1674 68.5571C57.1674 68.5571 60.9022 82.2502 64.0317 94.6619C62.5432 94.3556 61.0651 93.85 59.6183 93.1172C55.1673 90.8635 52.6066 86.3986 51.1426 82.2981Z" fill="#6ADAF4"/>
<path d="M93.7443 39.3367L96.756 59.6479C96.756 59.6479 105.273 83.4662 99.7537 85.816C94.2347 88.166 84.424 61.3094 84.424 61.3094L82.8184 35.1802L93.7443 39.3367Z" fill="#FFA283"/>
<path opacity="0.68" d="M82.9434 37.1743L83.5803 47.541C87.4404 51.9823 92.1341 55.0093 96.0841 55.1002L94.0527 41.4008L82.9434 37.1743Z" fill="#FF7F4C"/>
<path d="M92.5731 15.7257C92.5731 15.7257 99.131 12.4 102.188 25.4512C105.244 38.5026 104.292 50.9252 97.6965 52.2934C91.1014 53.6614 81.2456 43.3441 77.4611 34.7459C73.6764 26.1474 87.1601 14.6486 92.5731 15.7257Z" fill="#FFA283"/>
<path d="M152.207 114.721C152.207 114.721 118.942 136.496 119.971 140.475C121.001 144.454 142.05 152.085 142.05 152.085C142.05 152.085 142.363 158.739 136.716 161.961C134.823 163.04 114.944 156.02 107.57 150.002C102.006 145.46 99.4003 140.072 104.486 132.835C109.572 125.599 123.28 112.659 123.28 112.659L152.207 114.721Z" fill="#221B59"/>
<path d="M160.549 126.514C157.712 135.445 137.753 138.575 139.547 141.381C141.772 144.86 162.522 152.787 162.522 152.787C162.522 152.787 162.836 159.441 157.188 162.663C155.295 163.742 133.183 155.271 128.478 149.879C123.773 144.486 121.208 142.356 124.374 134.139C125.954 130.036 133.489 118.972 139.932 112.741C148.533 104.423 153.356 109.972 153.356 109.972C153.356 109.972 163.893 115.985 160.549 126.514Z" fill="#322783"/>
<path d="M151.785 131.792C151.493 131.968 151.167 131.624 151.369 131.355C152.94 129.267 155.533 125.415 153.186 125.553C150.813 125.693 148.591 128.761 145.912 129.925C144.962 130.338 95.1208 134.907 90.4354 126.83C88.802 124.015 83.8955 114.447 81.2315 104.293C71.883 105.115 66.9649 106.545 58.9941 111.398C62.9666 126.555 68.1533 139.364 74.2728 144.671C81.9601 151.338 123.518 143.471 133.31 141.502C134.752 141.213 136.204 140.998 137.67 140.859C141.962 140.451 150.947 139.605 152.845 139.494C155.361 139.346 160.549 126.514 160.549 126.514L151.785 131.792Z" fill="#FFA283"/>
<path opacity="0.68" d="M81.2334 104.293C71.885 105.115 66.9669 106.545 58.9961 111.398C59.3558 112.772 59.7263 114.124 60.1058 115.455C65.6445 115.129 76.7753 112.026 82.8592 109.684C82.2661 107.93 81.7131 106.121 81.2334 104.293Z" fill="#FF7F4C"/>
<path d="M59.706 66.1601C59.706 66.1601 52.5708 65.7095 54.1635 91.6281C54.6393 99.3726 55.851 106.542 57.5433 113C61.8506 113.105 78.7497 112.473 84.1651 104.973C84.1651 104.973 71.7944 62.5961 59.706 66.1601Z" fill="#84CAE8"/>
<path d="M85.7907 8.31953C86.8609 8.64821 87.9619 8.87262 89.0782 8.98002C91.4804 9.21025 95.5373 10.3498 98.2603 15.1128C102.345 22.2574 78.5409 42.422 85.9213 55.115C91.458 64.6375 84.5054 76.201 74.9822 82.8918C65.459 89.5813 78.6177 87.0011 66.994 93.4993C55.3702 99.9975 38.8555 79.382 47.1265 63.1481C55.398 46.9146 61.719 16.2532 72.7964 11.006C80.1061 7.54336 83.9926 7.76666 85.7907 8.31953Z" fill="#F6DC5E"/>
<path d="M181.587 109.43C179.11 103.64 174.824 94.233 171.578 90.3314C166.729 84.5044 163.404 76.4868 163.404 76.4868L157.09 84.4022C157.09 84.4022 175.108 111.432 175.295 114.477C175.482 117.522 174.906 123.848 176.297 124.243C177.689 124.639 176.308 119.658 178.157 119.55C180.005 119.441 179.525 129.115 180.247 129.741C180.393 129.868 180.838 129.908 180.975 129.588C181.483 128.405 181.464 123.923 181.464 123.923L181.801 129.393C181.83 129.872 182.322 130.178 182.783 130.014C182.788 130.013 182.793 130.011 182.797 130.009C183.082 129.907 183.265 129.63 183.26 129.333L183.144 122.922C183.144 122.922 183.31 129.204 183.587 129.518C184.022 130.011 184.286 127.652 184.297 125.293C184.324 119.345 182.61 111.82 181.587 109.43Z" fill="#FFA283"/>
<path d="M169.417 83.4773C169.417 83.4773 160.053 90.2451 159.274 90.2907C158.496 90.3364 157.103 84.798 156.05 85.9597C154.997 87.1214 161.699 114.915 160.879 118.528C160.06 122.142 121.456 118.809 119.901 114.699C118.347 110.588 122.566 75.4498 120.916 74.0185C119.266 72.5877 113.225 67.8837 113.225 67.8837C113.225 67.8837 112.957 62.7819 111.776 56.3341C111.705 55.1798 112.497 50.5076 112.766 49.2544C115.016 50.3906 119.669 52.634 124.117 54.0931C131.348 56.4645 146.69 60.7881 152.059 62.6372C157.428 64.4866 169.292 81.4473 169.417 83.4773Z" fill="#F1F3F6"/>
<path d="M134.168 50.8289L134.94 63.3898C134.94 63.3898 139.946 68.0613 145.832 64.2772L147.646 47.9473L134.168 50.8289Z" fill="#FFA283"/>
<path opacity="0.68" d="M134.557 57.159C138.5 57.8891 143.203 55.9904 147.135 52.5454L147.646 47.9473L134.168 50.8289L134.557 57.159Z" fill="#FF7F4C"/>
<path d="M134.572 31.45C134.572 31.45 123.741 45.8392 129.472 52.2512C135.203 58.6628 146.984 53.3863 152.428 44.5346C157.872 35.6828 136.387 24.9765 134.572 31.45Z" fill="#FFA283"/>
<path d="M146.289 35.7274C146.289 35.7274 150.577 35.6025 149.132 39.6348C147.687 43.6671 144.721 45.1785 146.44 46.6691C147.622 47.6938 147.123 49.9613 146.696 51.278C146.475 51.9588 146.48 52.6905 146.735 53.3599L146.769 53.449C147.334 54.9369 148.884 55.8356 150.489 55.6045C154.396 55.042 160.847 52.7211 159.91 43.4579C159.91 43.4579 162.816 37.3021 159.278 32.9261C155.74 28.5499 153.299 29.0757 153.299 29.0757C153.299 29.0757 151.867 24.8304 148.173 24.0289C144.479 23.2275 133.617 20.1732 132.801 25.9516C131.984 31.7295 137.43 35.6112 146.289 35.7274Z" fill="#691B00"/>
<path d="M145.578 42.9639C145.871 42.7941 150.065 40.583 150.848 42.9404C151.575 45.1279 150.967 48.6159 147.871 48.7978C144.776 48.9797 141.807 45.1434 145.578 42.9639Z" fill="#FFA283"/>
<path d="M156.357 90.2974C156.357 90.2974 151.189 92.0719 150.94 94.2818C150.692 96.4917 156.977 93.8578 155.772 94.8024C154.569 95.7464 149.955 96.5713 150.25 98.1568C150.81 101.164 155.876 97.2717 156.825 98.43C157.774 99.589 152.886 100.13 152.745 101.383C152.604 102.636 156.834 101.979 158.187 101.869C159.541 101.758 157.74 92.6831 156.357 90.2974Z" fill="#FFA283"/>
</g>
</g>
<defs>
<filter id="filter0_d_6001_545" x="-12" y="0" width="225.428" height="151" filterUnits="userSpaceOnUse" color-interpolation-filters="sRGB">
<feFlood flood-opacity="0" result="BackgroundImageFix"/>
<feColorMatrix in="SourceAlpha" type="matrix" values="0 0 0 0 0 0 0 0 0 0 0 0 0 0 0 0 0 0 127 0" result="hardAlpha"/>
<feOffset dy="4"/>
<feGaussianBlur stdDeviation="6"/>
<feComposite in2="hardAlpha" operator="out"/>
<feColorMatrix type="matrix" values="0 0 0 0 0.905882 0 0 0 0 0.913725 0 0 0 0 0.92549 0 0 0 0.3 0"/>
<feBlend mode="normal" in2="BackgroundImageFix" result="effect1_dropShadow_6001_545"/>
<feBlend mode="normal" in="SourceGraphic" in2="effect1_dropShadow_6001_545" result="shape"/>
</filter>
<clipPath id="clip0_6001_545">
<rect width="201.428" height="127" fill="white" transform="translate(0 8)"/>
</clipPath>
</defs>
</svg>
