<svg width="200" height="127" viewBox="0 0 200 127" fill="none" xmlns="http://www.w3.org/2000/svg">
<g filter="url(#filter0_d_6001_995)">
<g clip-path="url(#clip0_6001_995)">
<path d="M147.361 71.6122C147.662 71.9473 147.953 72.2868 148.235 72.6308C148.518 72.9747 148.79 73.323 149.053 73.6757C149.317 74.0285 149.571 74.3855 149.815 74.747C150.06 75.1085 150.295 75.4744 150.52 75.8447C150.746 76.215 150.962 76.5897 151.169 76.9688C151.376 77.3479 151.574 77.7314 151.762 78.1193C151.95 78.5071 152.128 78.8994 152.298 79.2961C152.467 79.6928 152.627 80.0938 152.777 80.4994C152.928 80.9049 153.069 81.3148 153.201 81.7291C153.332 82.1434 153.454 82.562 153.567 82.9851C153.68 83.4082 153.784 83.8357 153.878 84.2675C153.972 84.6993 154.056 85.1355 154.131 85.5762C154.207 86.0169 154.272 86.4618 154.329 86.9114C154.385 87.3609 154.432 87.8147 154.47 88.273C154.508 88.7312 154.536 89.1938 154.555 89.6609C154.573 90.1279 154.583 90.5994 154.583 91.0751C154.583 91.4635 154.576 91.8501 154.562 92.235C154.549 92.6198 154.529 93.0029 154.501 93.3842C154.474 93.7655 154.44 94.145 154.4 94.5226C154.359 94.9004 154.312 95.2764 154.257 95.6506C154.203 96.0247 154.142 96.3972 154.075 96.7679C154.007 97.1387 153.932 97.5075 153.851 97.8746C153.77 98.2417 153.681 98.6071 153.587 98.9706C153.492 99.3342 153.39 99.6961 153.282 100.056C153.173 100.416 153.058 100.774 152.936 101.131C152.814 101.487 152.685 101.842 152.55 102.195C152.415 102.548 152.272 102.899 152.123 103.249C151.974 103.598 151.818 103.946 151.656 104.292C151.493 104.638 151.324 104.982 151.148 105.325C150.972 105.667 150.789 106.008 150.599 106.347C150.409 106.685 150.213 107.023 150.01 107.358C149.806 107.693 149.597 108.027 149.38 108.359C149.163 108.691 148.939 109.019 148.708 109.343C148.477 109.667 148.239 109.987 147.994 110.303C147.748 110.619 147.496 110.93 147.237 111.238C146.977 111.546 146.711 111.85 146.438 112.15C146.164 112.45 145.884 112.746 145.596 113.037C145.308 113.329 145.014 113.617 144.712 113.901C144.41 114.185 144.102 114.464 143.786 114.74C143.47 115.016 143.147 115.288 142.817 115.555C142.487 115.823 142.15 116.087 141.805 116.346C141.461 116.606 141.11 116.862 140.752 117.113C140.393 117.365 140.028 117.613 139.656 117.856C139.283 118.1 138.904 118.339 138.517 118.575C138.13 118.811 137.737 119.042 137.336 119.27C136.935 119.497 136.527 119.721 136.112 119.94C135.698 120.16 135.276 120.375 134.847 120.587C134.418 120.798 133.981 121.005 133.538 121.209C133.095 121.412 132.645 121.609 132.189 121.8C131.732 121.991 131.269 122.175 130.799 122.353C130.33 122.531 129.854 122.703 129.371 122.868C128.888 123.034 128.399 123.193 127.903 123.345C127.407 123.498 126.905 123.644 126.396 123.784C125.887 123.924 125.371 124.057 124.849 124.185C124.327 124.312 123.798 124.433 123.263 124.547C122.727 124.662 122.185 124.77 121.637 124.872C121.089 124.974 120.534 125.069 119.972 125.158C119.41 125.247 118.842 125.33 118.268 125.406C117.693 125.483 117.112 125.553 116.524 125.616C115.936 125.68 115.342 125.737 114.74 125.788C114.139 125.839 113.532 125.884 112.918 125.922C112.304 125.96 111.683 125.992 111.056 126.017C110.428 126.043 109.795 126.062 109.154 126.075C108.514 126.087 107.867 126.094 107.213 126.094C106.734 126.094 106.256 126.09 105.777 126.083C105.299 126.076 104.821 126.065 104.343 126.051C103.865 126.037 103.388 126.02 102.911 125.999C102.434 125.977 101.957 125.953 101.48 125.925C101.004 125.896 100.528 125.865 100.052 125.829C99.576 125.794 99.1005 125.755 98.6253 125.713C98.15 125.671 97.6751 125.625 97.2005 125.576C96.7259 125.527 96.2515 125.474 95.7775 125.417C95.3035 125.361 94.8297 125.301 94.3564 125.238C93.883 125.174 93.41 125.107 92.9372 125.037C92.4644 124.966 91.9919 124.893 91.5198 124.815C91.0477 124.738 90.5758 124.657 90.1042 124.572C89.6327 124.487 89.1614 124.399 88.6905 124.308C88.2196 124.216 87.7489 124.121 87.2786 124.023C86.8083 123.924 86.3383 123.822 85.8685 123.716C85.3987 123.61 84.9294 123.501 84.4603 123.388C83.991 123.276 83.5257 123.16 83.0643 123.041C82.603 122.923 82.1455 122.801 81.692 122.677C81.2385 122.552 80.789 122.425 80.3435 122.295C79.898 122.164 79.4564 122.031 79.0187 121.895C78.5811 121.759 78.1474 121.62 77.7176 121.477C77.2879 121.335 76.862 121.19 76.4402 121.042C76.0183 120.894 75.6004 120.744 75.1865 120.59C74.7726 120.436 74.3625 120.279 73.9564 120.119C73.5503 119.96 73.1483 119.797 72.7501 119.632C72.352 119.466 71.9577 119.297 71.5674 119.126C71.1772 118.955 70.7908 118.78 70.4085 118.603C70.0261 118.426 69.6476 118.245 69.2732 118.062C68.8987 117.879 68.5282 117.693 68.1616 117.504C67.7951 117.315 67.4324 117.123 67.0736 116.928C66.7149 116.733 66.3602 116.535 66.0094 116.335C65.6586 116.134 65.3117 115.93 64.9688 115.724L65.6676 114.324L66.3664 112.924L67.0653 111.525L67.7641 110.125L68.463 108.725L69.1618 107.326L69.8607 105.926L70.5595 104.526L71.2584 103.127L71.9572 101.727L72.6561 100.328L73.3549 98.9279L74.0537 97.5282L74.7526 96.1286L75.4514 94.7289L76.1503 93.3293C76.4155 93.5047 76.6829 93.6776 76.9525 93.8478C77.222 94.0182 77.4936 94.186 77.7674 94.3511C78.0411 94.5163 78.317 94.6789 78.595 94.8391C78.873 94.9992 79.1532 95.1568 79.4354 95.3118C79.7177 95.4668 80.0021 95.6193 80.2886 95.7691C80.5751 95.919 80.8637 96.0665 81.1545 96.2113C81.4453 96.3561 81.7382 96.4984 82.0333 96.6381C82.3284 96.7778 82.6254 96.9149 82.9248 97.0496C83.2241 97.1842 83.5255 97.3162 83.8291 97.4457C84.1327 97.5753 84.4383 97.7022 84.7461 97.8267C85.0538 97.9511 85.3638 98.073 85.6758 98.1923C85.9879 98.3117 86.302 98.4285 86.6184 98.5427C86.9347 98.657 87.2532 98.7687 87.5737 98.8779C87.8942 98.9871 88.217 99.0937 88.5418 99.1978C88.8666 99.3019 89.1935 99.4034 89.5227 99.5024C89.8518 99.6014 90.183 99.6978 90.5164 99.7917C90.8495 99.8856 91.1825 99.9767 91.5151 100.065C91.8478 100.153 92.18 100.238 92.512 100.32C92.8441 100.402 93.1758 100.482 93.5072 100.558C93.8385 100.634 94.1696 100.708 94.5004 100.778C94.8313 100.849 95.1617 100.916 95.4919 100.981C95.8221 101.045 96.152 101.107 96.4815 101.166C96.8111 101.224 97.1404 101.28 97.4695 101.333C97.7985 101.386 98.1272 101.436 98.4556 101.483C98.7839 101.53 99.112 101.574 99.4398 101.615C99.7677 101.656 100.095 101.694 100.422 101.729C100.749 101.764 101.076 101.797 101.403 101.826C101.73 101.855 102.056 101.882 102.382 101.905C102.708 101.929 103.034 101.949 103.359 101.967C103.685 101.984 104.01 101.999 104.335 102.011C104.659 102.022 104.984 102.031 105.308 102.037C105.633 102.043 105.957 102.046 106.28 102.046C106.61 102.046 106.936 102.042 107.258 102.035C107.579 102.027 107.896 102.016 108.21 102.001C108.523 101.986 108.831 101.968 109.136 101.946C109.44 101.923 109.741 101.897 110.037 101.868C110.333 101.838 110.625 101.805 110.912 101.767C111.2 101.73 111.483 101.689 111.762 101.645C112.041 101.6 112.316 101.552 112.587 101.5C112.857 101.448 113.124 101.392 113.386 101.333C113.648 101.273 113.906 101.21 114.159 101.143C114.413 101.076 114.662 101.005 114.907 100.931C115.152 100.857 115.393 100.779 115.63 100.697C115.866 100.615 116.099 100.53 116.327 100.44C116.555 100.351 116.779 100.258 116.998 100.162C117.218 100.065 117.433 99.9647 117.645 99.8605C117.856 99.7564 118.063 99.6485 118.265 99.5369C118.468 99.4254 118.666 99.3101 118.86 99.1911C119.055 99.0723 119.243 98.9501 119.425 98.825C119.607 98.6999 119.783 98.5716 119.952 98.4401C120.122 98.3086 120.286 98.1741 120.444 98.0363C120.602 97.8986 120.753 97.7578 120.899 97.6138C121.044 97.4698 121.184 97.3226 121.317 97.1723C121.451 97.022 121.578 96.8686 121.7 96.7121C121.821 96.5555 121.936 96.3959 122.046 96.2331C122.155 96.0702 122.258 95.9043 122.355 95.7352C122.452 95.5662 122.543 95.394 122.628 95.2185C122.713 95.0432 122.792 94.8646 122.865 94.683C122.937 94.5014 123.004 94.3165 123.065 94.1287C123.126 93.9408 123.18 93.7497 123.229 93.5556C123.277 93.3613 123.32 93.1641 123.356 92.9636C123.393 92.7631 123.423 92.5596 123.447 92.3528C123.472 92.146 123.49 91.9361 123.502 91.7232C123.514 91.5102 123.52 91.294 123.52 91.0747C123.52 90.6489 123.499 90.2366 123.455 89.8374C123.412 89.4382 123.347 89.0523 123.26 88.6797C123.174 88.3071 123.066 87.9479 122.936 87.6019C122.806 87.2559 122.655 86.9233 122.481 86.6039C122.308 86.2846 122.114 85.9785 121.897 85.6858C121.681 85.393 121.443 85.1136 121.183 84.8475C120.923 84.5813 120.642 84.3285 120.339 84.089C120.036 83.8495 119.712 83.6233 119.365 83.4104C119.019 83.1975 118.651 82.9979 118.262 82.8115C117.872 82.6252 117.461 82.4522 117.028 82.2924C116.596 82.1327 116.141 81.9863 115.665 81.8531C115.189 81.7201 114.691 81.6003 114.172 81.4939C113.653 81.3874 113.112 81.2943 112.549 81.2144C111.987 81.1346 111.402 81.0681 110.797 81.0148C110.191 80.9616 109.563 80.9217 108.914 80.8951C108.265 80.8685 107.594 80.8552 106.902 80.8552H106.096H105.291H104.485H103.679H102.874H102.068H101.262H100.456H99.6508H98.8451H98.0394H97.2337H96.428H95.6223H94.8167H94.011V79.6811V78.507V77.3329V76.1588V74.9847V73.8106V72.6365V71.4624V70.2883V69.1142V67.9401V66.7661V65.592V64.4179V63.2438V62.0697L95.2243 60.8015L96.4377 59.5334L97.6511 58.2652L98.8644 56.9971L100.078 55.7289L101.291 54.4608L102.504 53.1926L103.718 51.9245L104.931 50.6563L106.145 49.3882L107.358 48.12L108.571 46.8519L109.785 45.5837L110.998 44.3156L112.211 43.0474L113.425 41.7793H110.746H108.066H105.387H102.708H100.029H97.3498H94.6707H91.9915H89.3124H86.6332H83.9541H81.2762H78.5971H75.918H73.2389H70.5598V40.3422V38.905V37.4679V36.0308V34.5936V33.1563V31.7191V30.282V28.8449V27.4077V25.9705V24.5334V23.0962V21.659V20.2219V18.7847H75.4714H80.3832H85.2949H90.2067H95.1184H100.03H104.942H109.854H114.765H119.677H124.589H129.501H134.412H139.324H144.236H149.148V19.9494V21.1141V22.2788V23.4435V24.6082V25.7729V26.9376V28.1023V29.267V30.4317V31.5964V32.7611V33.9258V35.0905V36.2552V37.4199L147.74 38.8853L146.333 40.3505L144.925 41.8159L143.518 43.2813L142.11 44.7467L140.703 46.2121L139.295 47.6775L137.888 49.1428L136.48 50.6082L135.073 52.0735L133.665 53.5389L132.258 55.0041L130.85 56.4695L129.443 57.9348L128.036 59.4002L126.628 60.8656C127.191 60.9783 127.746 61.0981 128.292 61.2247C128.839 61.3514 129.377 61.485 129.908 61.6256C130.438 61.7662 130.96 61.9137 131.474 62.0681C131.988 62.2226 132.493 62.384 132.991 62.5522C133.488 62.7205 133.977 62.8959 134.459 63.0781C134.94 63.2603 135.413 63.4495 135.877 63.6456C136.342 63.8417 136.799 64.0448 137.247 64.2548C137.695 64.4648 138.135 64.6818 138.567 64.9056C138.999 65.1295 139.423 65.3604 139.839 65.5981C140.254 65.8359 140.661 66.0805 141.061 66.3323C141.46 66.5839 141.851 66.8425 142.234 67.1081C142.616 67.3736 142.991 67.6461 143.358 67.9255C143.724 68.205 144.082 68.4913 144.432 68.7846C144.782 69.0778 145.124 69.3782 145.458 69.6852C145.792 69.9925 146.117 70.3065 146.434 70.6275C146.751 70.9492 147.06 71.2772 147.361 71.6122Z" fill="#84CAE8"/>
<path d="M141.021 65.2714C141.322 65.6065 141.613 65.9459 141.895 66.29C142.177 66.6338 142.45 66.9822 142.713 67.3349C142.977 67.6877 143.231 68.0447 143.475 68.4062C143.72 68.7677 143.955 69.1336 144.18 69.5038C144.406 69.8742 144.622 70.2489 144.829 70.628C145.036 71.0071 145.233 71.3906 145.422 71.7785C145.61 72.1663 145.788 72.5586 145.958 72.9553C146.127 73.352 146.287 73.753 146.437 74.1586C146.588 74.5641 146.729 74.9739 146.86 75.3883C146.992 75.8026 147.114 76.2212 147.227 76.6443C147.34 77.0673 147.443 77.4949 147.537 77.9267C147.632 78.3585 147.716 78.7948 147.791 79.2354C147.866 79.6759 147.932 80.121 147.989 80.5704C148.045 81.0199 148.092 81.4737 148.13 81.932C148.167 82.3903 148.196 82.8529 148.215 83.3199C148.233 83.7869 148.243 84.2584 148.243 84.7342C148.243 85.1225 148.236 85.5092 148.222 85.894C148.209 86.2789 148.188 86.6619 148.161 87.0432C148.134 87.4245 148.1 87.804 148.06 88.1818C148.019 88.5596 147.972 88.9356 147.917 89.3097C147.863 89.6839 147.802 90.0563 147.734 90.4271C147.667 90.7977 147.592 91.1666 147.511 91.5337C147.43 91.9008 147.341 92.2662 147.247 92.6298C147.152 92.9934 147.05 93.3553 146.942 93.7153C146.833 94.0754 146.718 94.4336 146.596 94.7901C146.474 95.1467 146.345 95.5014 146.21 95.8544C146.074 96.2074 145.932 96.5586 145.783 96.9081C145.634 97.2576 145.478 97.6052 145.316 97.9512C145.153 98.2972 144.984 98.6413 144.808 98.9837C144.631 99.3262 144.449 99.6668 144.259 100.006C144.069 100.345 143.873 100.682 143.67 101.017C143.466 101.353 143.256 101.686 143.04 102.018C142.823 102.35 142.599 102.678 142.368 103.002C142.137 103.326 141.899 103.646 141.654 103.962C141.408 104.278 141.156 104.59 140.897 104.898C140.637 105.206 140.371 105.509 140.098 105.809C139.824 106.109 139.544 106.405 139.256 106.697C138.968 106.989 138.674 107.276 138.372 107.56C138.07 107.844 137.762 108.124 137.446 108.399C137.13 108.675 136.807 108.947 136.477 109.215C136.147 109.482 135.81 109.746 135.465 110.006C135.121 110.265 134.77 110.521 134.412 110.773C134.053 111.024 133.688 111.272 133.316 111.515C132.943 111.759 132.564 111.999 132.177 112.234C131.79 112.47 131.397 112.701 130.996 112.929C130.595 113.156 130.187 113.38 129.773 113.599C129.358 113.819 128.936 114.034 128.507 114.246C128.078 114.457 127.641 114.665 127.198 114.868C126.755 115.071 126.305 115.269 125.849 115.459C125.392 115.65 124.929 115.834 124.459 116.012C123.99 116.19 123.514 116.362 123.031 116.527C122.548 116.693 122.059 116.852 121.563 117.004C121.067 117.157 120.565 117.303 120.056 117.443C119.547 117.583 119.031 117.717 118.509 117.844C117.987 117.971 117.458 118.092 116.923 118.207C116.387 118.321 115.845 118.429 115.297 118.531C114.749 118.633 114.193 118.728 113.632 118.817C113.07 118.906 112.502 118.989 111.928 119.065C111.353 119.142 110.772 119.212 110.184 119.275C109.596 119.339 109.002 119.396 108.401 119.447C107.8 119.498 107.192 119.543 106.578 119.581C105.964 119.619 105.343 119.651 104.716 119.676C104.088 119.702 103.455 119.721 102.814 119.734C102.174 119.747 101.527 119.753 100.873 119.753C100.394 119.753 99.9156 119.749 99.4372 119.742C98.9589 119.735 98.4809 119.725 98.0031 119.711C97.5254 119.696 97.048 119.679 96.5709 119.658C96.0938 119.637 95.617 119.612 95.1404 119.584C94.6639 119.556 94.1877 119.524 93.712 119.489C93.2361 119.453 92.7606 119.415 92.2853 119.372C91.8101 119.33 91.3351 119.284 90.8605 119.235C90.3859 119.186 89.9116 119.133 89.4376 119.077C88.9637 119.02 88.4899 118.96 88.0166 118.897C87.5432 118.833 87.0701 118.767 86.5974 118.696C86.1246 118.626 85.6521 118.552 85.18 118.474C84.7078 118.397 84.236 118.316 83.7644 118.231C83.2928 118.147 82.8216 118.059 82.3507 117.967C81.8797 117.875 81.409 117.78 80.9388 117.682C80.4685 117.583 79.9984 117.481 79.5287 117.375C79.0589 117.27 78.5895 117.16 78.1204 117.048C77.6512 116.935 77.1858 116.819 76.7244 116.701C76.2631 116.582 75.8056 116.461 75.3522 116.336C74.8987 116.212 74.4491 116.084 74.0036 115.954C73.5581 115.824 73.1166 115.69 72.6789 115.554C72.2412 115.418 71.8076 115.279 71.3777 115.137C70.948 114.995 70.5222 114.85 70.1003 114.702C69.6784 114.554 69.2606 114.403 68.8466 114.249C68.4327 114.095 68.0227 113.938 67.6166 113.779C67.2105 113.619 66.8084 113.456 66.4103 113.291C66.0121 113.125 65.6179 112.957 65.2276 112.785C64.8374 112.614 64.451 112.439 64.0686 112.262C63.6862 112.085 63.3078 111.905 62.9334 111.722C62.5589 111.538 62.1884 111.352 61.8218 111.163C61.4552 110.974 61.0925 110.782 60.7338 110.587C60.375 110.393 60.0203 110.195 59.6695 109.994C59.3187 109.793 58.9719 109.59 58.6289 109.383L59.3278 107.983L60.0266 106.584L60.7254 105.184L61.4243 103.784L62.1231 102.385L62.822 100.985L63.5208 99.5854L64.2197 98.1858L64.9185 96.7861L65.6174 95.3865L66.3162 93.9868L67.0151 92.5872L67.7139 91.1875L68.4127 89.7879L69.1116 88.3882L69.8104 86.9886C70.0757 87.164 70.3431 87.3369 70.6126 87.5071C70.8821 87.6775 71.1537 87.8451 71.4276 88.0104C71.7014 88.1756 71.9772 88.3382 72.2552 88.4983C72.5332 88.6584 72.8132 88.816 73.0956 88.971C73.3779 89.1259 73.6623 89.2784 73.9487 89.4283C74.2352 89.5782 74.5239 89.7256 74.8147 89.8704C75.1055 90.0152 75.3983 90.1576 75.6934 90.2973C75.9884 90.437 76.2856 90.5741 76.5848 90.7087C76.8841 90.8434 77.1856 90.9754 77.489 91.1049C77.7926 91.2345 78.0982 91.3614 78.406 91.4859C78.7137 91.6103 79.0237 91.7322 79.3357 91.8515C79.6478 91.9709 79.9619 92.0876 80.2783 92.2019C80.5946 92.3162 80.9131 92.4279 81.2336 92.5371C81.5541 92.6463 81.8769 92.7528 82.2017 92.8569C82.5265 92.961 82.8534 93.0625 83.1826 93.1615C83.5117 93.2606 83.8429 93.357 84.1762 93.4509C84.5094 93.5448 84.8424 93.6359 85.175 93.7239C85.5077 93.812 85.8399 93.8972 86.1719 93.9794C86.5039 94.0616 86.8357 94.1409 87.167 94.2172C87.4984 94.2935 87.8295 94.367 88.1603 94.4374C88.4912 94.5078 88.8216 94.5754 89.1518 94.64C89.482 94.7046 89.8119 94.7663 90.1414 94.825C90.471 94.8837 90.8004 94.9395 91.1294 94.9922C91.4584 95.0451 91.7871 95.095 92.1155 95.142C92.4438 95.1889 92.7719 95.2329 93.0997 95.274C93.4276 95.3151 93.755 95.3532 94.0823 95.3884C94.4095 95.4236 94.7364 95.4559 95.0631 95.4852C95.3897 95.5146 95.716 95.5409 96.042 95.5644C96.368 95.5879 96.6938 95.6084 97.0193 95.626C97.3447 95.6436 97.6698 95.6582 97.9947 95.6699C98.3195 95.6817 98.6441 95.6905 98.9684 95.6963C99.2927 95.7022 99.6166 95.7052 99.9403 95.7052C100.27 95.7052 100.596 95.7014 100.918 95.6941C101.239 95.6866 101.556 95.6754 101.87 95.6607C102.183 95.6458 102.491 95.6273 102.796 95.605C103.1 95.5827 103.401 95.5567 103.697 95.527C103.993 95.4972 104.285 95.4638 104.572 95.4266C104.86 95.3895 105.143 95.3486 105.422 95.304C105.701 95.2594 105.976 95.2111 106.247 95.1591C106.517 95.107 106.784 95.0513 107.046 94.9918C107.308 94.9323 107.566 94.8692 107.819 94.8023C108.073 94.7354 108.322 94.6648 108.567 94.5904C108.812 94.5161 109.053 94.4381 109.29 94.3563C109.526 94.2745 109.759 94.189 109.987 94.0998C110.215 94.0105 110.439 93.9177 110.658 93.821C110.878 93.7243 111.093 93.6239 111.305 93.5198C111.516 93.4157 111.723 93.3078 111.925 93.1962C112.128 93.0847 112.326 92.9694 112.52 92.8504C112.714 92.7316 112.903 92.6095 113.084 92.4844C113.266 92.3593 113.442 92.2309 113.612 92.0994C113.782 91.9679 113.946 91.8334 114.104 91.6956C114.261 91.5579 114.413 91.4171 114.559 91.2731C114.704 91.1291 114.844 90.9819 114.977 90.8318C115.111 90.6815 115.238 90.5281 115.36 90.3715C115.481 90.215 115.596 90.0553 115.705 89.8925C115.815 89.7297 115.918 89.5637 116.015 89.3947C116.112 89.2256 116.203 89.0534 116.288 88.8779C116.373 88.7026 116.452 88.524 116.525 88.3424C116.597 88.1608 116.664 87.976 116.725 87.7881C116.785 87.6003 116.84 87.4091 116.889 87.2149C116.937 87.0207 116.98 86.8234 117.016 86.6229C117.053 86.4224 117.083 86.2189 117.107 86.0121C117.131 85.8053 117.15 85.5954 117.162 85.3825C117.174 85.1695 117.18 84.9533 117.18 84.734C117.18 84.3082 117.158 83.8957 117.115 83.4967C117.072 83.0975 117.007 82.7116 116.92 82.3392C116.834 81.9666 116.726 81.6073 116.596 81.2613C116.466 80.9154 116.314 80.5827 116.141 80.2634C115.968 79.944 115.773 79.638 115.557 79.3452C115.341 79.0525 115.103 78.773 114.843 78.5069C114.583 78.2408 114.302 77.988 113.999 77.7485C113.696 77.5089 113.371 77.2827 113.025 77.0698C112.679 76.8569 112.311 76.6573 111.922 76.4709C111.532 76.2846 111.121 76.1116 110.688 75.9518C110.255 75.7922 109.801 75.6458 109.325 75.5126C108.849 75.3795 108.351 75.2598 107.832 75.1533C107.313 75.0469 106.772 74.9537 106.209 74.8738C105.646 74.7939 105.062 74.7274 104.456 74.6742C103.851 74.6209 103.223 74.581 102.574 74.5544C101.925 74.5278 101.254 74.5145 100.562 74.5145H99.757H98.9513H98.1456H97.3399H96.5342H95.7285H94.9228H94.1172H93.3115H92.5058H91.7001H90.8944H90.0887H89.283H88.4773H87.6717V73.3404V72.1663V70.9922V69.8181V68.644V67.4699V66.2958V65.1217V63.9476V62.7736V61.5995V60.4254V59.2513V58.0772V56.9031V55.729L88.885 54.4608L90.0984 53.1927L91.3117 51.9245L92.5251 50.6564L93.7385 49.3882L94.9518 48.1201L96.1652 46.8519L97.3785 45.5838L98.5919 44.3156L99.8052 43.0475L101.019 41.7793L102.232 40.5112L103.445 39.243L104.659 37.9749L105.872 36.7067L107.085 35.4386H104.406H101.727H99.048H96.3688H93.6897H91.0105H88.3314H85.6522H82.9731H80.2939H77.6148H74.9356H72.2565H69.5773H66.8982H64.219V34.0014V32.5643V31.1271V29.69V28.2527V26.8155V25.3784V23.9413V22.5041V21.0669V19.6297V18.1926V16.7554V15.3183V13.8811V12.4438H69.1308H74.0424H78.9541H83.8659H88.7776H93.6893H98.6009H103.513H108.424H113.336H118.248H123.16H128.071H132.983H137.895H142.807V13.6085V14.7733V15.9379V17.1026V18.2673V19.432V20.5967V21.7614V22.9262V24.0908V25.2555V26.4202V27.5849V28.7496V29.9143V31.0791L141.399 32.5444L139.992 34.0098L138.584 35.4752L137.177 36.9406L135.769 38.406L134.362 39.8714L132.954 41.3368L131.547 42.8022L130.139 44.2676L128.732 45.733L127.324 47.1983L125.917 48.6637L124.509 50.1291L123.102 51.5945L121.694 53.0599L120.287 54.5255C120.85 54.6383 121.405 54.758 121.951 54.8847C122.498 55.0114 123.036 55.1449 123.567 55.2856C124.097 55.4261 124.619 55.5736 125.133 55.7281C125.647 55.8825 126.152 56.0439 126.65 56.2122C127.147 56.3805 127.636 56.5558 128.118 56.7381C128.599 56.9203 129.072 57.1095 129.536 57.3055C130.001 57.5016 130.458 57.7047 130.906 57.9148C131.354 58.1248 131.794 58.3417 132.226 58.5656C132.658 58.7895 133.082 59.0204 133.498 59.2581C133.913 59.4959 134.32 59.7405 134.72 59.9923C135.119 60.2439 135.51 60.5025 135.893 60.7681C136.276 61.0335 136.65 61.3061 137.017 61.5855C137.383 61.8649 137.741 62.1513 138.091 62.4445C138.441 62.7378 138.783 63.0381 139.117 63.3452C139.451 63.6524 139.776 63.9664 140.093 64.2875C140.411 64.6085 140.72 64.9365 141.021 65.2714Z" fill="#1E447E"/>
<path fill-rule="evenodd" clip-rule="evenodd" d="M151.15 125.103C149.642 125.103 148.135 125.103 146.627 125.103C146.617 125.103 146.606 125.103 146.596 125.104C146.081 125.164 146.02 124.811 146.231 124.464C146.548 123.944 146.833 123.405 147.132 122.874C157.614 104.27 168.095 85.6659 178.576 67.062C178.805 66.6569 179.026 66.2484 179.256 65.8441C179.357 65.6657 179.46 65.4861 179.583 65.3227C179.641 65.2458 179.741 65.1912 179.833 65.152C180.28 64.9621 180.728 64.7766 181.18 64.6003C181.27 64.565 181.38 64.5625 181.479 64.5696C181.662 64.5827 181.843 64.6323 182.026 64.6351C184.834 64.6778 187.643 64.7155 190.451 64.7542C190.462 64.7544 190.472 64.7544 190.482 64.7547C191.005 64.7661 191.182 65.0685 190.924 65.5376C190.348 66.5879 189.762 67.6331 189.179 68.6802C181.34 82.7709 173.501 96.8617 165.662 110.952C163.317 115.168 160.97 119.383 158.624 123.598C158.549 123.734 158.457 123.864 158.406 124.008C158.326 124.238 158.169 124.344 157.945 124.416C157.346 124.607 156.755 124.823 156.159 125.023C156.044 125.061 155.918 125.087 155.797 125.087C154.423 125.094 153.05 125.095 151.677 125.097C151.501 125.097 151.326 125.097 151.15 125.097C151.15 125.099 151.15 125.101 151.15 125.103ZM188.214 65.7032C188.015 65.7032 187.883 65.7003 187.751 65.7037C186.389 65.7386 185.026 65.7734 183.663 65.8104C182.486 65.8424 181.31 65.8799 180.133 65.9076C179.961 65.9116 179.842 65.953 179.764 66.1188C179.68 66.2955 179.566 66.4577 179.47 66.6287C175.695 73.3372 171.922 80.0469 168.145 86.7543C162.954 95.9736 157.76 105.191 152.567 114.409C150.721 117.686 148.875 120.963 147.03 124.24C146.977 124.333 146.932 124.431 146.86 124.573C147.055 124.573 147.187 124.574 147.32 124.573C149.953 124.547 152.587 124.523 155.22 124.494C155.768 124.488 155.624 124.569 155.88 124.108C158.535 119.319 161.187 114.529 163.839 109.739C166.096 105.663 168.352 101.586 170.609 97.5099C173.927 91.5173 177.244 85.5245 180.563 79.5324C183.046 75.0496 185.53 70.5676 188.013 66.085C188.071 65.9786 188.126 65.8698 188.214 65.7032ZM157.825 123.671C157.908 123.625 157.932 123.62 157.94 123.605C168.682 104.294 179.422 84.9813 190.162 65.6687C190.181 65.6332 190.194 65.5937 190.208 65.5553C190.211 65.547 190.206 65.5348 190.203 65.5253C190.199 65.517 190.192 65.5101 190.167 65.475C189.869 65.5235 189.556 65.5825 189.241 65.623C189.009 65.6529 188.84 65.741 188.75 65.9745C188.695 66.1176 188.6 66.245 188.525 66.3806C186.303 70.3933 184.08 74.4062 181.858 78.419C180.832 80.2718 179.806 82.1247 178.78 83.9774C177.754 85.83 176.715 87.676 175.704 89.5371C174.696 91.394 173.6 93.2025 172.707 95.1238C172.29 96.02 171.75 96.8592 171.254 97.7176C170.976 98.2004 170.659 98.6618 170.384 99.1468C169.518 100.675 168.69 102.223 167.928 103.807C167.099 105.53 166.142 107.186 165.228 108.864C163.883 111.331 162.57 113.815 161.252 116.298C160.187 118.305 159.141 120.323 158.205 122.396C158.087 122.659 157.987 122.931 157.897 123.205C157.854 123.337 157.853 123.483 157.825 123.671Z" fill="white"/>
<path fill-rule="evenodd" clip-rule="evenodd" d="M171.99 110.22C172.059 106.277 173.078 102.857 175.356 99.8629C177.045 97.6429 179.191 96.0335 181.852 95.1494C182.899 94.8012 183.944 94.4341 185.012 94.1578C189.389 93.0247 193.226 94.0477 196.496 97.1612C198.532 99.1001 199.899 101.466 200.706 104.145C202.083 108.717 201.845 113.209 199.875 117.575C198.899 119.738 197.496 121.587 195.608 123.043C193.972 124.305 192.136 125.09 190.081 125.377C188.915 125.541 187.753 125.732 186.577 125.799C184.417 125.922 182.367 125.474 180.432 124.518C177.726 123.183 175.692 121.136 174.21 118.527C173.035 116.459 172.345 114.232 172.107 111.867C172.045 111.251 172.019 110.631 171.99 110.22ZM172.603 108.974C172.592 112.197 172.979 114.288 173.787 116.296C174.927 119.13 176.698 121.472 179.261 123.169C181.007 124.325 182.894 125.043 185.033 125.039C186.616 125.036 188.158 124.801 189.69 124.45C190.272 124.316 190.854 124.183 191.394 123.901C193.181 122.966 194.681 121.692 195.898 120.088C197.942 117.395 198.964 114.331 199.117 110.97C199.223 108.64 198.86 106.375 198.014 104.198C196.945 101.445 195.289 99.1235 192.868 97.4042C189.91 95.3031 186.647 94.5954 183.085 95.3873C182.834 95.4433 182.576 95.4787 182.332 95.557C179.507 96.4627 177.269 98.1748 175.557 100.576C173.543 103.4 172.625 106.579 172.603 108.974ZM186.564 94.4368C186.566 94.4576 186.568 94.4783 186.57 94.499C186.621 94.5051 186.671 94.5133 186.722 94.5172C188.412 94.6469 190.009 95.1064 191.514 95.8825C194.134 97.2345 196.128 99.2414 197.554 101.806C199.412 105.147 200.059 108.731 199.583 112.52C199.315 114.656 198.662 116.668 197.622 118.553C197.066 119.562 196.392 120.488 195.641 121.358C195.47 121.556 195.429 121.786 195.386 122.049C195.629 122.061 195.782 121.935 195.926 121.81C196.286 121.5 196.649 121.192 196.989 120.861C197.284 120.574 197.574 120.276 197.823 119.949C198.571 118.965 199.161 117.888 199.633 116.746C200.794 113.938 201.179 111.018 200.886 108C200.685 105.924 200.153 103.937 199.262 102.051C198.215 99.8373 196.773 97.9347 194.786 96.4793C192.72 94.9654 190.415 94.182 187.836 94.2828C187.409 94.2995 186.98 94.3285 186.564 94.4368Z" fill="white"/>
<path fill-rule="evenodd" clip-rule="evenodd" d="M165.485 80.1575C165.441 83.1309 164.833 85.9617 163.446 88.6074C162.774 89.8888 161.947 91.0633 160.925 92.0824C159.413 93.59 157.639 94.6655 155.558 95.2186C154.475 95.5065 153.368 95.6171 152.263 95.7593C151.486 95.8595 150.706 95.9662 149.924 96.0025C144.864 96.2373 140.89 94.1865 137.899 90.1659C136.354 88.0894 135.44 85.7294 135.049 83.1743C134.404 78.9667 135.171 75.0217 137.377 71.3853C139.127 68.4999 141.556 66.3712 144.706 65.1063C145.735 64.6931 146.801 64.4101 147.9 64.257C147.992 64.2442 148.082 64.2204 148.173 64.2036C148.567 64.1307 148.959 64.0363 149.357 63.9911C149.992 63.9188 150.631 63.8739 151.27 63.8267C153.919 63.6311 156.317 64.3576 158.499 65.8356C160.615 67.2698 162.19 69.1859 163.363 71.4426C164.482 73.5955 165.131 75.8899 165.362 78.3028C165.421 78.9194 165.445 79.5392 165.485 80.1575ZM163.296 80.1535C163.301 78.2399 163.101 76.6963 162.691 75.2558C161.792 72.0913 160.12 69.43 157.502 67.4074C155.266 65.6802 152.727 64.7812 149.899 64.7119C149.428 64.7004 148.96 64.7663 148.489 64.7826C147.674 64.8108 146.873 64.9897 146.09 65.2256C142.981 66.1621 140.487 67.984 138.605 70.6057C135.663 74.7041 134.776 79.2615 135.842 84.1774C136.525 87.3243 138.041 90.0366 140.485 92.157C143.838 95.0655 147.713 96.0835 152.051 95.0725C155.004 94.3844 157.427 92.7778 159.379 90.4764C162.012 87.3726 163.239 83.7426 163.296 80.1535ZM152.484 64.3729C152.519 64.4183 152.524 64.4305 152.531 64.4326C152.611 64.4554 152.69 64.479 152.77 64.4979C153.923 64.7695 155.019 65.1894 156.056 65.7595C158.937 67.3438 161.012 69.6805 162.369 72.6547C163.83 75.8583 164.223 79.2126 163.635 82.6794C163.112 85.7646 161.856 88.5181 159.809 90.8897C159.291 91.4896 158.693 92.0214 158.126 92.578C157.942 92.758 157.765 92.9341 157.708 93.2433C157.846 93.215 157.956 93.2022 158.06 93.1699C158.977 92.8859 159.769 92.3801 160.45 91.7217C161.652 90.5605 162.568 89.1885 163.268 87.6741C164.59 84.8142 165.064 81.8075 164.821 78.6739C164.715 77.2969 164.465 75.9499 164.056 74.6331C163.292 72.1791 162.089 69.9735 160.306 68.1083C158.709 66.4379 156.825 65.2338 154.567 64.6607C153.896 64.4904 153.216 64.3792 152.484 64.3729Z" fill="white"/>
<path fill-rule="evenodd" clip-rule="evenodd" d="M188.213 65.7028C188.125 65.8694 188.071 65.9782 188.012 66.0846C185.529 70.5671 183.045 75.0492 180.562 79.532C177.244 85.5241 173.926 91.5169 170.608 97.5094C168.352 101.586 166.095 105.662 163.838 109.738C161.186 114.529 158.534 119.319 155.879 124.107C155.623 124.568 155.767 124.488 155.22 124.494C152.586 124.522 149.952 124.547 147.319 124.573C147.186 124.574 147.054 124.573 146.859 124.573C146.932 124.431 146.977 124.333 147.029 124.24C148.874 120.962 150.72 117.686 152.566 114.409C157.759 105.191 162.953 95.9731 168.145 86.7539C171.921 80.0465 175.694 73.3367 179.469 66.6283C179.565 66.4573 179.679 66.295 179.763 66.1183C179.842 65.9526 179.96 65.9112 180.132 65.9072C181.309 65.8795 182.485 65.8419 183.662 65.81C185.025 65.7729 186.388 65.7381 187.751 65.7033C187.882 65.6999 188.014 65.7028 188.213 65.7028Z" fill="#84CAE8"/>
<path fill-rule="evenodd" clip-rule="evenodd" d="M157.824 123.671C157.851 123.483 157.852 123.337 157.896 123.205C157.986 122.931 158.086 122.658 158.204 122.395C159.14 120.323 160.186 118.305 161.251 116.297C162.568 113.815 163.882 111.331 165.227 108.863C166.141 107.185 167.098 105.53 167.927 103.806C168.688 102.223 169.517 100.675 170.383 99.1464C170.658 98.6615 170.974 98.2001 171.253 97.7172C171.749 96.8589 172.289 96.0196 172.705 95.1235C173.599 93.2021 174.695 91.3937 175.703 89.5368C176.714 87.6757 177.753 85.8297 178.779 83.977C179.805 82.1243 180.831 80.2715 181.857 78.4187C184.079 74.4058 186.301 70.393 188.524 66.3802C188.599 66.2447 188.694 66.1172 188.749 65.9741C188.838 65.7407 189.007 65.6526 189.24 65.6226C189.555 65.5821 189.868 65.5232 190.166 65.4746C190.191 65.5098 190.198 65.5166 190.201 65.525C190.205 65.5344 190.21 65.5466 190.207 65.5549C190.193 65.5934 190.18 65.6328 190.161 65.6683C179.421 84.981 168.68 104.293 157.939 123.605C157.931 123.619 157.907 123.624 157.824 123.671Z" fill="white"/>
<path fill-rule="evenodd" clip-rule="evenodd" d="M172.602 108.973C172.624 106.579 173.542 103.4 175.556 100.575C177.268 98.1744 179.506 96.4623 182.331 95.5566C182.575 95.4784 182.833 95.4429 183.084 95.3869C186.646 94.595 189.909 95.3027 192.867 97.4038C195.288 99.1231 196.944 101.445 198.013 104.197C198.859 106.375 199.223 108.639 199.116 110.97C198.963 114.33 197.941 117.395 195.897 120.088C194.68 121.691 193.181 122.966 191.393 123.9C190.853 124.182 190.271 124.316 189.69 124.45C188.158 124.801 186.615 125.036 185.032 125.039C182.893 125.043 181.006 124.324 179.26 123.168C176.698 121.472 174.927 119.13 173.786 116.295C172.978 114.288 172.592 112.196 172.602 108.973ZM191.401 110.678C191.406 110.048 191.248 108.905 190.943 107.783C190.55 106.332 189.939 104.985 188.964 103.825C188.282 103.014 187.481 102.353 186.458 102.022C184.919 101.523 183.556 101.882 182.403 102.979C181.438 103.897 180.845 105.053 180.485 106.327C179.867 108.518 179.901 110.715 180.458 112.909C180.828 114.367 181.434 115.716 182.381 116.896C182.911 117.555 183.528 118.113 184.278 118.512C184.822 118.801 185.397 118.989 186.017 119.02C187.105 119.075 188.041 118.699 188.858 118.002C189.562 117.401 190.069 116.652 190.456 115.818C191.133 114.358 191.392 112.811 191.401 110.678Z" fill="#84CAE8"/>
<path fill-rule="evenodd" clip-rule="evenodd" d="M186.564 94.4367C186.98 94.3283 187.409 94.2993 187.836 94.2826C190.415 94.1818 192.72 94.9652 194.786 96.4791C196.773 97.9345 198.215 99.8371 199.262 102.051C200.154 103.937 200.686 105.923 200.887 108C201.179 111.017 200.794 113.938 199.633 116.746C199.161 117.887 198.571 118.965 197.823 119.949C197.575 120.275 197.284 120.573 196.989 120.86C196.649 121.191 196.286 121.5 195.926 121.81C195.782 121.935 195.63 122.06 195.386 122.048C195.429 121.786 195.47 121.556 195.641 121.358C196.392 120.488 197.066 119.562 197.622 118.553C198.662 116.668 199.315 114.656 199.584 112.52C200.059 108.73 199.412 105.146 197.554 101.805C196.128 99.2412 194.135 97.2343 191.514 95.8824C190.009 95.1062 188.412 94.6468 186.722 94.5171C186.671 94.5132 186.621 94.5049 186.57 94.4988C186.568 94.4782 186.566 94.4574 186.564 94.4367Z" fill="white"/>
<path fill-rule="evenodd" clip-rule="evenodd" d="M163.297 80.1534C163.239 83.7425 162.013 87.3724 159.38 90.4763C157.428 92.7777 155.005 94.3842 152.052 95.0724C147.713 96.0834 143.838 95.0654 140.486 92.1569C138.041 90.0365 136.525 87.3242 135.843 84.1773C134.776 79.2614 135.664 74.704 138.605 70.6056C140.487 67.9839 142.981 66.162 146.09 65.2254C146.873 64.9896 147.675 64.8107 148.489 64.7825C148.96 64.7661 149.429 64.7003 149.9 64.7118C152.727 64.7811 155.267 65.6801 157.502 67.4073C160.12 69.4299 161.793 72.0912 162.692 75.2557C163.101 76.6962 163.302 78.2398 163.297 80.1534ZM143.71 79.8573C143.703 81.1163 143.879 82.3502 144.242 83.5549C144.654 84.9258 145.274 86.1881 146.24 87.2607C146.8 87.8821 147.446 88.3883 148.222 88.7163C149.489 89.2525 150.718 89.1627 151.905 88.4747C152.466 88.1497 152.933 87.7139 153.339 87.212C153.924 86.4894 154.363 85.6821 154.645 84.8C155.686 81.5499 155.46 78.3836 153.959 75.3181C153.542 74.4676 152.981 73.7134 152.278 73.0729C151.65 72.5011 150.941 72.0745 150.112 71.8591C149.446 71.6862 148.769 71.6809 148.121 71.8729C147.571 72.0362 147.066 72.3409 146.602 72.6922C145.69 73.3834 145.059 74.2921 144.602 75.3296C143.967 76.7715 143.716 78.2906 143.71 79.8573Z" fill="#84CAE8"/>
<path fill-rule="evenodd" clip-rule="evenodd" d="M152.484 64.373C153.216 64.3793 153.896 64.4906 154.567 64.6609C156.825 65.234 158.709 66.438 160.306 68.1085C162.089 69.9737 163.293 72.1792 164.056 74.6333C164.466 75.95 164.715 77.297 164.821 78.6741C165.064 81.8077 164.591 84.8144 163.268 87.6742C162.568 89.1887 161.652 90.5607 160.45 91.7219C159.769 92.3803 158.977 92.886 158.061 93.17C157.957 93.2024 157.846 93.2152 157.708 93.2434C157.766 92.9342 157.943 92.7581 158.126 92.5781C158.694 92.0216 159.291 91.4897 159.809 90.8898C161.857 88.5183 163.113 85.7647 163.636 82.6795C164.224 79.2128 163.83 75.8585 162.369 72.6549C161.012 69.6806 158.938 67.3439 156.056 65.7596C155.02 65.1896 153.923 64.7697 152.771 64.498C152.69 64.4791 152.611 64.4556 152.532 64.4327C152.524 64.4306 152.52 64.4185 152.484 64.373Z" fill="white"/>
<path fill-rule="evenodd" clip-rule="evenodd" d="M191.402 110.678C191.393 112.811 191.134 114.358 190.456 115.819C190.07 116.652 189.563 117.401 188.859 118.002C188.041 118.699 187.105 119.075 186.017 119.02C185.398 118.989 184.823 118.802 184.279 118.512C183.528 118.113 182.911 117.555 182.382 116.896C181.434 115.716 180.829 114.367 180.459 112.91C179.901 110.715 179.867 108.518 180.486 106.328C180.846 105.053 181.438 103.897 182.404 102.979C183.557 101.882 184.92 101.523 186.458 102.022C187.482 102.354 188.282 103.014 188.964 103.826C189.939 104.986 190.551 106.332 190.944 107.783C191.248 108.905 191.406 110.048 191.402 110.678ZM182.904 108.888C182.941 109.288 182.985 110.083 183.092 110.87C183.269 112.177 183.624 113.438 184.207 114.626C184.551 115.326 184.97 115.975 185.531 116.523C185.928 116.91 186.375 117.22 186.911 117.384C187.865 117.675 188.824 117.337 189.378 116.515C189.808 115.876 190.122 115.181 190.336 114.442C191.01 112.122 190.931 109.808 190.236 107.509C189.855 106.251 189.274 105.093 188.408 104.091C187.958 103.571 187.444 103.127 186.828 102.813C186.025 102.403 185.188 102.268 184.309 102.527C184.239 102.548 184.147 102.594 184.121 102.654C183.951 103.041 183.776 103.428 183.641 103.828C183.129 105.34 182.922 106.901 182.904 108.888ZM187.526 118.091C187.435 118.077 187.345 118.06 187.255 118.05C186.785 117.994 186.356 117.824 185.954 117.582C185.471 117.291 185.065 116.913 184.706 116.48C184.073 115.717 183.622 114.849 183.271 113.927C182.365 111.552 182.249 109.08 182.358 106.577C182.375 106.168 182.312 105.756 182.277 105.346C182.27 105.271 182.22 105.199 182.192 105.129C181.951 105.114 181.801 105.243 181.659 105.378C181.423 105.605 181.269 105.889 181.171 106.195C181.049 106.578 180.935 106.966 180.855 107.359C180.66 108.314 180.604 109.28 180.654 110.255C180.723 111.598 180.99 112.896 181.484 114.144C181.942 115.299 182.565 116.35 183.48 117.207C184.022 117.715 184.632 118.113 185.358 118.305C186.099 118.501 186.824 118.468 187.526 118.091Z" fill="white"/>
<path fill-rule="evenodd" clip-rule="evenodd" d="M143.709 79.8576C143.716 78.291 143.967 76.7718 144.602 75.3299C145.058 74.2924 145.689 73.3838 146.602 72.6925C147.065 72.3412 147.57 72.0366 148.121 71.8732C148.768 71.6812 149.445 71.6866 150.111 71.8594C150.94 72.0748 151.65 72.5015 152.278 73.0732C152.981 73.7137 153.542 74.4679 153.958 75.3184C155.46 78.3839 155.686 81.5502 154.645 84.8003C154.362 85.6824 153.923 86.4897 153.338 87.2123C152.932 87.7142 152.465 88.1501 151.905 88.475C150.718 89.1631 149.489 89.2528 148.221 88.7166C147.446 88.3887 146.799 87.8824 146.239 87.2611C145.274 86.1885 144.654 84.9261 144.241 83.5553C143.879 82.3505 143.703 81.1167 143.709 79.8576ZM146.364 78.5697C146.367 79.7107 146.49 80.8375 146.769 81.9452C147.086 83.2076 147.562 84.4005 148.332 85.4615C148.716 85.9923 149.162 86.4656 149.718 86.8201C150.541 87.3451 151.416 87.5396 152.376 87.2396C152.547 87.1862 152.668 87.1057 152.776 86.977C153.328 86.3214 153.734 85.5816 154.022 84.7784C154.871 82.4155 154.884 80.0236 154.232 77.618C153.885 76.3389 153.333 75.1558 152.48 74.129C151.972 73.5186 151.384 73.0052 150.657 72.671C149.901 72.3241 149.121 72.2143 148.304 72.4258C148.115 72.4749 147.947 72.5532 147.84 72.7086C147.671 72.9534 147.499 73.2031 147.379 73.473C146.655 75.0935 146.366 76.804 146.364 78.5697ZM151.585 87.9777C151.314 87.9542 151.118 87.9496 150.926 87.9184C150.038 87.7745 149.304 87.3319 148.661 86.723C147.992 86.0904 147.482 85.3413 147.083 84.5172C146.031 82.3451 145.67 80.0407 145.818 77.6486C145.853 77.0876 145.856 76.5361 145.743 75.9853C145.711 75.8264 145.659 75.6696 145.492 75.6252C145.311 75.5775 145.164 75.6888 145.071 75.8268C144.974 75.9696 144.899 76.1332 144.845 76.2976C144.167 78.3508 144.122 80.4354 144.572 82.5364C144.874 83.9458 145.41 85.2582 146.284 86.4167C146.762 87.0495 147.323 87.5926 148.018 87.9847C148.722 88.3818 149.474 88.5589 150.281 88.4518C150.724 88.3931 151.14 88.2572 151.585 87.9777Z" fill="white"/>
<path fill-rule="evenodd" clip-rule="evenodd" d="M187.526 118.091C186.824 118.468 186.099 118.501 185.358 118.305C184.632 118.113 184.022 117.715 183.48 117.207C182.565 116.35 181.942 115.298 181.485 114.144C180.99 112.896 180.723 111.598 180.654 110.255C180.604 109.28 180.66 108.314 180.855 107.359C180.935 106.966 181.049 106.578 181.172 106.195C181.269 105.889 181.423 105.605 181.659 105.378C181.801 105.243 181.951 105.113 182.192 105.129C182.22 105.199 182.27 105.271 182.277 105.346C182.312 105.756 182.375 106.168 182.358 106.576C182.249 109.08 182.365 111.552 183.271 113.927C183.622 114.849 184.073 115.717 184.706 116.48C185.065 116.912 185.471 117.291 185.954 117.582C186.356 117.824 186.785 117.993 187.255 118.049C187.345 118.06 187.435 118.077 187.526 118.091Z" fill="white"/>
<path fill-rule="evenodd" clip-rule="evenodd" d="M151.586 87.9775C151.141 88.257 150.724 88.3929 150.282 88.4516C149.474 88.5587 148.723 88.3816 148.019 87.9845C147.324 87.5923 146.762 87.0493 146.285 86.4165C145.41 85.258 144.874 83.9455 144.572 82.5362C144.122 80.4352 144.167 78.3506 144.845 76.2974C144.9 76.133 144.975 75.9693 145.071 75.8266C145.165 75.6886 145.311 75.5773 145.492 75.625C145.66 75.6693 145.711 75.8262 145.744 75.9851C145.857 76.5359 145.853 77.0873 145.818 77.6484C145.67 80.0405 146.032 82.3449 147.083 84.517C147.482 85.3411 147.993 86.0901 148.661 86.7228C149.305 87.3317 150.038 87.7742 150.926 87.9182C151.118 87.9494 151.315 87.9541 151.586 87.9775Z" fill="white"/>
</g>
</g>
<defs>
<filter id="filter0_d_6001_995" x="-12" y="-8" width="225.428" height="151" filterUnits="userSpaceOnUse" color-interpolation-filters="sRGB">
<feFlood flood-opacity="0" result="BackgroundImageFix"/>
<feColorMatrix in="SourceAlpha" type="matrix" values="0 0 0 0 0 0 0 0 0 0 0 0 0 0 0 0 0 0 127 0" result="hardAlpha"/>
<feOffset dy="4"/>
<feGaussianBlur stdDeviation="6"/>
<feComposite in2="hardAlpha" operator="out"/>
<feColorMatrix type="matrix" values="0 0 0 0 0.905882 0 0 0 0 0.913725 0 0 0 0 0.92549 0 0 0 0.3 0"/>
<feBlend mode="normal" in2="BackgroundImageFix" result="effect1_dropShadow_6001_995"/>
<feBlend mode="normal" in="SourceGraphic" in2="effect1_dropShadow_6001_995" result="shape"/>
</filter>
<clipPath id="clip0_6001_995">
<rect width="201.428" height="127" fill="white"/>
</clipPath>
</defs>
</svg>
