<svg width="199" height="127" viewBox="0 0 199 127" fill="none" xmlns="http://www.w3.org/2000/svg">
<g filter="url(#filter0_d_6001_2745)">
<g clip-path="url(#clip0_6001_2745)">
<path d="M129.678 15.1496C129.678 15.1496 118.934 13.81 113.227 22.1829C107.52 30.5561 110.038 39.2639 111.38 44.9578C112.723 50.6515 110.373 55.8429 102.148 61.5366C93.9225 67.2302 83.179 81.7994 96.6082 97.2061C110.037 112.613 172.148 104.072 178.527 93.3543C184.906 82.6367 185.073 65.8166 175.841 60.076C166.608 54.3357 158.886 52.6611 160.229 41.6085C161.572 30.5561 156.872 20.5083 152.172 16.6566C146.521 12.0259 138.911 9.28833 129.678 15.1496Z" fill="url(#paint0_linear_6001_2745)"/>
<path d="M143.382 81.1308H129.832C129.832 81.1308 119.371 75.1549 125.361 69.2723C131.357 63.3898 130.592 57.3149 130.592 57.3149L136.555 56.9414H136.659L142.622 57.3149C142.622 57.3149 141.862 63.3896 147.853 69.2723C153.843 75.1549 143.382 81.1308 143.382 81.1308Z" fill="url(#paint1_linear_6001_2745)"/>
<path d="M142.131 79.5547H130.977V146.713H142.131V79.5547Z" fill="url(#paint2_linear_6001_2745)"/>
<path d="M136.659 56.9365V56.9419H136.609L136.659 56.9365Z" fill="url(#paint3_linear_6001_2745)"/>
<path d="M136.61 56.9419H136.555V56.9365L136.61 56.9419Z" fill="url(#paint4_linear_6001_2745)"/>
<path d="M129.846 27.207C129.846 27.207 128.722 31.1433 126.437 33.4222C124.73 35.1258 123.827 38.631 123.827 38.631C123.827 38.631 121.542 33.7479 119.367 35.8095C117.191 37.8713 118.279 47.7461 122.848 47.3122C122.848 47.3122 123.392 51.3272 126.329 54.6912C129.265 58.0552 133.834 62.0702 137.206 62.0702C140.578 62.0702 145.038 57.8381 147.758 54.1486C150.477 50.4591 151.347 48.2889 150.368 42.9717C149.389 37.6545 148.084 33.3138 142.645 32.3373C137.206 31.3604 132.712 29.3474 129.846 27.207Z" fill="url(#paint5_linear_6001_2745)"/>
<path d="M133.638 78.3798L124.888 68.6074C124.888 68.6074 107.484 72.6872 103.204 75.0592C98.9241 77.4313 95.4051 91.7578 91.9812 99.7275C88.5574 107.697 83.6119 117.754 83.707 123.732C83.8021 129.709 83.6119 131.322 81.9951 134.168C80.3784 137.015 79.7125 143.561 84.1825 145.744C88.6525 147.926 133.638 145.744 133.638 145.744V78.3798Z" fill="url(#paint6_linear_6001_2745)"/>
<path d="M104.017 77.5776C104.017 77.5776 106.527 97.8895 104.017 111.663C101.507 125.436 101.095 125.641 97.0216 126.681C92.9477 127.72 89.9161 127.72 88.9688 129.043C88.0214 130.366 91.4319 131.123 94.6531 131.312C97.8742 131.501 94.5584 132.162 91.4319 132.446C88.3054 132.73 85.558 133.958 83.6631 135.565C81.7684 137.172 80.6315 139.913 82.4315 139.723C84.2316 139.534 86.12 136.699 90.2443 135.281C94.3686 133.864 99.6743 133.958 99.6743 133.958C99.6743 133.958 103.843 131.69 106.59 119.498C109.338 107.306 109.812 94.1684 109.054 88.5922C109.054 88.5922 108.289 98.1464 107.203 103.104C107.203 103.104 106.655 82.2522 104.017 77.5776Z" fill="url(#paint7_linear_6001_2745)"/>
<path d="M140.358 78.3798L149.107 68.6074C149.107 68.6074 166.512 72.6872 170.792 75.0592C175.072 77.4313 178.59 91.7578 182.014 99.7275C185.438 107.697 190.384 117.754 190.289 123.732C190.194 129.709 190.384 131.322 192.001 134.168C193.617 137.015 194.283 143.561 189.813 145.744C185.343 147.926 140.357 145.744 140.357 145.744L140.358 78.3798Z" fill="url(#paint8_linear_6001_2745)"/>
<path d="M169.978 77.5776C169.978 77.5776 167.468 97.8895 169.978 111.663C172.488 125.436 172.9 125.641 176.974 126.681C181.047 127.72 184.079 127.72 185.026 129.043C185.974 130.367 182.563 131.123 179.342 131.312C176.121 131.501 179.437 132.162 182.563 132.446C185.69 132.73 188.437 133.958 190.332 135.565C192.227 137.172 193.363 139.913 191.563 139.723C189.763 139.534 187.875 136.699 183.751 135.281C179.626 133.864 174.321 133.958 174.321 133.958C174.321 133.958 170.152 131.69 167.405 119.498C164.657 107.306 164.183 94.1684 164.941 88.5922C164.941 88.5922 165.706 98.1464 166.792 103.104C166.792 103.104 167.34 82.2522 169.978 77.5776Z" fill="url(#paint9_linear_6001_2745)"/>
<path d="M176.48 154.419H97.4552C95.8932 154.419 94.627 153.156 94.627 151.598V105.5C94.627 103.941 95.8932 102.678 97.4552 102.678H176.48C178.042 102.678 179.309 103.941 179.309 105.5V151.598C179.309 153.156 178.042 154.419 176.48 154.419Z" fill="url(#paint10_linear_6001_2745)"/>
<path d="M136.968 135.623C140.884 135.623 144.058 132.456 144.058 128.549C144.058 124.643 140.884 121.476 136.968 121.476C133.052 121.476 129.877 124.643 129.877 128.549C129.877 132.456 133.052 135.623 136.968 135.623Z" fill="white"/>
</g>
</g>
<defs>
<filter id="filter0_d_6001_2745" x="-12" y="-8" width="224.982" height="151" filterUnits="userSpaceOnUse" color-interpolation-filters="sRGB">
<feFlood flood-opacity="0" result="BackgroundImageFix"/>
<feColorMatrix in="SourceAlpha" type="matrix" values="0 0 0 0 0 0 0 0 0 0 0 0 0 0 0 0 0 0 127 0" result="hardAlpha"/>
<feOffset dy="4"/>
<feGaussianBlur stdDeviation="6"/>
<feComposite in2="hardAlpha" operator="out"/>
<feColorMatrix type="matrix" values="0 0 0 0 0.905882 0 0 0 0 0.913725 0 0 0 0 0.92549 0 0 0 0.3 0"/>
<feBlend mode="normal" in2="BackgroundImageFix" result="effect1_dropShadow_6001_2745"/>
<feBlend mode="normal" in="SourceGraphic" in2="effect1_dropShadow_6001_2745" result="shape"/>
</filter>
<linearGradient id="paint0_linear_6001_2745" x1="90.2444" y1="58.7049" x2="183.077" y2="58.7049" gradientUnits="userSpaceOnUse">
<stop offset="0.0077" stop-color="#832500"/>
<stop offset="1" stop-color="#601700"/>
</linearGradient>
<linearGradient id="paint1_linear_6001_2745" x1="136.607" y1="80.6037" x2="136.607" y2="57.1922" gradientUnits="userSpaceOnUse">
<stop offset="0.0077" stop-color="#F1CDAB"/>
<stop offset="1" stop-color="#E48C75"/>
</linearGradient>
<linearGradient id="paint2_linear_6001_2745" x1="136.554" y1="79.2055" x2="136.554" y2="137.503" gradientUnits="userSpaceOnUse">
<stop stop-color="white"/>
<stop offset="1" stop-color="#CDCDCD"/>
</linearGradient>
<linearGradient id="paint3_linear_6001_2745" x1="136.634" y1="80.7496" x2="136.634" y2="57.1942" gradientUnits="userSpaceOnUse">
<stop offset="0.0077" stop-color="#F1CDAB"/>
<stop offset="1" stop-color="#E48C75"/>
</linearGradient>
<linearGradient id="paint4_linear_6001_2745" x1="136.582" y1="80.7496" x2="136.582" y2="57.1942" gradientUnits="userSpaceOnUse">
<stop offset="0.0077" stop-color="#F1CDAB"/>
<stop offset="1" stop-color="#E48C75"/>
</linearGradient>
<linearGradient id="paint5_linear_6001_2745" x1="138.774" y1="61.2535" x2="131.156" y2="28.0674" gradientUnits="userSpaceOnUse">
<stop offset="0.0077" stop-color="#F1CDAB"/>
<stop offset="1" stop-color="#E48C75"/>
</linearGradient>
<linearGradient id="paint6_linear_6001_2745" x1="107.204" y1="66.0666" x2="107.204" y2="142.692" gradientUnits="userSpaceOnUse">
<stop stop-color="#C7D9F4"/>
<stop offset="1" stop-color="#A6C4F4"/>
</linearGradient>
<linearGradient id="paint7_linear_6001_2745" x1="107.476" y1="108.655" x2="78.4136" y2="108.655" gradientUnits="userSpaceOnUse">
<stop stop-color="#9AC3E0"/>
<stop offset="1" stop-color="#7BA5DC"/>
</linearGradient>
<linearGradient id="paint8_linear_6001_2745" x1="166.792" y1="66.0666" x2="166.792" y2="142.692" gradientUnits="userSpaceOnUse">
<stop stop-color="#C7D9F4"/>
<stop offset="1" stop-color="#A6C4F4"/>
</linearGradient>
<linearGradient id="paint9_linear_6001_2745" x1="166.467" y1="108.655" x2="187.192" y2="108.655" gradientUnits="userSpaceOnUse">
<stop stop-color="#9AC3E0"/>
<stop offset="1" stop-color="#7BA5DC"/>
</linearGradient>
<linearGradient id="paint10_linear_6001_2745" x1="136.968" y1="103.373" x2="136.968" y2="155.276" gradientUnits="userSpaceOnUse">
<stop stop-color="white"/>
<stop offset="1" stop-color="#CDCDCD"/>
</linearGradient>
<clipPath id="clip0_6001_2745">
<rect width="200.983" height="127" fill="white"/>
</clipPath>
</defs>
</svg>
