<svg width="199" height="136" viewBox="0 0 199 136" fill="none" xmlns="http://www.w3.org/2000/svg">
<g filter="url(#filter0_d_6001_3752)">
<g clip-path="url(#clip0_6001_3752)">
<path d="M183.807 121.749V184.685H43.4746V135.915L183.807 121.749Z" fill="#89BEE9"/>
<path d="M139.471 125.595L241.722 135.916V184.686H139.471V125.595Z" fill="#89BEE9"/>
<path d="M183.807 131.403V142.011H34.9237L25.8711 129.817L183.807 131.403Z" fill="#539CD6"/>
<path d="M139.471 131.023L259.325 129.817L250.273 142.011H139.471V131.023Z" fill="#539CD6"/>
<path d="M53.8697 101.101L183.808 100.864V134.389H13.291V125.241L53.8697 101.101Z" fill="#A7CEEE"/>
<path d="M139.471 100.937L231.328 101.102L271.906 125.242V134.39H139.471V100.937Z" fill="#A7CEEE"/>
<path d="M139.471 124.986H271.906C272.234 124.986 272.228 125.493 271.906 125.493C271.667 125.493 271.421 125.488 271.181 125.493C265.651 125.609 260.111 125.493 254.581 125.493H139.471V124.986Z" fill="#89BEE9"/>
<path d="M13.2901 124.987C13.5301 124.987 13.7755 124.992 14.0154 124.987C19.5452 124.871 25.0858 124.987 30.6156 124.987H183.807V125.494H13.2901C12.9684 125.499 12.9684 124.987 13.2901 124.987Z" fill="#89BEE9"/>
<path d="M114.297 64.2614C114.297 64.2614 109.711 68.3756 105.13 69.9233C100.544 71.4654 89.3425 76.3507 88.3228 79.4405C87.303 82.5248 96.7265 106.962 100.549 107.733C104.372 108.504 163.454 106.703 164.981 104.649C166.508 102.589 162.942 68.64 160.908 66.5801C158.868 64.5203 137.731 61.6948 137.731 61.6948L114.554 63.237L114.297 64.2614Z" fill="#27A77E"/>
<path d="M154.025 70.6928L160.902 66.5786C160.902 66.5786 174.143 72.7527 180.256 76.8669C186.369 80.9811 192.483 91.7871 191.97 95.9014C191.463 100.016 177.453 105.931 174.143 105.931C170.833 105.931 162.429 101.299 162.173 99.7567C161.916 98.2146 160.133 91.7816 160.133 91.7816L154.025 70.6928Z" fill="#27A77E"/>
<path d="M171.853 77.6385C170.833 76.0963 164.469 73.2654 163.193 74.5542C161.917 75.843 158.863 78.6684 159.627 79.6983C160.39 80.7228 171.853 77.6385 171.853 77.6385Z" fill="#F7A98F"/>
<path d="M163.835 78.8946C163.835 78.8946 172.55 56.4564 174.24 56.148C175.931 55.8451 177.425 56.0654 177.114 57.602C176.803 59.1387 166.862 79.5776 166.862 79.5776L162.488 81.1142L163.835 78.8946Z" fill="#016FC2"/>
<path d="M81.1899 105.156C77.6234 109.788 69.2197 119.818 70.2395 121.36C71.2593 122.902 128.051 122.902 128.051 122.902C128.051 122.902 130.854 124.444 134.671 122.902C134.671 122.902 195.03 122.643 196.049 122.131C197.069 121.619 179.242 103.614 177.715 103.096C176.188 102.584 140.277 97.181 131.874 104.897C131.874 104.897 89.5445 94.3061 81.1899 105.156Z" fill="white"/>
<path d="M160.389 83.8086C160.389 83.8086 151.729 101.554 151.729 102.325C151.729 103.096 150.202 110.554 150.966 110.042C151.729 109.529 155.039 105.156 155.803 104.385C156.566 103.614 164.463 86.1218 164.463 86.1218L160.389 83.8086Z" fill="#016FC2"/>
<path d="M157.592 83.2956C157.592 84.1383 157.755 84.9864 157.946 85.8071C158.192 86.859 158.508 87.8945 158.846 88.9134C159.141 89.8001 159.44 90.7034 159.817 91.5571C159.904 91.7498 160.035 91.893 160.139 92.0693C160.231 92.229 160.204 92.4218 160.204 92.6145C160.204 92.8348 160.204 93.0166 160.269 93.2259C160.329 93.4352 160.422 93.639 160.586 93.7877C160.766 93.9474 160.984 94.0575 161.164 94.2063C161.496 94.4816 162.069 94.6689 162.5 94.6744C163.051 94.6799 163.574 94.8617 164.136 94.8066C164.299 94.7901 164.425 94.7405 164.599 94.7405C164.709 94.7405 164.812 94.7405 164.921 94.7405C165.052 94.7405 165.112 94.7019 165.237 94.6744C165.352 94.6469 165.439 94.5973 165.554 94.5587C165.679 94.5202 165.794 94.5257 165.919 94.4816C166.023 94.4431 166.121 94.4376 166.225 94.4211C166.421 94.3825 166.574 94.3219 166.743 94.2283C167.375 93.8703 167.915 93.3636 168.395 92.8073C168.613 92.554 168.848 92.3116 169.06 92.0528C169.137 91.9591 169.229 91.8875 169.306 91.7994C169.409 91.6727 169.469 91.513 169.567 91.3808C169.949 90.8631 170.38 90.406 170.68 89.8277C170.969 89.2714 171.367 88.7757 171.607 88.1974C171.76 87.8284 171.978 87.3768 171.945 86.9637C171.918 86.6112 172.021 86.2752 172.081 85.9283C172.212 85.1737 172.267 84.4081 172.289 83.6426C172.327 82.2161 172.245 80.7841 172.087 79.3631C172.021 78.7848 171.956 78.212 171.858 77.6392C171.858 77.6392 157.592 76.8627 157.592 83.2956Z" fill="#F7A98F"/>
<path d="M126.164 101.405C126.011 101.708 126.066 102.247 126.077 102.572C126.093 103.173 126.18 103.767 126.3 104.351C126.595 105.822 127.075 107.259 127.62 108.653C127.887 109.341 128.143 110.068 128.492 110.718C128.558 110.839 128.612 110.911 128.711 111.004C129.141 111.407 129.158 111.941 129.496 112.392C129.812 112.822 130.085 113.29 130.45 113.687C130.734 113.995 130.979 114.37 131.235 114.7C131.366 114.871 131.519 114.992 131.655 115.152C131.792 115.311 131.868 115.488 132.021 115.642C132.484 116.099 133.002 116.584 133.428 117.085C133.575 117.256 133.788 117.388 133.957 117.531C134.12 117.669 134.306 117.834 134.535 117.762C134.78 117.685 134.666 117.481 134.6 117.278C134.524 117.046 134.475 116.821 134.36 116.6C134.235 116.358 134.197 116.088 134.077 115.851C133.913 115.532 133.793 115.311 133.695 114.959C133.619 114.689 133.482 114.441 133.411 114.171C133.335 113.885 133.215 113.615 133.144 113.329C133.079 113.059 133.03 112.756 132.975 112.481C132.937 112.288 132.91 111.996 132.975 111.814C133.231 112.134 133.444 112.53 133.662 112.883C133.788 113.092 133.935 113.307 134.109 113.477C134.306 113.67 134.311 113.731 134.388 113.973C134.458 114.199 134.666 114.364 134.78 114.562C134.889 114.75 134.938 114.915 135.08 115.086C135.353 115.411 135.544 115.807 135.822 116.127C135.925 116.248 136.056 116.341 136.16 116.457C136.258 116.567 136.291 116.683 136.367 116.799C136.525 117.03 136.754 117.261 136.972 117.448C137.305 117.74 137.551 117.955 138.02 117.95C138.265 117.95 138.483 117.983 138.69 117.85C138.843 117.751 138.968 117.63 139.099 117.487C139.225 117.349 139.35 117.168 139.53 117.195C139.726 117.228 139.885 117.366 140.125 117.366C140.741 117.366 140.97 116.953 141.275 116.496C141.401 116.303 141.471 115.945 141.624 115.796C141.793 115.636 142.093 115.774 142.306 115.714C142.317 115.658 142.328 115.609 142.339 115.554C142.862 115.559 142.055 114.755 142.666 114.651C142.513 114.48 142.486 114.089 142.431 113.868C142.35 113.544 142.262 113.219 142.18 112.894C141.973 112.084 141.761 111.274 141.553 110.465C141.117 108.768 140.675 107.072 140.234 105.376C140.048 104.654 139.857 103.927 139.672 103.206C139.672 103.206 145.529 106.808 145.785 105.007C146.041 103.206 131.012 94.7183 129.992 96.0016C128.972 97.2904 125.662 102.429 125.662 102.429L126.164 101.405Z" fill="#F7A98F"/>
<path d="M97.4848 74.2898C92.8985 74.0309 73.5444 87.6623 73.0372 92.8065C72.5301 97.9506 74.5642 101.806 75.3277 102.836C76.0911 103.866 117.859 114.413 122.44 111.323C127.026 108.233 132.627 92.0299 131.1 91.0055C129.573 89.9811 101.046 83.8015 100.032 82.5182C99.0118 81.2349 97.4848 74.2898 97.4848 74.2898Z" fill="#27A77E"/>
<path d="M105.71 13.3248C104.663 14.5035 103.987 16.007 103.441 17.4886C103.234 18.0559 103.07 18.6507 102.716 19.1519C102.509 19.4438 102.252 19.7027 101.985 19.9395C101.62 20.27 101.184 20.4572 100.802 20.7601C100.093 21.3109 99.5203 22.7099 99.5584 23.6076C99.5748 23.9601 99.7875 24.3842 99.8911 24.7202C100.109 25.4417 100.327 26.1632 100.546 26.8902C100.987 28.3332 101.429 29.7762 101.871 31.2192C102.76 34.1052 103.665 36.9857 104.581 39.8662C104.886 40.819 105.186 41.7663 105.492 42.7137C105.377 42.1794 105.601 42.7632 105.661 42.8734C105.835 43.2093 105.993 43.5178 106.152 43.8647C106.43 44.4816 106.871 45.0103 107.15 45.6217C107.362 46.0898 107.657 46.5029 107.864 46.9711C107.978 47.2299 108.033 47.4943 108.191 47.7311C108.338 47.9459 108.551 48.1056 108.693 48.3259C109.2 49.097 109.598 49.9452 110.111 50.7053C110.907 51.8894 111.834 52.5283 113.219 52.8532C114.708 53.2057 116.284 53.1947 117.805 53.1231C120.445 52.9909 123.068 52.6164 125.642 52.0161C127.425 51.5975 129.378 51.234 131.019 50.3748C132.426 49.6368 132.846 48.4416 133.124 46.949C133.304 46.0127 133.489 45.0819 133.773 44.1677C134.008 43.4131 134.198 42.631 134.34 41.8545C134.449 41.2321 134.46 40.6097 134.744 40.0259C134.935 39.6239 135.164 39.2769 135.256 38.8308C135.404 38.1093 135.355 37.3878 135.289 36.6663C135.273 36.5065 135.333 36.3468 135.327 36.1871C135.322 35.9723 135.251 35.774 135.235 35.5647C135.164 34.7661 135.093 33.9675 135.011 33.1689C134.967 32.7613 134.984 32.3427 134.94 31.9352C134.896 31.5221 134.798 31.098 134.793 30.6739C134.776 29.6715 134.766 28.592 134.575 27.6062C134.515 27.2922 134.542 27.0499 134.542 26.7359C134.542 26.4881 134.466 26.2568 134.455 26.0034C134.433 25.4692 134.449 24.9294 134.34 24.4007C134.188 23.6296 134.078 22.842 133.958 22.0765C133.898 21.6909 133.713 21.3164 133.708 20.9199C133.702 20.7546 133.8 20.5784 133.779 20.4187C133.757 20.2534 133.566 20.1102 133.484 19.9836C133.217 19.565 133.113 19.0693 132.95 18.6011C132.791 18.166 132.699 17.6979 132.573 17.2518C132.453 16.8332 132.279 16.5137 132.077 16.1337C131.761 15.5389 131.39 14.9275 130.888 14.4924C130.686 14.3162 130.517 14.1289 130.31 13.9637C130.081 13.782 129.847 13.6608 129.601 13.49C129.061 13.1155 128.511 12.7796 127.911 12.5042C127.333 12.2398 126.776 12.0856 126.182 11.8818C124.988 11.4742 123.744 11.2209 122.545 10.8519C122.016 10.6922 121.454 10.5655 120.936 10.4058C120.75 10.3452 120.527 10.2571 120.341 10.213C120.216 10.1855 120.112 10.213 119.981 10.1689C119.894 10.1414 119.845 10.0753 119.747 10.0533C119.512 9.99819 119.262 10.0643 119.022 9.98718C118.803 9.91558 118.591 9.79992 118.367 9.73934C117.996 9.64571 117.364 9.59613 116.977 9.67324C116.568 9.75586 116.088 9.7834 115.668 9.66223C115.379 9.57962 115.046 9.44192 114.735 9.44743C114.621 9.44743 114.523 9.49699 114.408 9.52453C114.015 9.61266 113.612 9.60164 113.214 9.67875C112.679 9.78339 112.172 9.97617 111.643 10.1028C111.071 10.2405 110.569 10.4113 110.018 10.6095C109.625 10.7527 109.124 10.7803 108.764 10.9786C108.622 11.0557 108.535 11.2044 108.404 11.2925C108.197 11.4302 107.973 11.4247 107.76 11.5403C107.417 11.7221 107.166 12.0691 106.844 12.3004C106.419 12.6033 106.043 12.9503 105.71 13.3248Z" fill="#7C4415"/>
<path d="M111.277 27.27C111.26 27.3251 111.244 27.3802 111.228 27.4353C111.118 27.8373 111.244 28.7185 110.775 28.8948C110.622 28.9554 110.42 28.8672 110.257 28.8948C110.137 28.9113 109.913 28.9939 109.782 29.027C109.379 29.1316 108.959 29.1537 108.572 29.3079C108.195 29.4566 107.999 29.7044 107.716 30.0184C107.148 30.6462 106.925 31.2851 106.707 32.0672C106.614 32.4087 106.652 32.8217 106.625 33.1797C106.603 33.4551 106.63 33.6534 106.674 33.9178C106.739 34.3143 106.668 34.6668 106.69 35.0634C106.767 36.4238 107.208 37.7897 107.35 39.15C107.525 40.7693 107.89 42.3555 108.299 43.9362C108.484 44.6577 108.594 45.4067 108.79 46.1172C109.106 47.2573 109.57 48.3038 109.913 49.4328C110.12 50.1158 110.35 50.8373 110.617 51.4982C110.889 52.1646 111.217 52.8696 111.413 53.5636C111.582 54.1639 111.909 54.7477 112.215 55.304C112.749 56.2623 113.289 57.3969 114.331 57.9146C114.838 58.168 115.345 58.2726 115.852 58.4103C116.583 58.6141 117.308 58.906 118.039 59.1373C118.568 59.3025 119.108 59.4347 119.648 59.6C120.471 59.8478 121.12 60.2003 121.998 60.2499C122.352 60.2664 122.701 60.2884 123.051 60.3104C123.269 60.327 123.59 60.4096 123.803 60.3655C123.874 60.349 123.978 60.2333 124.016 60.2223C124.714 60.0956 125.357 59.8643 126.012 59.5229C127.048 58.9776 127.904 58.2396 128.826 57.5236C129.246 57.1986 129.513 56.6699 129.835 56.2513C130.385 55.5408 131.214 55.0066 131.738 54.2796C132.054 53.8445 132.19 53.167 132.359 52.6548C132.398 52.5502 132.359 52.4125 132.392 52.3023C132.425 52.1811 132.539 52.1701 132.583 52.0324C132.648 51.8176 132.588 51.5202 132.61 51.2944C132.648 50.9474 132.85 50.639 132.867 50.2975C132.905 49.5925 132.632 48.9647 132.828 48.2432C133.008 47.5933 133.112 47.048 133.096 46.354C133.057 44.7073 132.807 43.077 132.741 41.4357C132.692 40.1359 132.61 38.8196 132.376 37.5363C132.119 36.1263 131.792 34.7274 131.563 33.3119C131.416 32.3866 131.209 31.2796 130.424 30.6683C129.867 30.2387 129.131 30.1616 128.471 30.0184C127.511 29.8091 126.65 29.4456 125.788 28.9719C124.316 28.1623 122.941 27.1874 121.633 26.13C119.817 24.6649 117.553 24.0426 115.301 24.731C114.341 25.0229 113.485 25.5737 112.558 25.9647C112.269 26.0859 111.964 26.196 111.735 26.4163C111.511 26.6422 111.375 26.9506 111.277 27.27Z" fill="#F7A98F"/>
<path d="M116.152 59.6835C116.152 59.6835 112.777 64.3815 109.21 65.8135C107.574 66.4689 111.632 79.2521 117.074 81.5323C122.517 83.8125 126.732 73.772 126.732 73.772C126.732 73.772 135.321 80.3977 139.711 75.7603C144.101 71.1228 139.618 61.3688 139.618 61.3688L129.895 56.814L116.152 59.6835Z" fill="#2ACC98"/>
<path d="M114.283 47.5831C114.278 47.5996 114.267 47.6216 114.261 47.6381C114.103 48.0127 113.825 48.3982 113.732 48.7507C113.689 48.9214 113.645 49.0756 113.656 49.2629C113.667 49.4336 113.76 49.5548 113.776 49.676C113.901 50.5186 113.836 51.3833 113.994 52.2205C114.065 52.6005 114.06 52.9475 114.158 53.3331C114.272 53.8012 114.299 54.341 114.392 54.8146C114.561 55.6903 114.605 56.6211 114.736 57.4968C114.796 57.9154 114.823 58.3175 114.894 58.7416C114.943 59.017 114.861 59.2593 114.883 59.5292C114.905 59.766 115.019 59.9477 115.041 60.1791C115.085 60.5756 114.998 60.9777 115.052 61.3742C115.15 62.0186 115.21 62.8668 115.003 63.5057C114.948 63.6764 114.856 63.8251 114.834 64.0069C114.752 64.5907 114.954 65.2681 115.128 65.8134C115.243 66.1659 115.472 66.5349 115.646 66.8598C115.854 67.2399 116.126 67.4657 116.41 67.7906C116.715 68.1376 116.977 68.4846 117.326 68.7985C117.61 69.0574 117.926 69.2502 118.253 69.454C118.951 69.9001 119.66 70.2691 120.364 70.6822C120.734 70.897 121.105 71.0732 121.482 71.2715C121.842 71.4587 122.163 71.5524 122.534 71.7121C122.845 71.8498 123.194 71.9599 123.559 71.9985C123.756 72.0205 123.903 72.1252 124.094 72.1637C124.192 72.1802 124.306 72.1417 124.405 72.1692C124.503 72.1968 124.525 72.2849 124.623 72.3179C124.699 72.34 124.797 72.3014 124.874 72.3179C124.988 72.3455 125.059 72.4281 125.168 72.4556C125.337 72.4997 125.533 72.4887 125.713 72.4997C126.133 72.5272 126.422 72.4777 126.81 72.2959C127.382 72.026 127.769 71.8883 128.135 71.3596C128.353 71.0457 128.696 70.8143 128.953 70.5169C129.187 70.2416 129.356 69.9496 129.542 69.6412C130.054 68.7655 130.812 68.0275 131.15 67.0636C131.227 66.8543 131.358 66.6836 131.45 66.4853C131.565 66.2375 131.641 65.9676 131.745 65.7087C131.936 65.2461 132.187 64.8 132.405 64.3484C132.699 63.7425 132.956 63.0375 133.097 62.3711C133.179 62.0021 133.343 61.5945 133.217 61.22C133.103 60.8841 132.819 60.5921 132.677 60.2452C132.356 59.4521 132.208 58.5929 131.761 57.8548C130.311 55.4425 129.678 52.606 129.105 49.8908C128.795 48.4147 128.38 47.0103 127.857 45.6113C127.48 44.6089 126.401 44.4878 125.626 43.8819C124.743 43.1935 124.203 43.0888 123.09 43.3532C121.236 43.7938 119.426 44.3996 117.642 45.0771C116.312 45.5728 114.899 46.2006 114.283 47.5831Z" fill="#F7A98F"/>
<path d="M130.61 55.4658C130.61 55.4658 127.469 59.0183 124.033 60.2189C120.597 61.4196 114.348 57.9112 114.348 57.9112C114.348 57.9112 121.099 65.3686 124.207 65.0601C127.316 64.7517 130.61 55.4658 130.61 55.4658Z" fill="#FF9977"/>
<path d="M131.226 36.4081C131.575 36.5017 131.744 36.9093 131.842 37.2177C131.848 36.0886 132.573 35.1138 133.249 34.2381C133.931 33.3513 134.542 32.057 135.621 31.5503C136.69 31.0491 137.039 32.426 137.165 33.109C137.263 33.6377 137.241 34.1554 137.35 34.6842C137.459 35.2129 137.388 36.0281 137.301 36.5568C137.247 36.8872 137.072 37.1571 137.012 37.4821C136.968 37.7189 137.012 37.9722 136.985 38.2091C136.898 38.8645 136.69 39.5805 136.483 40.2194C136.145 41.2493 135.627 42.2517 135.011 43.1494C134.433 44.0031 133.947 44.9945 133.184 45.6995C132.906 45.9528 132.524 46.2998 132.093 46.0465C131.679 45.7986 131.433 44.664 131.308 44.2289C131.052 43.3477 130.855 42.4279 130.648 41.5302C130.452 40.6655 130.479 39.7898 130.315 38.9526C130.25 38.6166 130.321 38.2311 130.223 37.9006C130.146 37.6363 129.923 37.46 129.868 37.1626C129.786 36.7055 129.426 35.8408 130.174 35.7196C130.321 35.6976 130.899 35.5709 131.035 35.5158C130.997 35.0201 129.857 35.8683 129.514 35.8904L131.226 36.4081Z" fill="#F7A98F"/>
<path d="M108.322 40.3084C108.055 40.5562 108.093 40.9968 108.153 41.3107C107.624 40.3194 106.533 39.7961 105.53 39.339C104.515 38.8764 103.376 38.0172 102.192 38.0777C101.02 38.1383 101.342 39.5208 101.549 40.1817C101.707 40.6994 101.963 41.1455 102.11 41.6632C102.258 42.181 102.699 42.8694 103.021 43.299C103.223 43.5689 103.501 43.7231 103.703 43.9765C103.85 44.1637 103.926 44.4116 104.063 44.6043C104.445 45.1441 104.957 45.6783 105.437 46.1465C106.211 46.8955 107.133 47.5399 108.093 48.0466C109.004 48.5313 109.887 49.1812 110.89 49.44C111.25 49.5337 111.752 49.6603 112.014 49.2308C112.27 48.8122 111.959 47.6996 111.867 47.2535C111.687 46.3558 111.436 45.447 111.201 44.5603C110.972 43.7011 110.547 42.941 110.307 42.1204C110.209 41.7954 109.969 41.4815 109.903 41.1455C109.849 40.8756 109.963 40.6113 109.876 40.3249C109.734 39.8843 109.652 38.948 108.938 39.1958C108.796 39.2454 108.229 39.4106 108.082 39.4216C107.886 38.9645 109.293 39.1793 109.603 39.0361L108.322 40.3084Z" fill="#F7A98F"/>
<path d="M105.087 41.4204C105.867 42.3457 106.429 43.3867 106.778 44.5488C106.882 44.8848 107.405 44.7416 107.301 44.4001C106.925 43.1498 106.314 42.0263 105.469 41.0294C105.246 40.7595 104.864 41.1506 105.087 41.4204Z" fill="#7C4415"/>
<path d="M134.945 38.5461C134.792 37.6098 134.939 36.6955 135.359 35.8528C135.517 35.5389 135.048 35.258 134.89 35.5774C134.399 36.5633 134.247 37.6098 134.421 38.6948C134.481 39.0417 135.005 38.893 134.945 38.5461Z" fill="#7C4415"/>
<path d="M116.234 26.7818C116.332 26.8865 116.365 27.0132 116.441 27.1343C116.676 27.4868 117.03 27.7622 117.336 28.0431C117.657 28.335 117.919 28.671 118.252 28.9574C118.601 29.2548 118.912 29.6293 119.294 29.8826C119.659 30.125 120.057 30.3343 120.439 30.5546C120.722 30.7198 121.033 30.9566 121.339 31.0668C121.628 31.1714 121.966 31.199 122.217 31.4028C122.124 31.2485 121.878 31.199 121.731 31.1164C121.518 31.0007 121.279 30.8795 121.082 30.7418C120.646 30.4334 120.166 30.0534 119.812 29.6513C119.413 29.2052 119.097 28.6985 118.683 28.2744C118.508 28.0982 118.394 27.8999 118.263 27.6961C118.192 27.5804 118.11 27.3436 117.996 27.2775C118.148 27.3987 118.323 27.4703 118.475 27.6135C118.721 27.8503 118.901 28.1422 119.157 28.3625C119.441 28.6049 119.795 28.7921 120.106 28.9959C120.493 29.2548 120.902 29.5522 121.328 29.7394C121.709 29.9102 122.015 30.1856 122.407 30.3288C122.838 30.483 123.329 30.6813 123.782 30.7473C124.403 30.841 125.009 30.9401 125.641 30.9732C125.45 30.9952 125.369 30.9071 125.205 30.852C124.998 30.7859 124.78 30.7584 124.572 30.6978C124.174 30.5766 123.82 30.3783 123.482 30.114C122.849 29.6238 122.124 29.1722 121.617 28.5278C121.835 28.5333 122.02 28.715 122.211 28.8087C122.68 29.0455 123.133 29.3043 123.607 29.5357C124.098 29.778 124.578 30.0479 125.101 30.2131C125.625 30.3783 126.138 30.3893 126.683 30.4279C127.195 30.4609 127.697 30.3783 128.21 30.3893C128.57 30.3949 128.881 30.4665 129.23 30.3949C129.65 30.3067 129.944 30.3233 130.298 30.0534C130.118 29.9598 131.347 28.0017 129.595 30.0148C129.028 30.0699 132.425 27.2555 131.858 27.1343C130.767 26.903 131.872 26.4734 130.836 26.0548C130.318 25.8455 131.805 25.2562 131.347 24.9367C130.91 24.6283 128.668 23.6779 128.21 23.4081C127.615 23.0611 122.538 24.7055 122.009 24.2759C121.535 23.8903 121.345 23.5301 120.871 23.15C121.013 20.4516 118.225 24.5292 117.821 24.2759C117.478 24.0611 117.139 23.9564 116.763 23.8132C115.705 23.4277 114.555 23.8738 113.475 23.9013C112.837 23.9179 112.313 24.3309 111.741 24.5788C111.517 24.6724 111.31 24.7605 111.135 24.9368C110.873 25.2011 110.683 25.5977 110.535 25.9337C110.339 26.3963 110.475 26.8479 110.377 27.3271C110.312 27.6631 110.399 27.7347 110.574 28.01C110.644 28.1202 110.721 28.2303 110.803 28.346C110.753 28.0596 111.037 27.8063 111.173 27.5804C111.321 27.3436 111.506 27.1453 111.697 26.9361C112.035 26.567 112.411 26.2311 112.869 26.0273C113.355 25.818 113.922 25.8015 114.456 25.9006C114.571 25.9227 114.631 25.9832 114.718 26.0163C114.838 26.0548 114.942 26.0218 115.062 26.0548C115.487 26.1925 115.929 26.4624 116.234 26.7818Z" fill="#7C4415"/>
<path d="M102.699 19.5945C102.481 19.8038 102.399 20.1508 102.312 20.4317C102.268 20.5804 102.279 20.7181 102.203 20.8558C102.143 20.9714 102.034 21.032 101.968 21.1366C101.51 21.8692 101.543 22.8385 101.488 23.6702C101.417 24.7166 101.597 25.7851 101.821 26.804C102.17 28.3957 102.399 30.015 102.726 31.6122C102.955 32.7413 103.108 33.9199 103.441 35.0215C103.621 35.6328 103.85 36.2221 104.046 36.828C104.204 37.3181 104.564 37.9956 104.373 38.5298C104.22 38.4968 104.193 38.3426 104.111 38.2214C104.019 38.0837 103.931 37.9846 103.828 37.8524C103.626 37.599 103.441 37.3016 103.304 37.0097C103.13 36.6407 102.939 36.2331 102.737 35.8806C102.595 35.6328 102.459 35.4621 102.377 35.1867C102.284 34.8727 102.083 34.6634 101.957 34.366C101.396 32.9891 100.768 31.6508 100.338 30.2298C100.169 29.6735 100.038 29.0952 99.8468 28.5444C99.7323 28.214 99.716 27.8285 99.5633 27.5255C99.5633 28.1093 99.476 28.6931 99.476 29.277C99.2633 29.0677 99.187 28.4894 99.1106 28.203C98.9361 27.5861 98.7071 27.0188 98.5762 26.3854C98.4617 25.8347 98.2708 25.2784 98.2763 24.7166C98.2763 24.5349 98.4235 23.7913 98.2435 23.7473C98.0145 24.5679 97.5237 25.2288 97.4746 26.1046C97.5237 25.2068 97.5837 24.3036 97.6273 23.4058C97.6709 22.5686 98.2981 21.7921 98.7725 21.1366C98.9252 20.9218 99.0452 20.8282 99.236 20.663C99.3942 20.5308 99.5033 20.3105 99.656 20.1728C99.9832 19.8754 100.463 19.6 100.883 19.4513C101.216 19.3301 101.592 19.1924 101.93 19.1814C102.132 19.1759 102.284 19.1374 102.486 19.0878C102.595 19.0603 102.868 18.9611 102.972 18.9997C102.972 18.9721 102.983 18.8234 102.983 18.7959C103.015 19.0272 102.65 19.3907 102.699 19.5945Z" fill="#7C4415"/>
<path d="M102.961 19.2414C102.928 19.2303 102.895 19.2248 102.862 19.2138C102.846 19.0431 102.753 18.8999 102.737 18.7402C102.721 18.5694 102.781 18.4207 102.742 18.25C102.677 17.9085 102.682 17.6276 102.704 17.2641C102.748 16.5371 102.742 15.7936 102.824 15.0721C102.879 14.637 103.07 14.2129 103.151 13.7778C103.222 13.3867 103.348 13.0397 103.484 12.6597C103.659 12.1805 103.746 11.5086 104.155 11.1561C104.1 11.6188 104.226 12.0539 104.193 12.5165C104.171 12.8084 104.155 13.1058 104.139 13.3977C104.1 12.891 104.433 12.3898 104.706 11.9988C105.126 11.3985 105.704 10.8202 106.282 10.374C106.773 9.99401 107.263 9.59194 107.77 9.23945C107.945 9.12379 108.12 9.01365 108.272 8.90349C108.349 8.84842 108.539 8.69971 108.632 8.69971C108.616 8.8374 108.452 8.90349 108.359 9.00263C108.196 9.17337 108.06 9.40469 107.945 9.61948C107.809 9.87284 107.716 10.1427 107.58 10.4016C107.481 10.5888 107.432 10.8477 107.291 11.0129C107.405 10.9303 107.552 10.8917 107.672 10.8091C107.972 10.6109 108.19 10.4511 108.523 10.3079C109.325 9.95545 110.132 9.69659 110.983 9.4873C111.315 9.40468 111.648 9.32758 111.986 9.25598C112.215 9.20641 112.4 9.2009 112.624 9.17887C112.853 9.15684 112.989 9.06872 113.235 9.08524C113.437 9.10176 113.638 9.10727 113.84 9.11829C114.2 9.14032 114.642 9.09626 114.991 9.17887C115.176 9.22293 115.323 9.34411 115.525 9.39918C115.825 9.4818 116.109 9.49281 116.42 9.51484C116.856 9.53687 117.39 9.49282 117.81 9.625C118.05 9.70211 118.557 9.96647 118.612 10.2253C118.416 10.3465 118.306 10.341 118.088 10.3465C117.723 10.3575 117.385 10.4401 117.019 10.4126C115.912 10.319 114.904 10.7596 113.889 11.1396C112.542 11.6463 111.337 12.3678 110.159 13.1884C109.096 13.9265 108.005 14.7746 107.122 15.722C106.745 16.124 106.325 16.438 105.982 16.8676C105.676 17.2476 105.191 17.3963 104.891 17.7763C104.575 18.1784 104.237 18.608 103.828 18.9164C103.713 19.0045 103.571 19.1092 103.451 19.1753C103.375 19.1973 103.19 19.2028 102.961 19.2414Z" fill="#7C4415"/>
<path d="M104.309 18.5867C104.352 17.8267 104.341 17.006 104.636 16.3066C104.979 15.4859 105.241 14.6763 105.683 13.8887C105.874 13.5527 106.163 13.2773 106.365 12.9524C106.485 12.7596 106.681 12.3355 106.894 12.2584C107.346 12.0987 107.079 12.7706 107.117 13.002C107.144 13.1782 107.215 13.2112 107.215 13.426C107.21 13.6078 107.161 13.7896 107.204 13.9658C107.324 13.9603 107.466 13.6519 107.57 13.5417C107.821 13.2884 108.115 13.0681 108.377 12.8202C108.911 12.3135 109.604 12.0546 110.215 11.7022C110.411 11.5865 110.678 11.4488 110.896 11.3992C111.027 11.3717 111.153 11.3937 111.278 11.3662C111.387 11.3442 111.436 11.245 111.594 11.2836C111.791 11.3331 111.834 11.5149 112.025 11.5645C112.32 11.6416 112.712 11.3937 112.996 11.3111C113.138 11.2671 113.28 11.1844 113.427 11.1624C113.596 11.1349 113.759 11.1734 113.934 11.1239C114.283 11.0302 114.627 10.898 114.992 10.8705C115.221 10.854 115.423 10.9035 115.652 10.854C115.826 10.8154 115.968 10.8099 116.148 10.8209C116.475 10.843 116.824 10.8264 117.146 10.876C117.342 10.9035 117.511 11.0137 117.708 11.0467C117.909 11.0798 118.128 11.0467 118.329 11.0688C118.804 11.1239 119.311 11.3166 119.78 11.4378C120.751 11.6801 121.749 11.9225 122.703 12.2474C123.183 12.4126 123.712 12.5724 124.126 12.8863C124.35 13.0515 124.568 13.1121 124.803 13.2443C125.026 13.3655 125.212 13.5527 125.446 13.6739C125.98 13.9493 126.417 14.3403 126.842 14.7699C126.422 14.7148 126.057 14.5551 125.637 14.4615C125.348 14.3954 125.032 14.3018 124.737 14.2687C124.475 14.2357 124.219 14.2687 123.957 14.2192C123.723 14.1751 123.505 14.087 123.265 14.0594C122.796 14.0043 122.343 13.9658 121.874 13.8777C121.34 13.7785 120.789 13.6684 120.244 13.6409C119.813 13.6188 119.306 13.6574 118.88 13.5362C118.657 13.4701 118.477 13.4261 118.248 13.3985C118.608 13.6739 119.131 13.7014 119.529 13.9052C119.971 14.131 120.587 14.3899 120.936 14.7644C120.663 14.858 120.113 14.4725 119.824 14.3844C119.098 14.1641 118.346 14.109 117.599 14.1586C116.682 14.2247 115.674 14.2136 114.796 14.456C114.899 14.5606 114.976 14.5331 115.112 14.5882C115.335 14.6763 115.548 14.847 115.755 14.9737C116.066 15.1665 116.383 15.3042 116.579 15.6346C116.481 15.7668 116.328 15.7393 116.186 15.7613C115.739 15.8329 115.314 15.8054 114.866 15.7778C113.912 15.7117 112.86 15.7007 111.965 16.1523C111.404 16.4332 110.716 16.962 110.378 17.5403C110.1 18.0139 110.656 17.8542 110.684 18.2012C110.449 18.2783 110.122 18.2397 109.877 18.2618C109.364 18.3168 108.895 18.4711 108.393 18.5537C108.061 18.6087 107.761 18.6308 107.45 18.763C107.144 18.8951 107.095 18.9833 106.943 19.2917C106.877 19.4239 106.795 19.6662 106.686 19.7598C106.496 19.9141 106.152 19.7929 105.95 19.7158C105.525 19.5561 105.198 19.2531 104.8 19.0549C104.592 18.9502 104.39 18.9447 104.205 18.7905C104.216 18.6804 104.314 18.6143 104.309 18.5867Z" fill="#966944"/>
<path d="M86.3212 86.9348C89.4296 84.1975 94.0759 81.5538 98.3459 82.2478C100.489 82.5948 102.6 83.4429 104.699 84.0047C106.968 84.6161 109.247 85.1723 111.527 85.7286C115.939 86.8081 120.372 87.8711 124.724 89.2039C126.48 89.7437 128.721 90.2063 130.139 91.4731C131.454 92.6462 131.186 94.2985 130.712 95.8241C130.603 96.1821 131.154 96.3308 131.263 95.9783C131.906 93.9185 131.906 91.9137 129.965 90.6249C128.661 89.7602 127.042 89.3306 125.575 88.8625C123.546 88.2236 121.496 87.6728 119.44 87.1331C115.448 86.0866 111.434 85.1393 107.431 84.1204C105.397 83.6027 103.363 83.0629 101.351 82.4571C99.6766 81.9559 98.046 81.4381 96.2791 81.5813C92.4835 81.8898 88.7261 84.0378 85.9122 86.5217C85.6395 86.7696 86.0485 87.1771 86.3212 86.9348Z" fill="#2ACC98"/>
<path d="M85.2848 84.3257C87.8533 82.3594 91.0599 81.6379 94.2065 82.3539C94.5664 82.4365 94.7191 81.8748 94.3592 81.7977C91.0708 81.0486 87.6842 81.7701 84.9957 83.83C84.7067 84.0503 84.9903 84.5515 85.2848 84.3257Z" fill="#2ACC98"/>
<path d="M124.664 89.0675C124.778 91.0007 123.928 93.044 123.377 94.8726C122.826 96.7066 122.237 98.5297 121.61 100.342C120.317 104.092 118.861 107.777 117.264 111.401C117.116 111.737 117.607 112.034 117.76 111.693C119.379 108.019 120.857 104.291 122.166 100.49C122.842 98.5297 123.48 96.5524 124.069 94.5641C124.593 92.8072 125.345 90.9291 125.236 89.0675C125.215 88.693 124.642 88.693 124.664 89.0675Z" fill="#2ACC98"/>
<path d="M97.196 73.3421C97.8722 75.826 98.9411 78.1227 100.414 80.2266C100.626 80.5296 101.122 80.2377 100.91 79.9347C99.4701 77.8694 98.4121 75.6222 97.7523 73.1879C97.6541 72.8299 97.1033 72.9841 97.196 73.3421Z" fill="#2ACC98"/>
<path d="M100.102 76.2674C100.964 78.5916 101.798 80.9269 102.6 83.2731C102.72 83.6201 103.276 83.4714 103.15 83.1189C102.349 80.7726 101.514 78.4374 100.653 76.1132C100.522 75.7662 99.9711 75.9149 100.102 76.2674Z" fill="#2ACC98"/>
<path d="M164.191 95.2691C164.513 96.2385 163.902 97.351 164.148 98.3534C164.497 99.7689 165.74 100.727 166.842 101.548C167.136 101.768 167.425 101.267 167.131 101.047C165.936 100.149 164.584 99.0749 164.666 97.4226C164.704 96.6901 164.977 95.8254 164.742 95.1094C164.628 94.7624 164.071 94.9111 164.191 95.2691Z" fill="#2ACC98"/>
<path d="M171.787 77.4571C176.728 78.2226 181.244 80.5634 184.728 84.1764C184.985 84.4463 185.388 84.0332 185.132 83.7689C181.582 80.0897 176.968 77.6774 171.94 76.9008C171.575 76.8457 171.422 77.402 171.787 77.4571Z" fill="#2ACC98"/>
<path d="M166.133 101.002C170.517 101.123 173.506 96.4475 175.234 92.9557C176.483 90.4276 177.236 87.6573 177.405 84.8374C177.525 82.8766 177.787 79.3352 175.845 78.1291C175.529 77.9308 175.24 78.432 175.556 78.6302C176.74 79.3683 176.761 81.1968 176.838 82.436C176.909 83.5982 176.87 84.7713 176.74 85.9279C176.445 88.489 175.643 90.9674 174.449 93.2365C172.802 96.3594 170.097 100.529 166.138 100.424C165.767 100.413 165.767 100.991 166.133 101.002Z" fill="#2ACC98"/>
<path d="M158.404 65.6718C158.655 70.4745 158.589 75.2771 158.197 80.0688C158.164 80.4378 158.737 80.4378 158.769 80.0688C159.162 75.2771 159.233 70.4745 158.976 65.6718C158.955 65.3028 158.382 65.3028 158.404 65.6718Z" fill="#2ACC98"/>
<path d="M158.644 80.5074C159.276 78.2328 159.963 75.9746 160.71 73.7385C160.83 73.386 160.274 73.2318 160.16 73.5843C159.413 75.8204 158.725 78.0785 158.093 80.3532C157.989 80.7167 158.546 80.8709 158.644 80.5074Z" fill="#2ACC98"/>
<path d="M126.703 75.1215C128.323 81.1854 130.253 87.1557 132.489 93.0159C132.62 93.3628 133.176 93.2086 133.04 92.8616C130.804 87.0015 128.873 81.0312 127.254 74.9673C127.161 74.6093 126.605 74.758 126.703 75.1215Z" fill="#2ACC98"/>
<path d="M155.809 104.385L150.754 110.592C150.35 110.047 151.73 102.33 151.73 102.33C151.73 102.33 154.086 102.231 155.809 104.385Z" fill="#001C31"/>
<path d="M150.393 111.169L152.934 107.914C152.934 107.914 152.421 106.967 150.992 106.917L150.393 111.169Z" fill="#016FC2"/>
<path d="M131.421 123.833L131.301 123.744C131.213 123.678 122.379 117.394 105.653 118.639C88.8515 119.889 70.4408 121.536 70.2554 121.552L70.2227 121.167C70.4081 121.15 88.8187 119.504 105.626 118.253C121.425 117.08 130.265 122.588 131.399 123.348C137.092 118.518 146.647 117.708 164.348 116.607C180 115.626 195.962 121.894 196.12 121.954L195.978 122.312C195.82 122.252 179.934 116.017 164.37 116.987C146.636 118.094 137.125 118.898 131.535 123.733L131.421 123.833Z" fill="#6CAEE3"/>
<path d="M131.399 123.793L131.333 123.765C131.246 123.727 122.352 120.02 108.843 120.334C95.2972 120.648 74.1599 122.124 73.9472 122.141L73.9199 121.755C74.1326 121.739 95.2754 120.268 108.833 119.949C121.806 119.651 130.57 123.044 131.415 123.385C132.337 123.082 142.589 119.86 160.28 118.258C171.061 117.283 185.044 120.174 189.079 121.083C191.692 121.672 193.333 122.119 193.349 122.124L193.251 122.499C193.235 122.493 191.599 122.047 188.998 121.463C184.984 120.554 171.045 117.674 160.318 118.643C141.891 120.312 131.573 123.743 131.47 123.776L131.399 123.793Z" fill="#6CAEE3"/>
<path d="M131.449 123.776L131.373 123.396C131.537 123.363 147.875 120.048 160.298 119.943C172.715 119.827 188.781 122.201 188.939 122.223L188.885 122.603C188.726 122.581 172.688 120.218 160.303 120.329C147.913 120.439 131.608 123.743 131.449 123.776Z" fill="#6CAEE3"/>
<path d="M131.641 122.989C131.728 120.775 131.973 118.589 132.371 116.408C132.431 116.088 131.946 115.95 131.886 116.27C131.477 118.495 131.232 120.726 131.139 122.984C131.128 123.314 131.63 123.314 131.641 122.989Z" fill="#6CAEE3"/>
<path d="M144.652 116.838C145.671 116.469 146.697 116.226 147.782 116.182C148.605 116.149 149.429 116.314 150.247 116.204C151.032 116.094 151.752 115.731 152.488 115.455C153.421 115.108 154.375 114.937 155.362 114.838C159.289 114.447 163.319 114.243 167.267 114.337C169.274 114.381 171.253 114.717 173.255 114.783C174.258 114.816 175.24 114.701 176.238 114.899C177.127 115.081 177.983 115.384 178.883 115.516C179.755 115.648 180.628 115.67 181.506 115.604C182.558 115.521 183.529 115.279 184.565 115.598C186.441 116.171 188.273 117.141 190.078 117.906C190.378 118.033 190.509 117.543 190.215 117.416C188.399 116.65 186.577 115.698 184.701 115.108C182.978 114.563 181.129 115.273 179.346 115.07C178.174 114.937 177.083 114.502 175.927 114.326C175.196 114.21 174.465 114.282 173.729 114.282C171.575 114.282 169.426 113.88 167.267 113.83C163.253 113.737 159.141 113.935 155.144 114.359C154.326 114.447 153.513 114.579 152.723 114.838C151.856 115.125 151.054 115.576 150.138 115.698C149.145 115.83 148.131 115.62 147.127 115.731C146.233 115.824 145.366 116.05 144.515 116.358C144.215 116.458 144.346 116.948 144.652 116.838Z" fill="#A7CEEE"/>
<path d="M150.89 111.482C152.265 111.086 153.595 111.361 154.986 111.449C156.284 111.532 157.336 111.262 158.558 110.844C159.987 110.353 161.399 110.144 162.888 110.486C163.891 110.717 164.764 111.053 165.805 110.943C167.25 110.788 168.608 110.397 170.081 110.436C171.461 110.474 172.846 110.612 174.22 110.711C175.709 110.821 177.192 110.932 178.681 111.042C180.093 111.146 181.604 111.202 182.645 112.303C182.869 112.54 183.224 112.182 183 111.945C181.397 110.26 178.555 110.53 176.445 110.375C173.511 110.161 170.353 109.577 167.436 110.128C166.591 110.287 165.773 110.508 164.906 110.441C164.18 110.386 163.509 110.105 162.806 109.957C161.715 109.725 160.586 109.747 159.501 110.017C157.854 110.425 156.502 111.069 154.757 110.937C153.388 110.832 152.095 110.618 150.754 111.003C150.443 111.086 150.579 111.576 150.89 111.482Z" fill="#A7CEEE"/>
</g>
</g>
<defs>
<filter id="filter0_d_6001_3752" x="-11.6978" y="0.000127316" width="225.542" height="153.099" filterUnits="userSpaceOnUse" color-interpolation-filters="sRGB">
<feFlood flood-opacity="0" result="BackgroundImageFix"/>
<feColorMatrix in="SourceAlpha" type="matrix" values="0 0 0 0 0 0 0 0 0 0 0 0 0 0 0 0 0 0 127 0" result="hardAlpha"/>
<feOffset dy="4.34979"/>
<feGaussianBlur stdDeviation="6.52468"/>
<feComposite in2="hardAlpha" operator="out"/>
<feColorMatrix type="matrix" values="0 0 0 0 0.905882 0 0 0 0 0.913725 0 0 0 0 0.92549 0 0 0 0.3 0"/>
<feBlend mode="normal" in2="BackgroundImageFix" result="effect1_dropShadow_6001_3752"/>
<feBlend mode="normal" in="SourceGraphic" in2="effect1_dropShadow_6001_3752" result="shape"/>
</filter>
<clipPath id="clip0_6001_3752">
<rect width="199.444" height="127" fill="white" transform="translate(1.35156 8.69971)"/>
</clipPath>
</defs>
</svg>
