<svg width="214" height="64" viewBox="0 0 214 64" fill="none" xmlns="http://www.w3.org/2000/svg">
<g filter="url(#filter0_n_4098_9565)">
<path d="M19.4768 34.3804H71.1423V53.2735H19.4768C14.2429 53.2735 10 49.0441 10 43.8269C9.99955 38.6097 14.2425 34.3804 19.4768 34.3804Z" fill="url(#paint0_linear_4098_9565)"/>
<path d="M203.615 37.5114H63.8738V50.2012H203.615V37.5114Z" fill="url(#paint1_linear_4098_9565)"/>
<path d="M69.3299 39.3201C68.1704 40.4758 67.4564 42.0686 67.4564 43.83C67.4564 47.3468 70.3196 50.2008 73.8543 50.2008H205.845V53.273H66.5869C63.9713 53.273 61.6027 52.2161 59.8848 50.5037C58.1739 48.7983 57.1132 46.4373 57.1132 43.83C57.1132 38.6079 61.3552 34.3799 66.5865 34.3799H205.845V37.4526H73.8547C72.0871 37.4526 70.4893 38.1643 69.3299 39.3201Z" fill="url(#paint2_linear_4098_9565)"/>
<path d="M31.183 34.3802H82.139V10.0005H31.183C24.429 10.0005 18.9542 15.4582 18.9542 22.1901C18.9542 28.9225 24.4294 34.3802 31.183 34.3802Z" fill="url(#paint3_linear_4098_9565)"/>
<path d="M84.6192 10.9349H190.791V32.7898H84.6192C78.6302 32.7898 73.7751 27.9503 73.7751 21.9804V21.7444C73.7751 15.7745 78.6306 10.9349 84.6192 10.9349Z" fill="url(#paint4_linear_4098_9565)"/>
<path d="M78.144 22.1901C78.144 24.6205 79.1342 26.8501 80.7293 28.4401C82.3427 30.0484 84.5428 31.0354 86.9994 31.0354H192.66V34.3798H80.3441C76.9707 34.3798 73.9087 33.0276 71.7086 30.8163C69.4902 28.605 68.1149 25.571 68.1149 22.1901C68.1149 15.4644 73.5969 10 80.3437 10H192.66V13.3627H86.9994C82.1046 13.3631 78.144 17.3105 78.144 22.1901Z" fill="url(#paint5_linear_4098_9565)"/>
</g>
<defs>
<filter id="filter0_n_4098_9565" x="0" y="0" width="215.846" height="63.2734" filterUnits="userSpaceOnUse" color-interpolation-filters="sRGB">
<feFlood flood-opacity="0" result="BackgroundImageFix"/>
<feBlend mode="normal" in="SourceGraphic" in2="BackgroundImageFix" result="shape"/>
<feTurbulence type="fractalNoise" baseFrequency="3.6248250007629395 3.6248250007629395" stitchTiles="stitch" numOctaves="3" result="noise" seed="9763" />
<feColorMatrix in="noise" type="luminanceToAlpha" result="alphaNoise" />
<feComponentTransfer in="alphaNoise" result="coloredNoise1">
<feFuncA type="discrete" tableValues="0 0 0 1 1 1 1 1 1 1 1 1 1 1 1 1 1 1 1 1 1 1 1 1 1 1 1 1 1 1 1 1 1 1 1 1 1 1 1 1 1 1 1 1 1 1 1 1 0 0 0 0 0 0 0 0 0 0 0 0 0 0 0 0 0 0 0 0 0 0 0 0 0 0 0 0 0 0 0 0 0 0 0 0 0 0 0 0 0 0 0 0 0 0 0 0 0 0 0 0 "/>
</feComponentTransfer>
<feComposite operator="in" in2="shape" in="coloredNoise1" result="noise1Clipped" />
<feFlood flood-color="rgba(30, 68, 126, 0.1)" result="color1Flood" />
<feComposite operator="in" in2="noise1Clipped" in="color1Flood" result="color1" />
<feMerge result="effect1_noise_4098_9565">
<feMergeNode in="shape" />
<feMergeNode in="color1" />
</feMerge>
</filter>
<linearGradient id="paint0_linear_4098_9565" x1="9.99973" y1="43.827" x2="71.1423" y2="43.827" gradientUnits="userSpaceOnUse">
<stop offset="0.0077" stop-color="#F6DD60"/>
<stop offset="1" stop-color="#EEBE2D"/>
</linearGradient>
<linearGradient id="paint1_linear_4098_9565" x1="63.8738" y1="43.8563" x2="203.615" y2="43.8563" gradientUnits="userSpaceOnUse">
<stop stop-color="#CDCDCD"/>
<stop offset="1" stop-color="white"/>
</linearGradient>
<linearGradient id="paint2_linear_4098_9565" x1="57.1137" y1="43.827" x2="205.846" y2="43.827" gradientUnits="userSpaceOnUse">
<stop offset="0.0077" stop-color="#F6DD60"/>
<stop offset="1" stop-color="#EEBE2D"/>
</linearGradient>
<linearGradient id="paint3_linear_4098_9565" x1="18.9541" y1="22.1904" x2="82.1391" y2="22.1904" gradientUnits="userSpaceOnUse">
<stop offset="0.0077" stop-color="#ED633D"/>
<stop offset="1" stop-color="#BA3B0D"/>
</linearGradient>
<linearGradient id="paint4_linear_4098_9565" x1="73.7751" y1="21.8626" x2="190.791" y2="21.8626" gradientUnits="userSpaceOnUse">
<stop stop-color="#CDCDCD"/>
<stop offset="1" stop-color="white"/>
</linearGradient>
<linearGradient id="paint5_linear_4098_9565" x1="68.1151" y1="22.1904" x2="192.66" y2="22.1904" gradientUnits="userSpaceOnUse">
<stop offset="0.0077" stop-color="#ED633D"/>
<stop offset="1" stop-color="#BA3B0D"/>
</linearGradient>
</defs>
</svg>
