<svg width="208" height="135" viewBox="0 0 208 135" fill="none" xmlns="http://www.w3.org/2000/svg">
<g filter="url(#filter0_d_4098_8609)">
<path d="M97.6651 58.3066C87.686 59.3824 80.6737 60.0548 77.8419 66.1057C75.0101 72.1568 71.7734 106.043 71.7734 106.043C71.7734 106.043 81.4829 110.749 91.0574 106.715V131.188H135.289V103.488V58.3066H97.6651Z" fill="url(#paint0_linear_4098_8609)"/>
<path d="M136.278 100.933L135.518 105.638C135.518 105.638 129.563 105.259 114.428 108.291C104.736 110.233 88.7637 114.049 88.7637 114.049V122.568C88.7637 122.568 103.145 121.81 111.697 121.178C120.25 120.547 140.586 121.305 145.021 117.009C149.456 112.714 151.229 98.6047 151.229 98.6047L136.278 100.933Z" fill="url(#paint1_linear_4098_8609)"/>
<path d="M129.355 58.3065C136.907 57.7687 146.482 56.5583 149.179 63.0129C151.876 69.4673 154.708 95.4197 154.977 100.798C154.977 100.798 143.38 105.505 133.806 101.202L129.355 58.3065Z" fill="url(#paint2_linear_4098_8609)"/>
<path d="M135.29 100.935L136.012 102.575L135.517 105.637C135.517 105.637 129.562 105.261 114.431 108.291C110.57 109.066 105.714 110.135 101.267 111.145L100.081 111.018C100.081 111.018 121.281 105.089 125.446 104.146C129.616 103.204 130.729 99.3 131.538 92.1658C132.324 85.2536 134.504 75.3069 134.641 74.6953C133.518 82.5496 133.805 90.5487 133.805 90.5487C136.262 79.2023 139.687 74.0475 139.901 73.7351C136.535 81.0094 135.453 95.9388 135.29 100.935Z" fill="url(#paint3_linear_4098_8609)"/>
<path d="M122.884 67.1817C119.377 73.5005 110.61 74.4425 106.431 69.1973C104.209 66.4117 103.773 60.8901 103.86 56.3288C103.932 52.3021 104.405 49.0271 104.405 49.0271C104.405 49.0271 120.59 43.6504 121.13 49.0271C121.203 49.7609 121.335 50.4447 121.503 51.0835C122.584 55.1194 125.282 57.2028 125.282 57.2028C125.282 57.2028 126.386 60.8629 122.884 67.1817Z" fill="url(#paint4_linear_4098_8609)"/>
<path d="M118.059 9.77678C113.248 7.97774 105.43 6.89844 100.739 9.77678C96.0484 12.6551 94.7253 19.2517 93.7632 22.8495C92.8011 26.4476 87.7493 27.5269 87.8696 31.3648C87.9898 35.2027 92.0793 39.2805 90.0346 43.1184C87.9899 46.9563 84.0207 53.4327 85.2235 57.7504C86.4264 62.068 89.5535 63.0276 91.5982 63.2674C93.6429 63.5072 98.3337 63.6272 97.3716 68.7844C97.3716 68.7844 99.1757 64.8266 94.6053 62.308C90.0348 59.7895 84.502 56.8303 90.9969 47.4558C90.9969 47.4558 88.9522 51.9937 91.5982 56.1914C94.2442 60.3891 99.7771 61.9483 100.739 65.5463C101.702 69.1444 99.296 76.5802 102.423 78.979C105.551 81.3777 112.901 77.4199 114.458 72.2628C116.015 67.1055 113.369 60.2694 109.4 57.2711C105.43 54.2726 104.744 50.9346 104.744 50.9346L120.62 50.6947C120.62 50.6947 130.809 61.8285 127.802 68.7846C127.802 68.7846 133.696 69.5042 136.823 65.7862C139.95 62.0682 140.431 59.9094 144.04 58.5902C147.648 57.2709 147.528 52.1138 145.483 49.5952C143.438 47.0767 138.146 42.0393 138.747 36.0426C139.349 30.0459 135.981 25.6084 132.974 22.9699C129.967 20.3314 132.373 14.5745 128.283 13.0153C124.194 11.4561 125.26 9.55157 122.675 8.95669C120.095 8.36306 118.059 9.77678 118.059 9.77678Z" fill="url(#paint5_linear_4098_8609)"/>
<path d="M126.251 68.8165L102.234 92.3888L99.5947 93.3535L100.194 90.6087C100.194 90.6087 100.199 90.6088 100.203 90.6042L124.606 67.1335C125.071 66.6861 125.811 66.6958 126.264 67.1551C126.721 67.6175 126.715 68.3613 126.251 68.8165Z" fill="url(#paint6_linear_4098_8609)"/>
<path d="M102.234 92.3885L100.599 92.9862L99.5947 93.3532L99.8218 92.316L100.194 90.6084C100.194 90.6084 100.199 90.6084 100.203 90.6039C100.344 90.5721 102.139 90.16 102.234 92.3885Z" fill="#F8E6CA"/>
<path d="M100.599 92.9861L99.5947 93.3529L99.8219 92.3162C100.181 92.393 100.472 92.6465 100.599 92.9861Z" fill="#401215"/>
<path d="M118.174 16.0596C118.174 16.0596 116.252 16.8667 112.611 17.3709C108.969 17.8753 106.339 20.397 105.529 25.8441C104.72 31.2911 103.405 34.9226 98.4482 37.7469C98.4482 37.7469 100.363 48.6776 106.234 52.3412C112.105 56.0048 116.86 55.9038 121.311 51.1627C125.762 46.4217 126.874 39.058 127.077 36.1329C127.279 33.2076 125.256 32.2997 125.863 28.3658C126.47 24.4319 124.649 21.3048 122.221 19.7918C119.793 18.2787 118.174 16.0596 118.174 16.0596Z" fill="url(#paint7_linear_4098_8609)"/>
<path d="M91.0568 106.715C91.0568 106.715 91.0015 81.1297 87.0166 69.8049C87.0166 69.8049 91.8654 78.7531 92.4263 90.2179C92.9873 101.683 91.0568 106.715 91.0568 106.715Z" fill="url(#paint8_linear_4098_8609)"/>
<path d="M74.0654 105.774C74.0654 105.774 74.7397 124.061 80.9428 126.347C87.146 128.633 89.3037 125.406 89.3037 125.406L89.8431 100.933L74.0654 105.774Z" fill="url(#paint9_linear_4098_8609)"/>
<path d="M95.9118 88.024C95.9118 88.024 95.0825 100.554 94.5632 109.135C94.246 114.377 94.0069 123.658 89.304 125.406C84.601 127.154 77.077 125.609 77.0324 116.666C76.9878 107.722 84.9887 94.6129 87.8205 88.024C90.6523 81.4351 91.7312 77.6699 97.2603 75.6529C102.789 73.6358 109.031 70.7748 111.824 71.2153C114.618 71.6561 117.912 73.7143 120.108 74.9655C122.303 76.2166 125.409 81.2521 124.578 82.0815C123.48 83.1762 120.5 80.4332 120.5 80.4332C120.5 80.4332 120.578 82.707 119.716 83.2543C118.853 83.8018 117.441 83.4107 117.441 83.4107C117.441 83.4107 116.64 84.9746 114.649 85.2874C114.649 85.2874 113.834 86.9297 111.56 86.9297C109.285 86.9297 108.815 86.1477 108.815 86.1477C108.815 86.1477 109.678 85.0529 108.736 84.3491C107.795 83.6452 105.913 84.8965 105.913 84.8965C105.913 84.8965 100.261 87.7887 95.9118 88.024Z" fill="url(#paint10_linear_4098_8609)"/>
<path d="M80.8174 124.037H117.734C117.734 125.765 116.329 127.166 114.596 127.166H80.8174V124.037Z" fill="url(#paint11_linear_4098_8609)"/>
<path d="M31.2702 125.666L12.2037 89.7603C11.593 88.6105 12.4289 87.2261 13.7336 87.2261H60.8238C61.8787 87.2261 62.8458 87.8117 63.3322 88.7449L81.9683 124.498C82.6017 125.714 81.7175 127.166 80.3439 127.166H33.7685C32.7215 127.166 31.7602 126.589 31.2702 125.666Z" fill="url(#paint12_linear_4098_8609)"/>
<path d="M47.192 112.886C48.5612 112.098 48.2767 109.05 46.5565 106.079C44.8363 103.108 42.3318 101.339 40.9626 102.127C39.5934 102.916 39.8779 105.963 41.5981 108.934C43.3183 111.905 45.8228 113.674 47.192 112.886Z" fill="white"/>
<path d="M205.43 134.916H23.8297C21.6833 134.916 19.9434 133.181 19.9434 131.041C19.9434 128.901 21.6833 127.166 23.8297 127.166H205.43C207.576 127.166 209.316 128.901 209.316 131.041C209.316 133.181 207.576 134.916 205.43 134.916Z" fill="url(#paint13_linear_4098_8609)"/>
<path d="M172.093 115.299V126.039H173.556V127.166H135.081C133.164 127.166 131.61 125.617 131.61 123.701V117.514C131.61 115.598 133.164 114.049 135.081 114.049H173.556V115.299H172.093Z" fill="url(#paint14_linear_4098_8609)"/>
<path d="M172.497 125.914H136.423C135.043 125.914 133.925 124.799 133.925 123.423V117.792C133.925 116.416 135.043 115.301 136.423 115.301H172.497L172.497 125.914Z" fill="url(#paint15_linear_4098_8609)"/>
</g>
<defs>
<filter id="filter0_d_4098_8609" x="0" y="0" width="221.316" height="151" filterUnits="userSpaceOnUse" color-interpolation-filters="sRGB">
<feFlood flood-opacity="0" result="BackgroundImageFix"/>
<feColorMatrix in="SourceAlpha" type="matrix" values="0 0 0 0 0 0 0 0 0 0 0 0 0 0 0 0 0 0 127 0" result="hardAlpha"/>
<feOffset dy="4"/>
<feGaussianBlur stdDeviation="6"/>
<feComposite in2="hardAlpha" operator="out"/>
<feColorMatrix type="matrix" values="0 0 0 0 0.905882 0 0 0 0 0.913725 0 0 0 0 0.92549 0 0 0 0.3 0"/>
<feBlend mode="normal" in2="BackgroundImageFix" result="effect1_dropShadow_4098_8609"/>
<feBlend mode="normal" in="SourceGraphic" in2="effect1_dropShadow_4098_8609" result="shape"/>
</filter>
<linearGradient id="paint0_linear_4098_8609" x1="103.531" y1="58.8998" x2="103.531" y2="129.979" gradientUnits="userSpaceOnUse">
<stop offset="0.0077" stop-color="#ED633D"/>
<stop offset="1" stop-color="#BA3B0D"/>
</linearGradient>
<linearGradient id="paint1_linear_4098_8609" x1="88.7636" y1="110.586" x2="151.229" y2="110.586" gradientUnits="userSpaceOnUse">
<stop offset="0.0077" stop-color="#F1CDAB"/>
<stop offset="1" stop-color="#E48C75"/>
</linearGradient>
<linearGradient id="paint2_linear_4098_8609" x1="142.166" y1="58.8996" x2="142.166" y2="129.979" gradientUnits="userSpaceOnUse">
<stop offset="0.0077" stop-color="#ED633D"/>
<stop offset="1" stop-color="#BA3B0D"/>
</linearGradient>
<linearGradient id="paint3_linear_4098_8609" x1="124.69" y1="109.011" x2="121.367" y2="97.1798" gradientUnits="userSpaceOnUse">
<stop stop-color="#922E0D"/>
<stop offset="1" stop-color="#BA3B0D"/>
</linearGradient>
<linearGradient id="paint4_linear_4098_8609" x1="115.317" y1="73.2097" x2="114.462" y2="54.3542" gradientUnits="userSpaceOnUse">
<stop offset="0.0077" stop-color="#F1CDAB"/>
<stop offset="1" stop-color="#E48C75"/>
</linearGradient>
<linearGradient id="paint5_linear_4098_8609" x1="85.0008" y1="43.8485" x2="146.91" y2="43.8485" gradientUnits="userSpaceOnUse">
<stop stop-color="#B0761C"/>
<stop offset="0.2373" stop-color="#965C16"/>
<stop offset="0.5094" stop-color="#7F4610"/>
<stop offset="0.7659" stop-color="#71390D"/>
<stop offset="0.9885" stop-color="#6C340C"/>
</linearGradient>
<linearGradient id="paint6_linear_4098_8609" x1="125.87" y1="67.7506" x2="100.794" y2="92.0419" gradientUnits="userSpaceOnUse">
<stop offset="0.0077" stop-color="#F6DD60"/>
<stop offset="1" stop-color="#EEBE2D"/>
</linearGradient>
<linearGradient id="paint7_linear_4098_8609" x1="115.604" y1="53.6109" x2="110.232" y2="19.0791" gradientUnits="userSpaceOnUse">
<stop offset="0.0077" stop-color="#F1CDAB"/>
<stop offset="1" stop-color="#E48C75"/>
</linearGradient>
<linearGradient id="paint8_linear_4098_8609" x1="91.3411" y1="101.715" x2="89.2069" y2="72.8211" gradientUnits="userSpaceOnUse">
<stop stop-color="#922E0D"/>
<stop offset="1" stop-color="#BA3B0D"/>
</linearGradient>
<linearGradient id="paint9_linear_4098_8609" x1="74.0654" y1="114.049" x2="89.8431" y2="114.049" gradientUnits="userSpaceOnUse">
<stop offset="0.0077" stop-color="#F1CDAB"/>
<stop offset="1" stop-color="#E48C75"/>
</linearGradient>
<linearGradient id="paint10_linear_4098_8609" x1="77.0322" y1="98.6048" x2="124.716" y2="98.6048" gradientUnits="userSpaceOnUse">
<stop offset="0.0077" stop-color="#F1CDAB"/>
<stop offset="1" stop-color="#E48C75"/>
</linearGradient>
<linearGradient id="paint11_linear_4098_8609" x1="99.2755" y1="124.024" x2="99.2755" y2="126.911" gradientUnits="userSpaceOnUse">
<stop stop-color="white"/>
<stop offset="1" stop-color="#CDCDCD"/>
</linearGradient>
<linearGradient id="paint12_linear_4098_8609" x1="12" y1="107.196" x2="82.1773" y2="107.196" gradientUnits="userSpaceOnUse">
<stop stop-color="white"/>
<stop offset="1" stop-color="#CDCDCD"/>
</linearGradient>
<linearGradient id="paint13_linear_4098_8609" x1="19.9435" y1="131.041" x2="209.316" y2="131.041" gradientUnits="userSpaceOnUse">
<stop stop-color="#EDC64D"/>
<stop offset="1" stop-color="#E1B02E"/>
</linearGradient>
<linearGradient id="paint14_linear_4098_8609" x1="131.61" y1="120.608" x2="173.556" y2="120.608" gradientUnits="userSpaceOnUse">
<stop stop-color="#253054"/>
<stop offset="1" stop-color="#1B213F"/>
</linearGradient>
<linearGradient id="paint15_linear_4098_8609" x1="133.925" y1="120.608" x2="172.497" y2="120.608" gradientUnits="userSpaceOnUse">
<stop stop-color="#CDCDCD"/>
<stop offset="1" stop-color="white"/>
</linearGradient>
</defs>
</svg>
