<svg width="309" height="330" viewBox="0 0 309 330" fill="none" xmlns="http://www.w3.org/2000/svg">
<g clip-path="url(#clip0_4086_19352)">
<path d="M75.1038 297.432C114.494 313.809 156.776 312.693 193.282 297.579L201.162 316.579C159.79 333.671 111.94 334.957 67.2812 316.369L75.0826 297.409L75.1038 297.432Z" fill="#3C5780"/>
<path d="M98.5938 240.468L106.416 221.487C124.836 229.164 144.618 228.63 161.681 221.584L169.56 240.582C147.631 249.651 122.219 250.337 98.5938 240.468Z" fill="#3C5780"/>
<path d="M276.398 95.8572L295.354 88.0239C312.576 129.532 314.077 177.512 295.711 222.07L276.738 214.18C292.958 174.793 291.648 132.451 276.441 95.8147L276.398 95.8572Z" fill="#F55E68"/>
<path d="M82.9889 278.43C117.11 292.636 153.783 291.65 185.444 278.582L193.324 297.579C156.797 312.673 114.514 313.786 75.1875 297.432L83.0101 278.45L82.9889 278.43Z" fill="#F55E68"/>
<path d="M200.621 127.148L219.575 119.315C228.708 141.314 229.489 166.783 219.732 190.423L200.76 182.533C208.349 164.084 207.757 144.297 200.621 127.148Z" fill="#F55E68"/>
<path d="M114.28 202.464C127.452 207.952 141.624 207.587 153.864 202.521L161.743 221.52C144.68 228.565 124.877 229.08 106.457 221.445L114.28 202.464Z" fill="#F55E68"/>
<path d="M257.484 103.691L276.437 95.8574C291.644 132.494 292.955 174.835 276.734 214.18L257.763 206.289C271.814 172.18 270.673 135.455 257.484 103.691Z" fill="#755766"/>
<path d="M181.668 135.024L200.622 127.191C207.758 144.339 208.328 164.148 200.761 182.575L181.788 174.685C187.23 161.492 186.808 147.322 181.668 135.024Z" fill="#755766"/>
<path opacity="0.25" d="M238.531 111.524C227.381 84.6532 206.01 61.9756 177.095 49.9592L184.917 30.9786C150.818 16.7503 114.144 17.7357 82.4615 30.827L74.582 11.8278C111.088 -3.24301 153.371 -4.44219 192.718 11.9767C232.088 28.3744 261.19 59.2633 276.355 95.8573L257.402 103.691C270.59 135.413 271.708 172.158 257.681 206.289L238.707 198.399C250.59 169.481 249.661 138.417 238.511 111.546L238.531 111.524Z" fill="#ABD14E"/>
<path d="M162.713 142.815C159.634 135.433 153.77 129.178 145.825 125.903L153.647 106.922C140.475 101.435 126.303 101.799 114.063 106.866L106.184 87.8665C123.268 80.7995 143.049 80.3065 161.47 87.9417C179.911 95.5981 193.528 110.085 200.643 127.17L181.689 135.003C186.786 147.258 187.208 161.428 181.788 174.642L162.815 166.752C166.089 158.794 165.814 150.219 162.777 142.879L162.713 142.815Z" fill="#ABD14E"/>
<path opacity="0.25" d="M82.4609 30.8269C114.101 17.7783 150.774 16.7929 184.917 30.9787L177.094 49.9593C148.2 37.9216 117.157 38.7571 90.3829 49.826L82.5034 30.8269L82.4821 30.8481L82.4609 30.8269Z" fill="#476144"/>
<path d="M114.043 106.887C126.261 101.842 140.455 101.456 153.627 106.944L145.805 125.924C137.838 122.628 129.317 122.821 121.965 125.886L114.086 106.887L114.064 106.908L114.043 106.887Z" fill="#476144"/>
<path opacity="0.6" d="M29.1579 111.051L48.1306 118.942C38.3737 142.582 39.1553 168.051 48.309 190.029L29.3549 197.862C18.2047 171.034 17.2329 139.926 29.1579 111.051Z" fill="#755766"/>
<path d="M105.111 142.677L124.083 150.567C122.957 153.27 123.063 156.227 124.103 158.716L105.149 166.55C102.07 159.167 101.816 150.614 105.111 142.677Z" fill="#755766"/>
<path opacity="0.6" d="M48.3738 190.05C39.2413 168.052 38.4597 142.583 48.1954 118.963L67.1681 126.854C59.6005 145.281 60.1919 165.112 67.3068 182.238C74.4004 199.344 88.0388 213.81 106.48 221.466L98.6578 240.446C122.305 250.295 147.738 249.631 169.667 240.563L177.546 259.56C150.751 270.609 119.687 271.465 90.8352 259.428C61.9408 247.391 40.5698 224.713 29.3984 197.863L48.3526 190.029L48.3738 190.05Z" fill="#40B4E5"/>
<path d="M124.148 158.759C125.21 161.27 127.228 163.418 129.926 164.545C132.625 165.673 135.557 165.587 138.064 164.565L145.943 183.565C138.57 186.609 130.007 186.844 122.104 183.526C114.137 180.23 108.295 173.997 105.215 166.614L124.148 158.759Z" fill="#40B4E5"/>
<path opacity="0.25" d="M10.1836 103.161C24.2345 69.0515 50.8833 43.897 82.4808 30.8057L90.3603 49.8048C117.155 38.7572 148.219 37.9004 177.071 49.9381L169.27 68.9401C145.623 59.0929 120.19 59.7571 98.261 68.8252C76.3318 77.8933 57.8858 95.3012 48.1715 118.985L29.1988 111.094C17.2949 139.991 18.2667 171.055 29.4167 197.926L10.4626 205.76C-2.70516 174.016 -3.84591 137.292 10.1836 103.161Z" fill="#FFC834"/>
<path d="M86.1386 134.786C91.5591 121.615 101.823 111.889 114.084 106.802L121.964 125.801C129.337 122.757 137.9 122.521 145.803 125.839L137.981 144.82C135.283 143.693 132.35 143.778 129.843 144.8C127.336 145.864 125.253 147.822 124.084 150.567L105.111 142.677C101.838 150.635 102.112 159.21 105.149 166.55L86.1953 174.383C81.0981 162.128 80.6757 147.958 86.0962 134.744L86.1386 134.786Z" fill="#FFC834"/>
</g>
<defs>
<clipPath id="clip0_4086_19352">
<rect width="309" height="330" fill="white"/>
</clipPath>
</defs>
</svg>
